<?xml version="1.0" encoding="UTF-8"?>
<svg width="245px" height="147px" viewBox="0 0 245 147" version="1.1" xmlns="http://www.w3.org/2000/svg" xmlns:xlink="http://www.w3.org/1999/xlink">
    <!-- Generator: Sketch 63.1 (92452) - https://sketch.com -->
    <title>AmericanExpress-light</title>
    <desc>Created with Sketch.</desc>
    <g id="Page-1" stroke="none" stroke-width="1" fill="none" fill-rule="evenodd">
        <g id="AmericanExpress-light" transform="translate(0.000000, 1.000000)">
            <rect id="Rectangle" fill="#FFFFFF" x="0" y="-1" width="245" height="147"></rect>
            <path d="M207,84.2581704 L198.367884,84.2581704 C197.506048,84.2581704 196.933482,84.2908305 196.451164,84.6204558 C195.951514,84.9452425 195.759065,85.4272816 195.759065,86.063549 C195.759065,86.820175 196.181018,87.3348742 196.794823,87.5574468 C197.294473,87.7334485 197.831179,87.784858 198.6201,87.784858 L201.187083,87.8544119 C203.777375,87.9191273 205.506428,88.369716 206.560714,89.4686683 C206.752566,89.621687 206.867915,89.793455 207,89.965223 L207,84.2581704 Z M207,97.4812831 C205.84949,99.1838427 203.607638,100.046917 200.572681,100.046917 L191.425973,100.046917 L191.425973,95.7460633 L200.535625,95.7460633 C201.439299,95.7460633 202.071632,95.6257047 202.452346,95.2495086 C202.782259,94.9392375 203.012361,94.4886489 203.012361,93.9412896 C203.012361,93.3570364 202.782259,92.8931418 202.433818,92.614926 C202.090159,92.3088886 201.589911,92.1697808 200.76513,92.1697808 C196.317884,92.0167621 190.769734,92.3088886 190.769734,85.9619397 C190.769734,83.0527703 192.595011,79.9905821 197.565217,79.9905821 L206.999402,79.9905821 L206.999402,76 L198.234007,76 C195.588729,76 193.667227,76.641106 192.306338,77.6378443 L192.306338,76 L179.341131,76 C177.267822,76 174.834118,76.5201426 173.68301,77.6378443 L173.68301,76 L150.530556,76 L150.530556,77.6378443 C148.687947,76.2927314 145.578879,76 144.143879,76 L128.872272,76 L128.872272,77.6378443 C127.41456,76.2092667 124.17281,76 122.19692,76 L105.105415,76 L101.194277,80.2833135 L97.5311717,76 L72,76 L72,103.986089 L97.0506468,103.986089 L101.080721,99.6350362 L104.877106,103.986089 L120.318451,104 L120.318451,97.4165677 L121.836527,97.4165677 C123.885332,97.448623 126.301703,97.3651582 128.433584,96.4325305 L128.433584,103.985484 L141.169884,103.985484 L141.169884,96.6913922 L141.784286,96.6913922 C142.568426,96.6913922 142.645525,96.7240523 142.645525,97.5169673 L142.645525,103.98488 L181.336146,103.98488 C183.792561,103.98488 186.360141,103.348612 187.781993,102.194017 L187.781993,103.98488 L200.054503,103.98488 C202.608337,103.98488 205.102405,103.622594 207,102.694805 L207,97.4812831 L207,97.4812831 Z M188.107124,89.4686683 C189.029326,90.434561 189.523597,91.6538719 189.523597,93.7181121 C189.523597,98.0328761 186.859792,100.046917 182.083231,100.046917 L172.858229,100.046917 L172.858229,95.7460633 L182.046175,95.7460633 C182.94447,95.7460633 183.581584,95.6257047 183.980826,95.2495086 C184.306555,94.9392375 184.540243,94.4886489 184.540243,93.9412896 C184.540243,93.3570364 184.287429,92.8931418 183.962298,92.614926 C183.600112,92.3088886 183.100461,92.1697808 182.27568,92.1697808 C177.846364,92.0167621 172.299409,92.3088886 172.299409,85.9619397 C172.299409,83.0527703 174.105561,79.9905821 179.070985,79.9905821 L188.566133,79.9905821 L188.566133,84.2593801 L179.877837,84.2593801 C179.016597,84.2593801 178.456583,84.2920402 177.980242,84.6216654 C177.461466,84.9464521 177.269017,85.4284912 177.269017,86.0647586 C177.269017,86.8213846 177.709498,87.3360838 178.305373,87.5586564 C178.805023,87.7346582 179.341729,87.7860676 180.14858,87.7860676 L182.698231,87.8556216 C185.269398,87.9191273 187.034311,88.3691111 188.107124,89.4686683 L188.107124,89.4686683 Z M145.369097,88.2300032 C144.73557,88.6104331 143.952027,88.6430932 143.030424,88.6430932 L137.276676,88.6430932 L137.276676,84.1384167 L143.108718,84.1384167 C143.952027,84.1384167 144.795934,84.1565612 145.369097,84.500702 C145.982902,84.8254887 146.34987,85.4466357 146.34987,86.3048709 C146.34987,87.1631062 145.982902,87.8544119 145.369097,88.2300032 L145.369097,88.2300032 Z M148.229535,90.7260827 C149.283821,91.1198186 150.145658,91.8256399 150.549682,92.4098931 C151.218472,93.3890917 151.315294,94.3029701 151.334419,96.07085 L151.334419,100.046917 L146.579375,100.046917 L146.579375,97.5375311 C146.579375,96.3309213 146.694127,94.544292 145.813762,93.6116643 C145.121663,92.8931418 144.066779,92.7213738 142.338922,92.7213738 L137.277274,92.7213738 L137.277274,100.046917 L132.518045,100.046917 L132.518045,79.9899773 L143.452975,79.9899773 C145.850818,79.9899773 147.597203,80.0970299 149.151737,80.9365158 C150.646504,81.8503942 151.586635,83.1023653 151.586635,85.3903877 C151.586038,88.5916838 149.47627,90.2252943 148.229535,90.7260827 L148.229535,90.7260827 Z M154.212787,79.9899773 L170.020502,79.9899773 L170.020502,84.1378119 L158.929581,84.1378119 L158.929581,87.7842532 L169.749759,87.7842532 L169.749759,91.8764445 L158.929581,91.8764445 L158.929581,95.8670267 L170.020502,95.8851712 L170.020502,100.046917 L154.212787,100.046917 L154.212787,79.9899773 L154.212787,79.9899773 Z M122.257285,89.2460957 L116.136569,89.2460957 L116.136569,84.1384167 L122.31227,84.1384167 C124.022198,84.1384167 125.209166,84.8436332 125.209166,86.5976023 C125.209166,88.3322173 124.077183,89.2460957 122.257285,89.2460957 L122.257285,89.2460957 Z M111.419178,98.2227886 L104.147354,90.0529215 L111.419178,82.1425208 L111.419178,98.2227886 L111.419178,98.2227886 Z M92.6398587,95.8670267 L80.9948999,95.8670267 L80.9948999,91.8764445 L91.3931237,91.8764445 L91.3931237,87.7842532 L80.9948999,87.7842532 L80.9948999,84.1378119 L92.8693631,84.1378119 L98.0499473,89.9827627 L92.6398587,95.8670267 L92.6398587,95.8670267 Z M130.294123,86.5976023 C130.294123,92.1691759 126.186353,93.3195377 122.046308,93.3195377 L116.136569,93.3195377 L116.136569,100.046917 L106.930693,100.046917 L101.098651,93.4072362 L95.0377018,100.046917 L76.2769105,100.046917 L76.2769105,79.9899773 L95.3263753,79.9899773 L101.153636,86.5643374 L107.178127,79.9899773 L122.31227,79.9899773 C126.071003,79.9899773 130.294123,81.0429636 130.294123,86.5976023 L130.294123,86.5976023 Z" id="EXPRESS" fill="#0072CE"></path>
            <path d="M52.3158224,58.3859588 L49.0471613,50.386737 L45.7971818,58.3859588 L52.3158224,58.3859588 Z M124.323991,55.2006744 C123.667728,55.6007263 122.891542,55.6140412 121.961685,55.6140412 L116.160173,55.6140412 L116.160173,51.1571849 L122.040629,51.1571849 C122.87286,51.1571849 123.741249,51.1947086 124.30531,51.5191077 C124.924813,51.8114301 125.308085,52.4335985 125.308085,53.293014 C125.308085,54.169981 124.943494,54.8756701 124.323991,55.2006744 L124.323991,55.2006744 Z M165.711363,58.3859588 L162.406544,50.386737 L159.119804,58.3859588 L165.711363,58.3859588 L165.711363,58.3859588 Z M88.5627664,67.0442677 L83.6670064,67.0442677 L83.6489275,51.329068 L76.7241148,67.0442677 L72.5310205,67.0442677 L65.5881289,51.3151478 L65.5881289,67.0442677 L55.8749507,67.0442677 L54.0399446,62.5686495 L44.096562,62.5686495 L42.2428745,67.0442677 L37.0560445,67.0442677 L45.6079562,46.9787308 L52.703313,46.9787308 L60.82555,65.9766557 L60.82555,46.9787308 L68.6199567,46.9787308 L74.8698246,60.5907833 L80.6110735,46.9787308 L88.5621638,46.9787308 L88.5621638,67.0442677 L88.5627664,67.0442677 Z M108.075299,67.0442677 L92.1218948,67.0442677 L92.1218948,46.9787308 L108.075299,46.9787308 L108.075299,51.1571849 L96.8977316,51.1571849 L96.8977316,54.7739927 L107.807129,54.7739927 L107.807129,58.8870828 L96.8977316,58.8870828 L96.8977316,62.894259 L108.075299,62.894259 L108.075299,67.0442677 L108.075299,67.0442677 Z M130.569038,52.3827598 C130.569038,55.5819644 128.442962,57.2348262 127.203957,57.7311084 C128.248916,58.1305551 129.14141,58.8362442 129.566263,59.4208888 C130.240605,60.4189002 130.356913,61.3103925 130.356913,63.1024555 L130.356913,67.0442677 L125.540097,67.0442677 L125.522018,64.5138337 C125.522018,63.3064154 125.63712,61.5700329 124.768129,60.6047034 C124.070284,59.8990144 123.006644,59.7458931 121.287343,59.7458931 L116.160776,59.7458931 L116.160776,67.0442677 L111.385541,67.0442677 L111.385541,46.9787308 L122.369665,46.9787308 C124.810313,46.9787308 126.608559,47.0434895 128.152495,47.9398236 C129.663286,48.8361577 130.569038,50.1446481 130.569038,52.3827598 L130.569038,52.3827598 Z M138.211582,67.0442677 L133.338722,67.0442677 L133.338722,46.9787308 L138.211582,46.9787308 L138.211582,67.0442677 L138.211582,67.0442677 Z M194.743027,67.0442677 L187.975501,67.0442677 L178.923407,51.9839184 L178.923407,67.0442677 L169.197573,67.0442677 L167.339065,62.5686495 L157.418582,62.5686495 L155.615515,67.0442677 L150.027334,67.0442677 C147.706006,67.0442677 144.766983,66.5286184 143.102521,64.8249179 C141.424199,63.1212174 140.550989,60.8135051 140.550989,57.1646204 C140.550989,54.1887429 141.072866,51.4682691 143.125421,49.3185198 C144.669357,47.7171019 147.087106,46.9787308 150.378064,46.9787308 L155.001436,46.9787308 L155.001436,51.2782293 L150.475088,51.2782293 C148.732284,51.2782293 147.74819,51.5384748 146.800254,52.4668857 C145.986102,53.3117759 145.427465,54.9089573 145.427465,57.0121044 C145.427465,59.1618537 145.852921,60.7118278 146.740594,61.7243645 C147.475802,62.518416 148.811831,62.7592945 150.068915,62.7592945 L152.213673,62.7592945 L158.944439,46.979336 L166.100059,46.979336 L174.185535,65.958499 L174.185535,46.979336 L181.45686,46.979336 L189.851485,60.9539167 L189.851485,46.979336 L194.743027,46.979336 L194.743027,67.0442677 L194.743027,67.0442677 Z M37.0006026,70.9854747 L45.1602027,70.9854747 L47.0000298,66.5286184 L51.1190007,66.5286184 L52.9540067,70.9854747 L69.0086526,70.9854747 L69.0086526,67.5780737 L70.4417049,71 L78.7760674,71 L80.2091198,67.527235 L80.2091198,70.9854747 L120.107997,70.9854747 L120.089316,63.6695487 L120.861284,63.6695487 C121.401842,63.6883106 121.559731,63.738544 121.559731,64.6348781 L121.559731,70.9854747 L142.195564,70.9854747 L142.195564,69.2823794 C143.860026,70.1781082 146.448922,70.9854747 149.855585,70.9854747 L158.537062,70.9854747 L160.394968,66.5286184 L164.513939,66.5286184 L166.330866,70.9854747 L183.060456,70.9854747 L183.060456,66.7519454 L185.59391,70.9854747 L199,70.9854747 L199,43 L185.732514,43 L185.732514,46.3051185 L183.874608,43 L170.260611,43 L170.260611,46.3051185 L168.554568,43 L150.165336,43 C147.087106,43 144.381301,43.4315234 142.195564,44.6340999 L142.195564,43 L129.505398,43 L129.505398,44.6340999 C128.114529,43.3946049 126.21926,43 124.111866,43 L77.7497898,43 L74.6390176,50.2281688 L71.44448,43 L56.841568,43 L56.841568,46.3051185 L55.237369,43 L42.7834329,43 L37,56.3058101 L37,70.9854747 L37.0006026,70.9854747 Z" id="AMERICAN" fill="#0072CE"></path>
        </g>
    </g>
</svg>