<?xml version="1.0" encoding="UTF-8"?>
<svg width="245px" height="147px" viewBox="0 0 245 147" version="1.1" xmlns="http://www.w3.org/2000/svg" xmlns:xlink="http://www.w3.org/1999/xlink">
    <!-- Generator: Sketch 63.1 (92452) - https://sketch.com -->
    <title>Cirrus-light</title>
    <desc>Created with Sketch.</desc>
    <g id="Page-1" stroke="none" stroke-width="1" fill="none" fill-rule="evenodd">
        <g id="Cirrus-light" transform="translate(0.000000, 1.000000)">
            <rect id="Rectangle" fill="#FFFFFF" x="0" y="-1" width="245" height="147"></rect>
            <path d="M140,72.4992335 C140,99.2862132 118.061331,121 90.9988385,121 C63.9378946,121 42,99.2862132 42,72.4992335 C42,45.7153197 63.9378946,24 90.9988385,24 C118.061331,24 140,45.7153197 140,72.4992335" id="Fill-374" fill="#333399"></path>
            <path d="M155.948472,24 C143.275335,24 131.726184,28.7543459 123.02033,36.5538339 C121.248308,38.1419372 119.59256,39.8603385 118.06859,41.6868106 L127.976721,41.6868106 C129.333256,43.3155362 130.580493,45.0278059 131.716882,46.8228531 L114.328429,46.8228531 C113.287386,48.4722731 112.340912,50.1853093 111.502961,51.9588957 L134.54235,51.9588957 C135.328365,53.622112 136.023686,55.3343816 136.619011,57.0918724 L109.423974,57.0918724 C108.85733,58.767352 108.382155,60.4796217 108,62.2286814 L138.04221,62.2286814 C138.764662,65.5397848 139.147593,68.9750545 139.147593,72.4992335 C139.147593,77.8851418 138.258481,83.0664054 136.619011,87.9065947 L109.423974,87.9065947 C110.020849,89.6648519 110.715395,91.379421 111.50141,93.0426373 L134.54235,93.0426373 C133.702074,94.8146907 132.757925,96.5292598 131.714556,98.1786798 L114.328429,98.1786798 C115.464043,99.9706612 116.713605,101.685997 118.06859,103.311656 L127.975171,103.311656 C126.453526,105.141194 124.796228,106.859596 123.02188,108.447699 C131.726959,116.247187 143.275335,121 155.948472,121 C183.038862,121 205,99.2862132 205,72.4992335 C205,45.7153197 183.038862,24 155.948472,24" id="Fill-375" fill="#0066CC"></path>
            <path d="M199,100.785875 C199,99.798875 199.806768,99 200.799375,99 C201.794623,99 202.598749,99.798875 202.598749,100.785875 C202.598749,101.77375 201.794623,102.57525 200.799375,102.57525 C199.806768,102.57525 199,101.77375 199,100.785875 L199,100.785875 Z M200.799375,102.1465 C201.556821,102.1465 202.168062,101.538375 202.168062,100.785875 C202.168062,100.036 201.556821,99.429625 200.799375,99.429625 C200.045452,99.429625 199.43333,100.036 199.43333,100.785875 C199.43333,101.538375 200.045452,102.1465 200.799375,102.1465 L200.799375,102.1465 Z M200.557168,101.57075 L200.189014,101.57075 L200.189014,100.001875 L200.856623,100.001875 C200.995782,100.001875 201.136702,100.001875 201.260007,100.080625 C201.387716,100.16725 201.459938,100.31775 201.459938,100.47175 C201.459938,100.651125 201.35689,100.817375 201.187786,100.880375 L201.476672,101.57075 L201.067123,101.57075 L200.827559,100.950375 L200.557168,100.950375 L200.557168,101.57075 L200.557168,101.57075 Z M200.557168,100.68175 L200.760622,100.68175 C200.836366,100.68175 200.918276,100.687 200.985213,100.651125 C201.045985,100.61175 201.077692,100.54 201.077692,100.47 C201.077692,100.4105 201.0407,100.34225 200.988736,100.309875 C200.923561,100.27225 200.821393,100.281875 200.753576,100.281875 L200.557168,100.281875 L200.557168,100.68175 L200.557168,100.68175 Z" id="Fill-376" fill="#0066CC"></path>
            <path d="M88,63.1946514 C87.5631049,65.056234 87.3342183,66.1107808 86.7418968,68.3773813 C83.062699,66.8638142 78.1292644,66.0740292 74.3441292,68.3668809 C70.7724153,70.5719787 69.5653477,74.0123813 69.8259382,77.8233003 C70.0888485,79.6571317 71.5077909,81.4482111 73.5059093,82.2252456 C76.9701392,83.4658006 80.2758498,83.0120305 83.9558208,81.1879496 C83.43232,83.4823013 83.0379545,85.2838813 82.5809546,86.924204 C78.1671544,88.1197571 73.9776013,88.5127745 69.5653477,87.0899614 C65.6240128,85.7601524 62.4180536,82.3174997 62.1574631,78.6025849 C61.263568,72.6368203 64.206617,66.5330495 70.1947859,63.7316753 C75.7630716,61.3015675 82.1154487,61.7238362 88,63.1946514" id="Fill-377" fill="#000066"></path>
            <path d="M150.386541,84.3276559 C149.235564,85.4786549 147.280816,88 141.967968,88 C137.129277,88 133.73294,84.4338902 135.452904,76.426575 C135.452904,76.4250464 137.453539,67 137.453539,67 L144.83738,67 C144.83738,67 142.832157,76.4357463 142.83598,76.426575 C142.153807,79.6334753 142.315173,82.0738072 145.574617,82.0738072 C149.41605,82.0738072 150.565497,79.7527023 151.291262,76.426575 C151.285909,76.4311606 153.296486,67 153.296486,67 L161,67 L157.685493,82.1532918 C157.308462,83.9309968 156.948256,85.8134076 156.740239,87.669833 L149.806846,87.669833 C149.806846,87.669833 150.244294,85.1454307 150.386541,84.3276559" id="Fill-378" fill="#000066"></path>
            <path d="M162.88794,73.8474359 C162.88794,76.4126068 164.650923,78.1655983 168.657558,79.4751068 C171.750606,80.507906 172.235974,80.8107906 172.235974,81.7089744 C172.235974,82.9885684 170.855023,83.5315171 167.873924,83.5315171 C165.604436,83.5315171 163.496999,83.3153846 161.057633,82.7529915 C161.057633,82.7529915 160.097856,86.9485043 160,87.4271368 C162.120746,87.7883547 165.793103,88 167.926375,88 C175.930252,88 179.641752,85.8626068 179.641752,81.2512821 C179.641752,78.4924145 178.085443,76.8680556 174.288611,75.6236111 C171.08753,74.6184829 170.732898,74.3866453 170.732898,73.4271368 C170.732898,72.3532051 171.997204,71.7833333 174.456925,71.7833333 C175.937297,71.7833333 178.010289,71.9029915 179.936887,72.0959402 L181,67.4030983 C179.033476,67.1794872 176.037502,67 174.308966,67 C165.81424,67 162.861323,70.1238248 162.88794,73.8474359" id="Fill-379" fill="#000066"></path>
            <polyline id="Fill-380" fill="#000066" points="90.3563458 67 98 67 93.6451674 88 86 88 90.3563458 67"></polyline>
            <path d="M135,67.1213754 C129.426755,66.39795 127.8363,69.0886926 126.339722,70.426376 C126.518091,69.3439287 126.847448,68.2883889 126.781733,67.2097855 L119.521807,67.2097855 C118.523567,73.648348 116.750831,80.1637889 115.363779,86.6023514 L115,88 L123.219049,88 C124.157833,83.7778405 125.247604,77.4038558 126.504792,75.474209 C127.760415,73.5476374 129.84999,72.0077638 132.593585,72.9341481 L135,67.1213754" id="Fill-381" fill="#000066"></path>
            <path d="M118,67.1213754 C112.427102,66.39795 110.837304,69.0886926 109.339827,70.426376 C109.518992,69.3439287 109.84681,68.2883889 109.781872,67.2097855 L102.522161,67.2097855 C101.523843,73.648348 99.7501858,80.1637889 98.3638071,86.6023514 L98,88 L106.21891,88 C107.158549,83.7778405 108.248406,77.4038558 109.504909,75.474209 C110.761413,73.5476374 112.85037,72.0077638 115.594179,72.9341481 L118,67.1213754" id="Fill-382" fill="#000066"></path>
            <path d="M181,84.789375 C181,83.8015 181.805887,83 182.800255,83 C183.793743,83 184.600511,83.8015 184.600511,84.789375 C184.600511,85.77725 183.793743,86.5769999 182.800255,86.5769999 C181.805887,86.5769999 181,85.77725 181,84.789375 L181,84.789375 Z M182.800255,86.1482499 C183.555059,86.1482499 184.168943,85.53925 184.168943,84.789375 C184.168943,84.038625 183.555059,83.4305 182.800255,83.4305 C182.045452,83.4305 181.430687,84.038625 181.430687,84.789375 C181.430687,85.53925 182.045452,86.1482499 182.800255,86.1482499 L182.800255,86.1482499 Z M182.557168,85.573375 L182.188133,85.573375 L182.188133,84.001 L182.855743,84.001 C182.994021,84.001 183.137583,84.0045 183.259127,84.08325 C183.389478,84.169 183.460819,84.32125 183.460819,84.474375 C183.460819,84.652875 183.35689,84.81825 183.186905,84.88125 L183.477553,85.573375 L183.069765,85.573375 L182.828439,84.95125 L182.557168,84.95125 L182.557168,85.573375 L182.557168,85.573375 Z M182.557168,84.68175 L182.761502,84.68175 C182.837247,84.68175 182.920918,84.68875 182.986094,84.652875 C183.046866,84.61525 183.077692,84.54175 183.077692,84.4735 C183.077692,84.413125 183.03982,84.343125 182.990498,84.31075 C182.926203,84.274875 182.821393,84.283625 182.751814,84.283625 L182.557168,84.283625 L182.557168,84.68175 L182.557168,84.68175 Z" id="Fill-383" fill="#FFFFFF"></path>
            <path d="M90,62.1942411 C89.5630924,64.0580055 89.3334259,65.1125137 88.7426341,67.3767813 C85.0625576,65.8655195 80.1289816,65.0757634 76.343738,67.3670312 C72.7726951,69.5712983 71.5663662,73.012325 71.8254176,76.8223546 C72.089882,78.6576188 73.5073185,80.4478827 75.5062674,81.2256387 C78.9698233,82.4653983 82.2756285,82.0108948 85.9564783,80.1868807 C85.4329624,82.4826485 85.0378124,84.2841624 84.5807993,85.9251752 C80.1684193,87.1191844 75.9771996,87.5129375 71.5663662,86.0901765 C67.6233718,84.7604161 64.4188673,81.3178894 64.1574961,77.6016106 C63.2635754,71.6368143 66.2059354,65.532517 72.1950491,62.7319952 C77.7627211,60.3019764 84.1145068,60.7234796 90,62.1942411" id="Fill-384" fill="#FFFFFF"></path>
            <path d="M152.266092,83.3295479 C151.10128,84.4806726 149.123574,87 143.751205,87 C138.857601,87 135.748341,83.4350295 137.487052,75.4260756 L139.512712,66 L146.981123,66 C146.981123,66 144.951596,75.4344835 144.953917,75.4260756 C144.264775,78.6340904 144.428746,81.0746888 147.725954,81.0746888 C151.607888,81.0746888 152.7727,78.7533304 153.505155,75.4260756 C153.500515,75.4321904 155.533909,66 155.533909,66 L163,66 L159.64633,81.1541821 C159.265794,82.9305525 158.903047,84.8131688 158.691896,86.67209 L151.680592,86.67209 C151.680592,86.67209 152.123004,84.1458834 152.266092,83.3295479" id="Fill-385" fill="#FFFFFF"></path>
            <path d="M164.888723,70.8489316 C164.888723,73.4141026 166.651705,75.167094 170.659124,76.4758547 C173.752954,77.5086538 174.23754,77.8122863 174.23754,78.7089744 C174.23754,79.9900641 172.855023,80.5337607 169.875489,80.5337607 C167.606002,80.5337607 165.498565,80.3161325 163.058416,79.755235 C163.058416,79.755235 162.098639,83.9485043 162,84.4293803 C164.122311,84.7898504 167.793886,85 169.92794,85 C177.931034,85 181.643318,82.8648504 181.643318,78.2520299 C181.643318,75.4924145 180.087791,73.8702991 176.289394,72.6258547 C173.08753,71.6207265 172.732898,71.3866453 172.732898,70.4286325 C172.732898,69.3547009 173.99877,68.7855769 176.459273,68.7855769 C177.93808,68.7855769 180.011855,68.905235 181.939236,69.096688 L183,64.4030983 C181.034259,64.1794872 178.038285,64 176.310531,64 C167.815806,64 164.861323,67.1245726 164.888723,70.8489316" id="Fill-386" fill="#FFFFFF"></path>
            <polyline id="Fill-387" fill="#FFFFFF" points="93.4725083 66 101 66 96.5251603 87 89 87 93.4725083 66"></polyline>
            <path d="M138,64.1216193 C132.334009,63.3973803 130.717655,66.0882896 129.194368,67.4260559 C129.376526,66.3435415 129.710615,65.2863986 129.643797,64.2100349 L122.596906,64.2100349 C121.582707,70.6474587 119.778626,77.1625345 118.369884,83.6030337 L118,85 L126.021318,85 C126.977449,80.7775789 128.084715,74.4031992 129.363004,72.4749705 C130.639701,70.5467418 132.764348,69.0075417 135.5524,69.9339833 L138,64.1216193" id="Fill-388" fill="#FFFFFF"></path>
            <path d="M121,64.1216193 C115.333439,63.3973803 113.717149,66.0882896 112.193923,67.4260559 C112.376074,66.3435415 112.710945,65.2863986 112.643334,64.2100349 L105.596723,64.2100349 C104.582564,70.6474587 102.780146,77.1625345 101.369074,83.6030337 L101,85 L109.020204,85 C109.977092,80.7775789 111.083519,74.4031992 112.363347,72.4749705 C113.639198,70.5467418 115.763761,69.0075417 118.552498,69.9339833 L121,64.1216193" id="Fill-389" fill="#FFFFFF"></path>
        </g>
    </g>
</svg>