<?xml version="1.0" encoding="UTF-8"?>
<svg width="245px" height="147px" viewBox="0 0 245 147" version="1.1" xmlns="http://www.w3.org/2000/svg" xmlns:xlink="http://www.w3.org/1999/xlink">
    <!-- Generator: Sketch 63.1 (92452) - https://sketch.com -->
    <title>Maestro-light</title>
    <desc>Created with Sketch.</desc>
    <g id="Page-1" stroke="none" stroke-width="1" fill="none" fill-rule="evenodd">
        <g id="Maestro-light" transform="translate(0.000000, 1.000000)">
            <rect id="Rectangle" fill="#FFFFFF" x="0" y="-1" width="245" height="147"></rect>
            <path d="M205,74.0007744 C205,101.063908 183.064406,123 155.998838,123 C128.938692,123 107,101.063908 107,74.0007744 C107,46.9368659 128.938692,25 155.998838,25 C183.064406,25 205,46.9368659 205,74.0007744" id="Fill-356" fill="#CC0000"></path>
            <path d="M117.952095,105.117687 C116.599137,103.476817 115.353053,101.743023 114.220038,99.9279212 L131.586224,99.9279212 C132.628629,98.2645943 133.569582,96.531575 134.409856,94.7389298 L111.397955,94.7389298 C110.613441,93.0601157 109.916439,91.328645 109.323213,89.5514871 L136.480726,89.5514871 C138.116357,84.6652707 139,79.4383356 139,74.0007744 C139,70.4402636 138.620521,66.96803 137.900286,63.6243402 L107.907525,63.6243402 C108.287004,61.8564746 108.765611,60.1265527 109.329408,58.4353488 L136.477628,58.4353488 C135.882079,56.6581908 135.188949,54.9274945 134.405209,53.2486804 L111.402602,53.2486804 C112.242876,51.4560353 113.186152,49.7261133 114.225459,48.0589146 L131.580803,48.0589146 C130.448563,46.2484592 129.19938,44.5177629 127.848746,42.8745694 L117.958291,42.8745694 C119.480078,41.027719 121.133521,39.2939252 122.903905,37.6886754 C114.206872,29.8033598 102.663748,25 90.0023233,25 C62.9385184,25 41,46.9368659 41,74.0007744 C41,101.063908 62.9385184,123 90.0023233,123 C102.664522,123 114.208421,118.19664 122.903905,110.314422 C124.676613,108.706075 126.33238,106.968409 127.854167,105.117687 L117.952095,105.117687" id="Fill-357" fill="#0066CC"></path>
            <path d="M122.724201,87.1840512 C120.620352,87.7351621 118.585749,88.0045599 116.435217,87.9999416 C109.573587,87.993784 106,84.9018672 106,78.9889708 C106,72.0808421 110.549263,67 116.724652,67 C121.775758,67 125,69.8486891 125,74.3122254 C125,75.7931435 124.782146,77.2363458 124.247625,79.2760719 L112.045455,79.2760719 C111.611302,82.1640161 113.742383,83.431725 117.370434,83.431725 C119.54353,83.431725 121.508108,83.0453316 123.685094,82.1794102 L122.724201,87.1840512 L122.724201,87.1840512 Z M119.443161,75.2020078 C119.443161,74.7663531 120.121622,71.6659695 116.590049,71.5990049 C114.640254,71.5990049 113.242097,72.8813383 112.676454,75.2020078 L119.443161,75.2020078 L119.443161,75.2020078 Z" id="Fill-359" fill="#000066"></path>
            <path d="M127.327527,73.8452656 C127.327527,76.3972286 128.759025,78.160893 132.014034,79.4734411 C134.501895,80.495766 134.893141,80.7921478 134.893141,81.7059276 C134.893141,82.9722864 133.794585,83.5527329 131.35352,83.5373364 C129.520803,83.5242494 127.847653,83.3002309 125.873782,82.7513472 L125,87.4064665 C126.755235,87.8152425 129.215478,87.9491917 131.39648,88 C137.893457,88 140.893005,85.865281 140.893005,81.2509623 C140.893005,78.4765204 139.641787,76.8452656 136.556318,75.6289453 C133.977166,74.5943033 133.67491,74.3718245 133.67491,73.43495 C133.67491,72.3356428 134.696751,71.7798306 136.689034,71.7798306 C137.897292,71.7798306 139.550496,71.8906851 141.120081,72.0816012 L142,67.4010778 C140.401264,67.1785989 137.976309,67 136.571661,67 C129.688809,67 127.306814,70.1093149 127.327527,73.8452656" id="Fill-360" fill="#000066"></path>
            <path d="M103.598315,87.6682306 L98.3257928,87.6682306 L98.4516153,85.5467542 C96.8439729,87.2202265 94.7017853,88 91.7958474,88 C88.3561659,88 86,85.7407353 86,82.4915509 C86,77.552729 90.0960421,74.7038232 97.1388943,74.7038232 C97.8625738,74.7038232 98.7834019,74.7561673 99.7290739,74.8585462 C99.9246197,74.1973168 99.9775132,73.9125032 99.9775132,73.553792 C99.9775132,72.202082 98.8691535,71.7040431 95.9055136,71.7040431 C92.9835474,71.7148198 91.0120617,72.1312635 89.1824267,72.6031304 L90.0832194,68.0722847 C93.2472136,67.2994392 95.318075,67 97.6622196,67 C103.115862,67 105.996155,69.0552766 105.996155,72.9148858 C106.041835,73.9456032 105.669176,76.013196 105.480843,76.9184414 C105.267667,78.2339724 103.756194,85.866977 103.598315,87.6682306 L103.598315,87.6682306 Z M98.9701321,78.6573439 C98.3025517,78.5942231 98.0116374,78.5749789 97.5540283,78.5749789 C93.9580704,78.5749789 92.1348468,79.603387 92.1348468,81.6332612 C92.1348468,82.9079946 93.0244196,83.7047029 94.4116724,83.7047029 C96.9954407,83.7047029 98.8611393,81.6286426 98.9701321,78.6573439 L98.9701321,78.6573439 Z" id="Fill-361" fill="#000066"></path>
            <path d="M151.23356,86.3559595 C149.559422,86.8042845 148.25378,87 146.842632,87 C143.716229,87 142.008731,85.4373104 142.008731,82.6548125 C141.910207,81.8901566 142.674353,78.3581745 142.848128,77.3742869 C143.020352,76.387365 145.728608,62 145.728608,62 L151.802984,62 L150.884458,66.7608933 L154,66.7608933 L153.153621,71.6181272 L150.024115,71.6181272 C150.024115,71.6181272 148.307309,80.0513412 148.307309,80.6961403 C148.307309,81.7179573 148.940347,82.1624894 150.394939,82.1624894 C151.09004,82.1624894 151.627657,82.0987681 152.042701,81.9773941 L151.23356,86.3559595" id="Fill-362" fill="#000066"></path>
            <path d="M178.601257,67.0331444 C174.25411,67.0331444 170.857595,68.8506357 168.884374,71.8815809 L170.597024,67.3843468 C167.441385,66.2093175 165.406808,67.8869427 163.568418,70.2708149 C163.568418,70.2708149 163.260126,70.6665899 162.952591,71.0285512 L162.952591,67.4942416 L157.383639,67.4942416 C156.629194,73.7321174 155.295281,80.0583702 154.252239,86.310079 L154,87.669547 L159.990866,87.669547 C160.559729,84.4971987 161.026333,81.9227397 161.491423,79.8693204 C162.76398,74.2362503 164.906118,72.514821 168.121597,73.2771682 C167.379272,74.8948507 166.972508,76.7699791 166.972508,78.8441477 C166.972508,83.880097 169.666087,88 176.358375,88 C183.110502,88 188,84.3404257 188,75.9953359 C188,70.9624606 184.741345,67.0331444 178.601257,67.0331444 L178.601257,67.0331444 Z M176.85755,83.1054538 C174.741924,83.1384991 173.458762,81.3371463 173.458762,78.641265 C173.458762,75.4473988 175.330482,71.8377767 178.338413,71.8377767 C180.765361,71.8377767 181.596311,73.7905231 181.596311,75.8708397 C181.596311,80.4141835 179.76095,83.1054538 176.85755,83.1054538 L176.85755,83.1054538 Z" id="Fill-363" fill="#000066"></path>
            <polyline id="Fill-364" fill="#000066" points="83.0967296 87 76.8752314 87 80.57243 67.7805 72.0604221 87 66.389436 87 65.3531778 67.8934917 61.6441318 87 56 87 60.806911 62 70.5289399 62 71.3385166 75.9369428 77.4976182 62 88 62 83.0967296 87"></polyline>
            <path d="M123.722645,84.1832815 C121.620352,84.7351621 119.584971,85.0045599 117.435217,84.9999416 C110.573587,84.993784 107,81.9010975 107,75.9889708 C107,69.0808421 111.548485,64 117.723096,64 C122.77498,64 126,66.8486891 126,71.3114557 C126,72.7923738 125.781368,74.2324973 125.247625,76.2760719 L113.046233,76.2760719 C112.611302,79.1609372 114.740827,80.4309553 118.368878,80.4309553 C120.541974,80.4309553 122.508108,80.0445619 124.684316,79.1771011 L123.722645,84.1832815 L123.722645,84.1832815 Z M120.441605,72.2020078 C120.441605,71.7655834 121.120066,68.6659695 117.590049,68.5982352 C115.640254,68.5982352 114.242097,69.8805686 113.674898,72.2020078 L120.441605,72.2020078 L120.441605,72.2020078 Z" id="Fill-366" fill="#FFFFFF"></path>
            <path d="M128.328956,70.8442449 C128.328956,73.3968842 129.759623,75.1589443 133.013718,76.4729839 C135.503001,77.4960411 135.893461,77.7916422 135.893461,78.7030792 C135.893461,79.9717009 134.794188,80.5521261 132.355534,80.5375 C130.520599,80.5236437 128.847525,80.2996334 126.875276,79.7507698 L126,84.4041789 C127.755923,84.8144795 130.217589,84.9484238 132.396192,85 C138.892875,85 141.893822,82.8645894 141.893822,78.2489003 C141.893822,75.4760997 140.641893,73.8433651 137.556563,72.628629 C134.977528,71.5947947 134.674518,71.3692449 134.674518,70.4354839 C134.674518,69.336217 135.697848,68.7781158 137.689274,68.7781158 C138.897478,68.7781158 140.54984,68.8912757 142.120121,69.0821848 L143,64.4018328 C141.401336,64.176283 138.97649,64 137.57344,64 C130.689364,64 128.307477,67.1076613 128.328956,70.8442449" id="Fill-367" fill="#FFFFFF"></path>
            <path d="M104.599002,84.6704916 L99.3251516,84.6704916 L99.4525703,82.548704 C97.8442101,84.2208821 95.7037368,85 92.7971487,85 C89.3584474,85 87,82.7411739 87,79.491513 C87,74.5535066 91.0966304,71.704183 98.1391162,71.704183 C98.8627581,71.704183 99.7827369,71.7573047 100.729962,71.8558493 C100.925498,71.1960626 100.977587,70.9135169 100.977587,70.5539832 C100.977587,69.1989955 99.8700868,68.7031932 96.9074024,68.7031932 C93.9847868,68.7147414 92.0134037,69.1312461 90.1846653,69.603952 L91.083007,65.0716721 C94.2476379,64.2987132 96.3175902,64 98.6632156,64 C104.116574,64 106.995916,66.0532683 106.995916,69.9149833 C107.043197,70.9466217 106.668153,73.0106683 106.482234,73.919126 C106.266664,75.2348499 104.756072,82.8689739 104.599002,84.6704916 L104.599002,84.6704916 Z M99.9702587,75.6590534 C99.3035145,75.5928438 99.0118139,75.5759064 98.5534272,75.5759064 C94.9592591,75.5759064 93.135329,76.6029255 93.135329,78.6315577 C93.135329,79.9087876 94.0264583,80.7071525 95.4112348,80.7071525 C97.9964714,80.7071525 99.862073,78.6284782 99.9702587,75.6590534 L99.9702587,75.6590534 Z" id="Fill-368" fill="#FFFFFF"></path>
            <path d="M152.232815,84.3552204 C150.557919,84.8042904 149.253067,85 147.841159,85 C144.71479,85 143.008864,83.4365992 143.008864,80.6541858 C142.909565,79.8895531 143.673702,76.3576782 143.846699,75.3738204 C144.020473,74.3869284 146.728699,60 146.728699,60 L152.802233,60 L151.884492,64.7592317 L155,64.7592317 L154.152855,69.6178354 L151.024159,69.6178354 C151.024159,69.6178354 149.30582,78.0507935 149.30582,78.6925388 C149.30582,79.7181175 149.939627,80.1596019 151.394203,80.1596019 C152.089297,80.1596019 152.626132,80.0989168 153.043498,79.9760294 L152.232815,84.3552204" id="Fill-369" fill="#FFFFFF"></path>
            <path d="M182.606196,72.8478173 C182.606196,77.4021918 180.770965,80.0977165 177.871362,80.0977165 C175.758501,80.1285049 174.477774,78.3266136 174.477774,75.6264707 C174.477774,72.4275556 176.347046,68.8114577 179.350288,68.8114577 C181.77482,68.8114577 182.606196,70.767291 182.606196,72.8478173 L182.606196,72.8478173 Z M189,72.9755892 C189,67.9355276 185.744849,64 179.614301,64 C172.561599,64 168,68.7829784 168,75.8296742 C168,80.8728146 170.690058,85 177.374352,85 C184.117651,85 189,81.3346406 189,72.9755892 L189,72.9755892 Z" id="Fill-370" fill="#FFFFFF"></path>
            <path d="M158.474539,64.2278303 C157.700258,70.6510953 156.329118,77.1629679 155.258353,83.5981001 L155,85 L161.153786,85 C163.371577,72.5704007 164.116288,69.0300496 168.764311,70.2760949 L171,64.3955519 C167.757356,63.185899 165.671076,64.9137486 163.782452,67.3694469 C163.952872,66.2642244 164.273479,65.1969767 164.19644,64.2278303 L158.474539,64.2278303" id="Fill-371" fill="#FFFFFF"></path>
            <polyline id="Fill-372" fill="#FFFFFF" points="85.0967296 85 78.8768111 85 82.5732198 65.781099 74.0604221 85 68.389436 85 67.352388 65.893308 63.643342 85 58 85 62.8061212 60 72.5289399 60 73.04233 75.4770439 79.886215 60 90 60 85.0967296 85"></polyline>
        </g>
    </g>
</svg>