<svg width="245" height="147" viewBox="0 0 245 147" fill="none" xmlns="http://www.w3.org/2000/svg">
<path d="M245 0H0V147H245V0Z" fill="white"/>
<path fill-rule="evenodd" clip-rule="evenodd" d="M205 75.0008C205 102.064 183.064 124 155.999 124C128.939 124 107 102.064 107 75.0008C107 47.9369 128.939 26 155.999 26C183.064 26 205 47.9369 205 75.0008Z" fill="#CC0000"/>
<path fill-rule="evenodd" clip-rule="evenodd" d="M117.952 106.118C116.599 104.477 115.353 102.743 114.22 100.928H131.586C132.629 99.2646 133.57 97.5316 134.41 95.7389H111.398C110.613 94.0601 109.916 92.3286 109.323 90.5515H136.481C138.116 85.6653 139 80.4383 139 75.0008C139 71.4403 138.621 67.968 137.9 64.6243H107.908C108.287 62.8565 108.766 61.1266 109.329 59.4353H136.478C135.882 57.6582 135.189 55.9275 134.405 54.2487H111.403C112.243 52.456 113.186 50.7261 114.225 49.0589H131.581C130.449 47.2485 129.199 45.5178 127.849 43.8746H117.958C119.48 42.0277 121.134 40.2939 122.904 38.6887C114.207 30.8034 102.664 26 90.0023 26C62.9385 26 41 47.9369 41 75.0008C41 102.064 62.9385 124 90.0023 124C102.665 124 114.208 119.197 122.904 111.314C124.677 109.706 126.332 107.968 127.854 106.118H117.952Z" fill="#0066CC"/>
</svg>
