<?xml version="1.0" encoding="UTF-8"?>
<svg width="245px" height="147px" viewBox="0 0 245 147" version="1.1" xmlns="http://www.w3.org/2000/svg" xmlns:xlink="http://www.w3.org/1999/xlink">
    <!-- Generator: Sketch 63.1 (92452) - https://sketch.com -->
    <title>MasterCard-light</title>
    <desc>Created with Sketch.</desc>
    <g id="Page-1" stroke="none" stroke-width="1" fill="none" fill-rule="evenodd">
        <g id="MasterCard-light" transform="translate(0.000000, 1.000000)">
            <rect id="Rectangle" fill="#FFFFFF" x="0" y="-1" width="245" height="147"></rect>
            <path d="M138,74.5007507 C138,100.735421 116.734839,122 90.501126,122 C64.2666625,122 43,100.735421 43,74.5007507 C43,48.2668305 64.2666625,27 90.501126,27 C116.734839,27 138,48.2668305 138,74.5007507" id="Fill-333" fill="#CC0000"></path>
            <path d="M153.467032,27 C141.182091,27 129.992384,31.6563182 121.555033,39.2949919 C119.838566,40.8518521 118.236281,42.5333212 116.75719,44.3236354 L126.361138,44.3236354 C127.672713,45.9195297 128.881376,47.5972455 129.984872,49.3545308 L113.132705,49.3545308 C112.124609,50.9691915 111.208159,52.6469073 110.393871,54.3854262 L132.722204,54.3854262 C133.485412,56.0135987 134.156974,57.6905639 134.73539,59.4140697 L108.380685,59.4140697 C107.832317,61.0520007 107.369585,62.7304671 107,64.4419625 L136.114572,64.4419625 C136.811675,67.6847957 137.182763,71.0492351 137.182763,74.5007507 C137.182763,79.7741079 136.322652,84.8500427 134.73539,89.5904343 L108.380685,89.5904343 C108.9591,91.3124388 109.630663,92.9916559 110.392368,94.6220803 L132.722204,94.6220803 C131.906413,96.3560953 130.99447,98.0353124 129.980365,99.6522251 L113.132705,99.6522251 C114.231694,101.404256 115.44261,103.084224 116.75719,104.677866 L126.358133,104.677866 C124.882047,106.469681 123.278259,108.15115 121.556535,109.708011 C129.993135,117.346684 141.182091,122 153.467032,122 C179.718824,122 201,100.735421 201,74.5007507 C201,48.2690825 179.718824,27 153.467032,27" id="Fill-334" fill="#FF9900"></path>
            <path d="M77.3793758,79.0955522 C76.8463988,79.0351181 76.6113271,79.0159561 76.2454137,79.0159561 C73.3668944,79.0159561 71.9113719,80.0005896 71.9113719,81.9455356 C71.9113719,83.1431625 72.6217615,83.9044847 73.7305902,83.9044847 C75.7996645,83.9044847 77.2906695,81.9411136 77.3793758,79.0955522 L77.3793758,79.0955522 Z M81.0732538,87.6676125 L76.8641401,87.6676125 L76.9609778,85.6740244 C75.6776934,87.2482588 73.9649227,88 71.6386,88 C68.8872264,88 67,85.8582747 67,82.7459189 C67,78.0608026 70.2813937,75.3287394 75.9149827,75.3287394 C76.4923129,75.3287394 77.2300536,75.3818034 77.9855355,75.4768766 C78.14225,74.8415816 78.1836462,74.5718392 78.1836462,74.2291337 C78.1836462,72.9555957 77.2995402,72.4780189 74.927386,72.4780189 C72.4428705,72.4529609 70.393755,73.0698309 69.5517844,73.3454693 C69.6050082,73.0256108 70.2562603,69.0185356 70.2562603,69.0185356 C72.7858681,68.2771124 74.4550249,68 76.3333807,68 C80.6947736,68 83.0048334,69.951579 82.9996589,73.6410067 C83.0085295,74.6307993 82.8436836,75.8475882 82.588653,77.4527767 C82.1480784,80.238641 81.2018779,86.2135092 81.0732538,87.6676125 L81.0732538,87.6676125 Z" id="Fill-336" fill="#000066"></path>
            <polyline id="Fill-337" fill="#000066" points="65.9579745 88 60.7306534 88 63.726606 69.5519207 57.0401083 88 53.478896 88 53.0384042 69.655108 49.891817 88 45 88 49.0861508 64 56.6018989 64 57.0560847 77.4337789 61.6413073 64 70 64 65.9579745 88"></polyline>
            <path d="M160.377376,79.0955522 C159.84435,79.0351181 159.612214,79.0159561 159.247006,79.0159561 C156.366003,79.0159561 154.911825,80.0005896 154.911825,81.9455356 C154.911825,83.1431625 155.619323,83.9044847 156.731211,83.9044847 C158.798998,83.9044847 160.290879,81.9411136 160.377376,79.0955522 L160.377376,79.0955522 Z M164.073813,87.6676125 L159.865789,87.6676125 L159.961157,85.6740244 C158.677754,87.2482588 156.965565,88 154.640506,88 C151.885183,88 150,85.8582747 150,82.7459189 C150,78.0608026 153.283175,75.3287394 158.915805,75.3287394 C159.492449,75.3287394 160.228779,75.3818034 160.98507,75.4768766 C161.142538,74.8415816 161.183199,74.5718392 161.183199,74.2291337 C161.183199,72.9555957 160.299012,72.4780189 157.926639,72.4780189 C155.441894,72.4529609 153.393329,73.0698309 152.548323,73.3454693 C152.604509,73.0256108 153.2573,69.0185356 153.2573,69.0185356 C155.785662,68.2771124 157.456452,68 159.332024,68 C163.696776,68 166.004092,69.951579 165.999656,73.6410067 C166.008527,74.6307993 165.845145,75.8475882 165.588612,77.4527767 C165.149476,80.238641 164.20097,86.2135092 164.073813,87.6676125 L164.073813,87.6676125 Z" id="Fill-338" fill="#000066"></path>
            <path d="M106.099802,89.3606294 C104.63017,89.8069825 103.48556,90 102.243288,90 C99.5001312,90 98.0023725,88.4784789 98.0023725,85.6759548 C97.9640886,84.8058679 98.3969307,82.5175545 98.737579,80.4305524 C99.0485378,78.5916079 101.065863,67 101.065863,67 L106.399822,67 L105.777123,69.9789543 L109,69.9789543 L108.272606,74.7093919 L105.038791,74.7093919 C104.419218,78.4513686 103.535564,83.1139485 103.525407,83.7322078 C103.525407,84.7470579 104.086383,85.190395 105.363814,85.190395 C105.975574,85.190395 106.449044,85.130077 106.810788,85.0049172 L106.099802,89.3606294" id="Fill-339" fill="#000066"></path>
            <path d="M121.079516,87.2194208 C119.307111,87.747848 117.598923,88.0057972 115.786477,87.9999012 C110.010671,87.9925312 107,85.0519112 107,79.4175653 C107,72.8420736 110.829635,68 116.029748,68 C120.282463,68 123,70.7106768 123,74.9602044 C123,76.3730286 122.814147,77.7497399 122.363113,79.6924654 L112.08981,79.6924654 C111.743035,82.4834749 113.572859,83.64572 116.575975,83.64572 C118.420153,83.64572 120.086788,83.2742732 121.938521,82.4363071 L121.079516,87.2194208 L121.079516,87.2194208 Z M118.179904,75.8151215 C118.209368,75.4134579 118.726131,72.3807131 115.777411,72.3807131 C114.136462,72.3807131 112.960147,73.602655 112.483426,75.8151215 L118.179904,75.8151215 L118.179904,75.8151215 Z" id="Fill-340" fill="#000066"></path>
            <path d="M85.0569937,74.5121421 C85.0569937,76.9435089 86.3223493,78.6216605 89.1931249,79.8826694 C91.3924711,80.8474039 91.734908,81.1326234 91.734908,82.0059697 C91.734908,83.2035966 90.7637476,83.7475034 88.6150156,83.7475034 C86.9929878,83.7475034 85.4856329,83.510189 83.7465598,82.9861812 C83.7465598,82.9861812 83.0340064,87.2283598 83,87.4310351 C84.2345126,87.6801415 85.335372,87.9122969 88.6537671,88 C94.385828,88 97.0335846,85.9658768 97.0335846,81.569665 C97.0335846,78.9267789 95.9263985,77.3753915 93.2043022,76.2079817 C90.9274529,75.2344032 90.6641008,75.0162509 90.6641008,74.1185835 C90.6641008,73.0786749 91.5680392,72.547297 93.3229293,72.547297 C94.3897823,72.547297 95.8457321,72.6534252 97.2273422,72.8354645 L98,68.3736596 C96.5938736,68.1650883 94.4601677,68 93.2185375,68 C87.1416671,68 85.0372225,70.9575856 85.0569937,74.5121421" id="Fill-341" fill="#000066"></path>
            <path d="M146.482267,69.0090703 C147.931584,69.0090703 149.28519,69.3839758 151.14545,70.318972 L152,65.0536659 C151.232804,64.7543462 148.543061,63 146.264262,63 C142.773142,63 139.818298,64.7263794 137.743832,67.569161 C134.714548,66.5714286 133.468044,68.5880574 131.942768,70.5986395 L130.586882,70.9130763 C130.689428,70.2517007 130.782859,69.5948602 130.753235,68.9289494 L125.958641,68.9289494 C125.305385,75.037037 124.145476,81.2214664 123.237755,87.3318216 L123,88.6591081 L128.220729,88.6591081 C129.09199,83.0249433 129.568259,79.4187453 129.858426,76.9758125 L131.824271,75.8919123 C132.119755,74.8027211 133.036592,74.4368859 134.8809,74.4814815 C134.640107,75.7679516 134.509456,77.1232048 134.509456,78.5253212 C134.509456,84.9811036 138.014249,89 143.629211,89 C145.076248,89 146.318953,88.8110355 148.24302,88.2894936 L149.157578,82.7611489 C147.427209,83.6069539 146.010556,84.005291 144.726073,84.005291 C141.692231,84.005291 139.856278,81.7762661 139.856278,78.0944822 C139.856278,72.7513228 142.584761,69.0090703 146.482267,69.0090703" id="Fill-342" fill="#000066"></path>
            <path d="M190.00028,64 L188.873572,71.1225575 C187.49009,69.2245914 186.001094,67.8496989 184.035443,67.8496989 C181.47803,67.8496989 179.15009,69.8682561 177.625677,72.840789 C175.502862,72.3822355 173.309213,71.6026177 173.309213,71.6026177 L173.307737,71.6218201 C173.476707,69.9604277 173.548279,68.9496129 173.531308,68.6039695 L168.874691,68.6039695 C168.242348,74.8109561 167.114164,81.0955205 166.233163,87.3048114 L166,88.6535885 L171.072768,88.6535885 C171.757499,84.0265761 172.28064,80.1799496 172.666539,77.1336795 C174.400504,75.5022428 175.268224,74.0835689 177.016207,74.1757404 C176.24072,76.1282414 175.788413,78.3756913 175.788413,80.6815165 C175.788413,85.691809 178.221866,89 181.9082,89 C183.766125,89 185.191665,88.3325243 186.581788,86.7871144 L186.342722,88.6520524 L191.138793,88.6520524 L195,64 L190.00028,64 L190.00028,64 Z M183.661349,84.0219676 C181.936239,84.0219676 181.062616,82.6900885 181.062616,80.0693437 C181.062616,76.1282414 182.695494,73.3346749 184.993919,73.3346749 C186.736,73.3346749 187.680457,74.714176 187.680457,77.2611835 C187.680457,81.2360821 186.020278,84.0219676 183.661349,84.0219676 L183.661349,84.0219676 Z" id="Fill-343" fill="#000066"></path>
            <polyline id="Fill-344" fill="#FFFFFF" points="66.9572137 87 61.7314141 87 64.726606 68.5501963 58.0416299 87 54.478896 87 54.039165 68.6571322 50.891817 87 46 87 50.0861508 63 57.6018989 63 57.8118743 77.8573565 62.8832354 63 71 63 66.9572137 87"></polyline>
            <path d="M80.3786696,78.0976823 C79.8464302,78.0357788 79.6113577,78.018829 79.2454431,78.018829 C76.3669146,78.018829 74.9106483,79.0019161 74.9106483,80.9452449 C74.9106483,82.1413096 75.6217794,82.9069973 76.7313508,82.9069973 C78.7996925,82.9069973 80.2907023,80.943771 80.3786696,78.0976823 L80.3786696,78.0976823 Z M84.0718202,86.6661631 L79.8649107,86.6661631 L79.9610095,84.6741958 C78.677721,86.2475773 76.9649448,87 74.6386148,87 C71.8864932,87 70,84.8554847 70,81.7440952 C70,77.0585873 73.2821434,74.3304101 78.9157503,74.3304101 C79.4916038,74.3304101 80.2293469,74.3827333 80.9855705,74.4800103 C81.1422854,73.8432883 81.1836818,73.5728288 81.1836818,73.2286746 C81.1836818,71.9559674 80.2995729,71.4821106 77.9274112,71.4821106 C75.4421486,71.4526327 73.3937658,72.0694572 72.5510533,72.3443384 C72.6050165,72.0259774 73.2555314,68.0191975 73.2555314,68.0191975 C75.7858865,67.2793028 77.4550487,67 79.3334104,67 C83.694078,67 86.0034059,68.953646 85.9997098,72.641328 C86.0078412,73.6295737 85.8444733,74.8521685 85.5887026,76.452817 C85.1473874,79.2362652 84.2011839,85.2143778 84.0718202,86.6661631 L84.0718202,86.6661631 Z" id="Fill-345" fill="#FFFFFF"></path>
            <path d="M154,64.2496252 L153.169309,69.4707646 C151.358033,68.5464768 150.045911,68.1724138 148.638535,68.1724138 C144.851323,68.1724138 142.194588,71.8883058 142.194588,77.1881559 C142.194588,80.8395802 143.98002,83.0457271 146.929158,83.0457271 C148.178517,83.0457271 149.558572,82.6536732 151.236937,81.8118441 L150.345698,87.2946027 C148.478304,87.8110945 147.269557,88 145.863658,88 C140.401772,88 137,84.0134933 137,77.6124438 C137,69.0112444 141.702819,63 148.42514,63 C150.640316,63 153.256439,63.9527736 154,64.2496252" id="Fill-346" fill="#FFFFFF"></path>
            <path d="M161.376301,78.0976823 C160.846951,78.0357788 160.611109,78.018829 160.245887,78.018829 C157.368469,78.018829 155.911277,79.0019161 155.911277,80.9452449 C155.911277,82.1413096 156.621759,82.9069973 157.730734,82.9069973 C159.798601,82.9069973 161.29128,80.943771 161.376301,78.0976823 L161.376301,78.0976823 Z M165.072882,86.6661631 L160.865434,86.6661631 L160.960806,84.6741958 C159.677353,86.2475773 157.964357,87 155.639948,87 C152.884517,87 151,84.8554847 151,81.7440952 C151,77.0585873 154.279606,74.3304101 159.915413,74.3304101 C160.49134,74.3304101 161.227699,74.3827333 161.98328,74.4800103 C162.140754,73.8432883 162.182156,73.5728288 162.182156,73.2286746 C162.182156,71.9559674 161.300152,71.4821106 158.926208,71.4821106 C156.442845,71.4526327 154.394939,72.0694572 153.55064,72.3443384 C153.603871,72.0259774 154.255209,68.0191975 154.255209,68.0191975 C156.785888,67.2793028 158.453785,67 160.332387,67 C164.693612,67 167.005454,68.953646 166.999539,72.641328 C167.00989,73.6295737 166.845022,74.8521685 166.589219,76.452817 C166.149326,79.2362652 165.203001,85.2143778 165.072882,86.6661631 L165.072882,86.6661631 Z" id="Fill-347" fill="#FFFFFF"></path>
            <path d="M107.471642,86.3598544 C105.93616,86.8062221 104.737355,87 103.439672,87 C100.569733,87 99.0023803,85.4776751 99.0023803,82.678075 C98.9631556,81.8049436 99.416691,79.5203252 99.773799,77.4309927 C100.096585,75.5904799 102.207364,64 102.207364,64 L107.787891,64 L107.134964,66.9782979 L110,66.9782979 L109.236753,71.7073826 L106.362728,71.7073826 C105.714704,75.453252 104.790472,80.1129688 104.779032,80.7312484 C104.779032,81.7491477 105.368219,82.1894833 106.702675,82.1894833 C107.342528,82.1894833 107.836922,82.1314254 108.216911,82.0032455 L107.471642,86.3598544" id="Fill-348" fill="#FFFFFF"></path>
            <path d="M123.081602,86.2217779 C121.308274,86.7516425 119.596147,87.0014674 117.785795,86.9999935 C112.008689,86.9963088 109,84.0522072 109,78.4189874 C109,71.8417391 112.829241,67 118.026067,67 C122.283717,67 125,69.7104896 125,73.9648822 C125,75.3746611 124.811107,76.7505403 124.365319,78.6938685 L114.089535,78.6938685 C113.741216,81.4846852 115.573479,82.6490608 118.573857,82.6490608 C120.41972,82.6490608 122.085757,82.2761659 123.939932,81.4360468 L123.081602,86.2217779 L123.081602,86.2217779 Z M120.18096,74.8145816 C120.208916,74.4122088 120.727994,71.3811475 117.779751,71.3811475 C116.137136,71.3811475 114.96071,72.6052158 114.482433,74.8145816 L120.18096,74.8145816 L120.18096,74.8145816 Z" id="Fill-349" fill="#FFFFFF"></path>
            <path d="M87.055412,73.5116622 C87.055412,75.9472715 88.3223493,77.6216147 91.1939157,78.8840046 C93.393262,79.847931 93.7341172,80.1331294 93.7341172,81.0071484 C93.7341172,82.2061609 92.7637476,82.7470798 90.6134339,82.7470798 C88.9929878,82.7470798 87.4848421,82.5127308 85.7449781,81.9902355 C85.7449781,81.9902355 85.0332156,86.2291536 85,86.4288662 C86.2337217,86.680902 87.335372,86.9108294 90.6521854,87 C96.385828,87 99.0335846,84.9667637 99.0335846,80.5708759 C99.0335846,77.9267106 97.9248168,76.3761745 95.2035114,75.2117985 C92.9258713,74.235344 92.6641008,74.0194185 92.6641008,73.1203434 C92.6641008,72.0805114 93.5672484,71.545488 95.3237201,71.545488 C96.3882006,71.545488 97.8457321,71.6560301 99.2265514,71.837319 L100,67.3765798 C98.5930827,67.1694978 96.4609585,67 95.2185375,67 C89.1400854,67 87.0372225,69.9581046 87.055412,73.5116622" id="Fill-350" fill="#FFFFFF"></path>
            <path d="M192.981104,87.6520417 L187.989745,87.6520417 L188.237086,85.7862783 C186.789146,87.3325038 185.305872,88 183.371702,88 C179.537159,88 177,84.695548 177,79.6797247 C177,73.0109073 180.933633,67.3898055 185.586243,67.3898055 C187.632561,67.3898055 189.181895,68.22552 190.625226,70.1243125 L191.795867,63 L197,63 L192.981104,87.6520417 L192.981104,87.6520417 Z M185.196029,83.0195102 C187.654837,83.0195102 189.380075,80.2350754 189.380075,76.2638953 C189.380075,73.7160414 188.397626,72.3318893 186.584053,72.3318893 C184.190537,72.3318893 182.491416,75.1263096 182.491416,79.0690693 C182.491416,81.6929671 183.401659,83.0195102 185.196029,83.0195102 L185.196029,83.0195102 Z" id="Fill-351" fill="#FFFFFF"></path>
            <path d="M170.852957,67.2124441 C170.223769,73.337254 169.10456,79.5401498 168.229262,85.6695084 L168,87 L173.032778,87 C174.833181,74.8989706 175.266068,72.5374428 178.09046,72.8323495 C178.539462,70.3555883 179.376671,68.1866217 180,67.09342 C177.892694,66.6385511 176.71562,67.8712459 175.173045,70.2138208 C175.2961,69.2002212 175.518037,68.2169463 175.476286,67.2124441 L170.852957,67.2124441" id="Fill-352" fill="#FFFFFF"></path>
            <path d="M126.855329,67.2124441 C126.223172,73.337254 125.102429,79.5401498 124.228544,85.6695084 L124,87 L129.03455,87 C130.835795,74.8989706 131.267245,72.5374428 134.087413,72.8323495 C134.539372,70.3555883 135.378098,68.1866217 136,67.09342 C133.894763,66.6385511 132.715419,67.8712459 131.175681,70.2138208 C131.297277,69.2002212 131.520693,68.2169463 131.476743,67.2124441 L126.855329,67.2124441" id="Fill-353" fill="#FFFFFF"></path>
        </g>
    </g>
</svg>