<?xml version="1.0" encoding="UTF-8"?>
<svg width="245px" height="147px" viewBox="0 0 245 147" version="1.1" xmlns="http://www.w3.org/2000/svg" xmlns:xlink="http://www.w3.org/1999/xlink">
    <!-- Generator: Sketch 63.1 (92452) - https://sketch.com -->
    <title>Visa-light</title>
    <desc>Created with Sketch.</desc>
    <g id="Page-1" stroke="none" stroke-width="1" fill="none" fill-rule="evenodd">
        <g id="Visa-light" transform="translate(0.000000, 1.000000)">
            <rect id="Rectangle" fill="#FFFFFF" x="0" y="-1" width="245" height="147"></rect>
            <polyline id="Fill-1" fill="#26337A" points="102 96 109.696855 50 122 50 114.303849 96 102 96"></polyline>
            <path d="M158,51.9510129 C155.627814,51.0177406 151.896956,50 147.249338,50 C135.387721,50 127.038065,56.310404 126.968759,65.3464576 C126.893277,72.0304452 132.927015,75.7580405 137.475821,77.9796269 C142.150887,80.2568387 143.721594,81.7140895 143.703067,83.7502575 C143.670816,86.8645988 139.971523,88.2916333 136.522006,88.2916333 C131.718621,88.2916333 129.166651,87.5891038 125.221013,85.8530388 L123.677754,85.1127389 L122,95.5215749 C124.797629,96.8167563 129.983912,97.9409408 135.366449,98 C147.97259,98 156.163734,91.7658235 156.259802,82.116516 C156.303033,76.8162985 153.106037,72.7989012 146.1823,69.4819732 C141.989631,67.3256266 139.416389,65.8972187 139.445895,63.7147762 C139.44864,61.7823051 141.61977,59.7131739 146.318853,59.7131739 C150.243219,59.6499943 153.084078,60.5551104 155.297753,61.5000572 L156.375083,62.0315898 L158,51.9510129" id="Fill-2" fill="#26337A"></path>
            <path d="M173.969661,80.6639771 C174.98503,78.0182361 178.850297,67.7976 178.850297,67.7976 C178.778822,67.9192824 179.86006,65.1314654 180.478811,63.4061595 L181.305681,67.3761305 C181.305681,67.3761305 183.656655,78.3628894 184.140864,80.6639771 L173.969661,80.6639771 L173.969661,80.6639771 Z M189.084566,51 L179.616203,51 C176.679413,51 174.4812,51.8143879 173.194646,54.8156588 L155,97 L167.868341,97 C167.868341,97 169.96775,91.3251167 170.444252,90.0797423 C171.847829,90.0797423 184.351786,90.1035349 186.136564,90.1035349 C186.503751,91.7098776 187.628434,97 187.628434,97 L199,97 L189.084566,51 L189.084566,51 Z" id="Fill-3" fill="#26337A"></path>
            <path d="M91.3865206,50 L79.7363439,81.4147669 L78.4884754,75.0289214 C76.3174701,67.6713168 69.5593737,59.6964954 62,55.7005784 L72.6582812,96 L85.2554219,95.9925145 L104,50 L91.3865206,50" id="Fill-4" fill="#26337A"></path>
            <path d="M68.4063795,50 L49.1583804,50 L49,50.9524521 C63.9771893,54.7602238 73.8868879,63.9514202 78,75 L73.8172552,53.878374 C73.0956685,50.9653506 70.9984934,50.1018302 68.4063795,50" id="Fill-5" fill="#EC982D"></path>
        </g>
    </g>
</svg>