<?xml version="1.0" encoding="UTF-8"?>
<svg width="57px" height="36px" viewBox="0 0 57 36" version="1.1" xmlns="http://www.w3.org/2000/svg" xmlns:xlink="http://www.w3.org/1999/xlink">
    <title>icon-creadit-card</title>
    <g id="Page-1" stroke="none" stroke-width="1" fill="none" fill-rule="evenodd">
        <g id="031" transform="translate(-495.000000, -488.000000)" fill-rule="nonzero">
            <g id="Group-23" transform="translate(475.000000, 468.000000)">
                <g id="icon-creadit-card" transform="translate(20.000000, 20.000000)">
                    <path d="M36,18 C36,27.9432745 27.9426653,36 18,36 C8.05733469,36 0,27.9414978 0,18 C0,8.05850224 8.05930948,0 18,0 C27.9406905,0 36,8.05850224 36,18 Z" id="Path" fill="#FFFFFF"></path>
                    <path d="M39.0010858,0 C34.9656176,0 31.250547,1.34462279 28.2483261,3.58928013 L28.2627371,3.59105691 C28.8531923,4.16159866 29.5046474,4.5631495 30.00686,5.21996348 L26.2629674,5.27938668 C25.676263,5.87164456 25.141675,6.51602112 24.6376857,7.18566736 L31.2396894,7.18566736 C31.7419021,7.78858587 32.2062119,8.31253667 32.6274861,8.97843194 L23.440785,8.97843194 C23.1041999,9.55805498 22.7928833,10.1538664 22.5210489,10.7729733 L33.6733677,10.7729733 C33.9649432,11.3903034 34.22592,11.8566078 34.4474147,12.5100656 L21.8605129,12.5100656 C21.6607334,13.1311467 21.4897758,13.766442 21.360077,14.4143721 L34.9746985,14.4143721 C35.1079507,15.03723 35.2104068,15.6131021 35.280685,16.2000296 L21.0900192,16.2000296 C21.0305986,16.7922875 21,17.3934292 21,18.0000987 L35.3831411,18.0000987 C35.3831411,18.6373682 35.3381315,19.2276519 35.2733808,19.8001678 L21.0900192,19.8001678 C21.1512165,20.4103908 21.2412358,21.0097558 21.360077,21.6002369 L34.9529834,21.6002369 C34.8126244,22.1834135 34.6505503,22.7701436 34.4472173,23.3785899 L21.8190567,23.3785899 C22.0097554,23.9941432 22.2421077,24.5917314 22.4957803,25.174908 L33.6733677,25.174908 C33.3638278,25.8301426 33.0128317,26.353896 32.6259069,26.9676726 L23.4086071,26.9676726 C23.7722375,27.5976375 24.1735733,28.1987793 24.6090611,28.7748488 L31.2398868,28.8737558 C30.6747002,29.552286 29.9494135,29.9609439 29.2886801,30.5549785 C29.3246089,30.5838017 28.2321385,30.551425 26.0811522,30.5172714 C29.3534308,33.8941284 33.9270403,36 39.0008883,36 C48.9418955,36 57,27.9413445 57,18.0000987 C57,8.05885288 48.9436722,0 39.0010858,0 Z" id="Path" fill="#F4B459"></path>
                </g>
            </g>
        </g>
    </g>
</svg>