<svg width="30" height="30" viewBox="0 0 30 30" fill="none" xmlns="http://www.w3.org/2000/svg">
<path d="M13.6245 10.1247V9.1256H14.625V10.1257H13.6245V10.1247Z" stroke="url(#paint0_linear)" stroke-width="2.5"/>
<mask id="path-2-inside-1" fill="white">
<path d="M27.5939 13.1601L25.7528 11.3187C25.3154 10.8817 24.9573 10.0156 24.9573 9.39835V6.79352C24.9573 5.55625 23.9459 4.54476 22.7076 4.54375H20.1024C19.4838 4.54375 18.6191 4.18498 18.182 3.74792L16.3406 1.90686C15.4665 1.03105 14.0335 1.03105 13.1594 1.90686L11.318 3.74893C10.8806 4.18633 10.0149 4.54476 9.39759 4.54476H6.79344C5.55684 4.54476 4.54366 5.55625 4.54366 6.79453V9.39733C4.54366 10.0156 4.18557 10.8806 3.74784 11.3177L1.90711 13.1601C1.03096 14.0346 1.03096 15.4659 1.90711 16.3417L3.74784 18.1828C4.18557 18.6199 4.54366 19.4859 4.54366 20.1028V22.7073C4.54366 23.9439 5.55684 24.9571 6.79344 24.9571H9.39759C10.0159 24.9571 10.8806 25.3152 11.318 25.7519L13.1594 27.5936C14.0335 28.4678 15.4665 28.4678 16.3406 27.5936L18.182 25.7519C18.6194 25.3148 19.4838 24.9571 20.1024 24.9571H22.7076C23.9459 24.9571 24.9573 23.9439 24.9573 22.7073V20.1028C24.9573 19.4832 25.3158 18.6195 25.7528 18.1828L27.5939 16.3417C28.4684 15.4656 28.4684 14.0342 27.5939 13.1601ZM24.1619 16.5922C23.3049 17.4464 22.7072 18.8926 22.7072 20.1028V22.7073H20.1021C18.8915 22.7073 17.4466 23.3047 16.5907 24.1616L14.7497 26.0027L12.9086 24.1616C12.0517 23.3047 10.6079 22.7073 9.39725 22.7073H6.7931V20.1028C6.7931 18.8926 6.19572 17.4491 5.33881 16.5922L3.49674 14.7508L5.33881 12.908C6.19572 12.0524 6.7931 10.6086 6.7931 9.397V6.7942H9.39725C10.6079 6.7942 12.0517 6.19547 12.9086 5.33923L14.7497 3.4975L16.5911 5.3389C17.447 6.1948 18.8918 6.79386 20.1024 6.79386H22.7076V9.39868C22.7076 10.6093 23.3053 12.0531 24.1622 12.91L26.0036 14.7514L24.1619 16.5922Z"/>
</mask>
<path d="M27.5939 13.1601L25.826 14.9277L25.8265 14.9282L27.5939 13.1601ZM25.7528 11.3187L27.5208 9.55112L27.5199 9.55027L25.7528 11.3187ZM22.7076 4.54375L22.7096 2.04375H22.7076V4.54375ZM18.182 3.74792L19.9498 1.98016L19.9496 1.97999L18.182 3.74792ZM16.3406 1.90686L14.5712 3.67292L14.573 3.67479L16.3406 1.90686ZM13.1594 1.90686L14.9275 3.6743L14.9288 3.67292L13.1594 1.90686ZM11.318 3.74893L13.0857 5.5167L13.0861 5.51638L11.318 3.74893ZM3.74784 11.3177L1.98143 9.54858L1.97926 9.55075L3.74784 11.3177ZM1.90711 13.1601L3.67318 14.9296L3.67569 14.9271L1.90711 13.1601ZM1.90711 16.3417L3.67504 14.5741L3.67454 14.5736L1.90711 16.3417ZM3.74784 18.1828L1.97991 19.9504L1.98144 19.9519L3.74784 18.1828ZM11.318 25.7519L13.0859 23.9843L13.0844 23.9828L11.318 25.7519ZM13.1594 27.5936L11.3914 29.3613L11.3916 29.3614L13.1594 27.5936ZM16.3406 27.5936L18.1084 29.3614L18.1086 29.3613L16.3406 27.5936ZM18.182 25.7519L16.415 23.9835L16.4141 23.9843L18.182 25.7519ZM25.7528 18.1828L27.5199 19.9512L27.5206 19.9506L25.7528 18.1828ZM27.5939 16.3417L29.3617 18.1095L29.3634 18.1078L27.5939 16.3417ZM24.1619 16.5922L25.9268 18.3627L25.9291 18.3604L24.1619 16.5922ZM22.7072 22.7073V25.2073H25.2072V22.7073H22.7072ZM16.5907 24.1616L18.3585 25.9294L18.3595 25.9283L16.5907 24.1616ZM14.7497 26.0027L12.9819 27.7704L14.7497 29.5382L16.5174 27.7704L14.7497 26.0027ZM6.7931 22.7073H4.2931V25.2073H6.7931V22.7073ZM5.33881 16.5922L7.10658 14.8244L7.10626 14.8241L5.33881 16.5922ZM3.49674 14.7508L1.72865 12.9833L-0.0387954 14.7514L1.72929 16.5189L3.49674 14.7508ZM5.33881 12.908L3.57244 11.1388L3.57072 11.1406L5.33881 12.908ZM6.7931 6.7942V4.2942H4.2931V6.7942H6.7931ZM12.9086 5.33923L14.6757 7.1077L14.6767 7.10668L12.9086 5.33923ZM14.7497 3.4975L16.5174 1.72973L14.7493 -0.0383606L12.9816 1.73005L14.7497 3.4975ZM16.5911 5.3389L18.3588 3.57113L18.3588 3.57113L16.5911 5.3389ZM22.7076 6.79386H25.2076V4.29386H22.7076V6.79386ZM26.0036 14.7514L27.7709 16.5197L29.5396 14.7519L27.7714 12.9837L26.0036 14.7514ZM29.3618 11.3925L27.5208 9.55112L23.9849 13.0863L25.826 14.9277L29.3618 11.3925ZM27.5199 9.55027C27.5497 9.58006 27.5656 9.60009 27.5698 9.60557C27.5745 9.61153 27.5722 9.60916 27.5647 9.59714C27.5484 9.57112 27.5245 9.52679 27.5009 9.46983C27.4774 9.41288 27.4629 9.36451 27.4559 9.33441C27.4527 9.3205 27.4526 9.31707 27.4536 9.3244C27.4544 9.33112 27.4573 9.35635 27.4573 9.39835H22.4573C22.4573 10.1319 22.6547 10.8354 22.8812 11.3824C23.1076 11.9294 23.4657 12.5675 23.9858 13.0872L27.5199 9.55027ZM27.4573 9.39835V6.79352H22.4573V9.39835H27.4573ZM27.4573 6.79352C27.4573 4.17441 25.3259 2.04589 22.7096 2.04375L22.7055 7.04375C22.6311 7.04369 22.5672 7.01095 22.5291 6.9728C22.4909 6.93462 22.4573 6.86977 22.4573 6.79352H27.4573ZM22.7076 2.04375H20.1024V7.04375H22.7076V2.04375ZM20.1024 2.04375C20.1442 2.04375 20.1694 2.04666 20.1761 2.04752C20.1835 2.04846 20.1802 2.04839 20.1664 2.0452C20.1365 2.03829 20.0883 2.02387 20.0315 2.00032C19.9747 1.97678 19.9304 1.95287 19.9042 1.93651C19.8921 1.92895 19.8896 1.92655 19.8954 1.93101C19.9006 1.93509 19.9204 1.95071 19.9498 1.98016L16.4143 5.51569C16.9329 6.03428 17.5694 6.39224 18.1167 6.61914C18.664 6.84601 19.3678 7.04375 20.1024 7.04375V2.04375ZM19.9496 1.97999L18.1082 0.138931L14.573 3.67479L16.4144 5.51585L19.9496 1.97999ZM18.1101 0.140798C16.2593 -1.7136 13.2407 -1.7136 11.3899 0.140798L14.9288 3.67292C14.8738 3.72804 14.8037 3.75 14.75 3.75C14.6963 3.75 14.6262 3.72804 14.5712 3.67292L18.1101 0.140798ZM11.3913 0.139417L9.54987 1.98149L13.0861 5.51638L14.9275 3.6743L11.3913 0.139417ZM9.5502 1.98117C9.57975 1.95161 9.59956 1.93592 9.60487 1.93181C9.61066 1.92733 9.60815 1.92972 9.59602 1.93729C9.56979 1.95367 9.52534 1.97764 9.46836 2.00124C9.41139 2.02484 9.36308 2.03931 9.3331 2.04624C9.31925 2.04945 9.3159 2.04951 9.32333 2.04856C9.33013 2.0477 9.35548 2.04476 9.39759 2.04476V7.04476C10.1316 7.04476 10.8352 6.84708 11.3821 6.62051C11.9291 6.39387 12.5665 6.03594 13.0857 5.5167L9.5502 1.98117ZM9.39759 2.04476H6.79344V7.04476H9.39759V2.04476ZM6.79344 2.04476C4.17735 2.04476 2.04366 4.17432 2.04366 6.79453H7.04366C7.04366 6.87091 7.01007 6.9356 6.97213 6.97351C6.93438 7.01125 6.87003 7.04476 6.79344 7.04476V2.04476ZM2.04366 6.79453V9.39733H7.04366V6.79453H2.04366ZM2.04366 9.39733C2.04366 9.35564 2.04656 9.33059 2.04741 9.32392C2.04834 9.31664 2.04826 9.32006 2.04506 9.3339C2.03814 9.36386 2.02373 9.41198 2.00025 9.46866C1.97677 9.52534 1.95297 9.56944 1.93681 9.5953C1.92934 9.60724 1.92707 9.60958 1.93168 9.60363C1.93592 9.59816 1.95175 9.57822 1.98144 9.54858L5.51424 13.0868C6.03441 12.5675 6.39274 11.9298 6.61955 11.3823C6.84642 10.8347 7.04366 10.1312 7.04366 9.39733H2.04366ZM1.97926 9.55075L0.138536 11.3932L3.67569 14.9271L5.51641 13.0847L1.97926 9.55075ZM0.14105 11.3907C-1.71444 13.2426 -1.71247 16.2584 0.139686 18.1098L3.67454 14.5736C3.72761 14.6267 3.75 14.6957 3.75 14.7504C3.75 14.8051 3.72752 14.8753 3.67317 14.9296L0.14105 11.3907ZM0.139183 18.1093L1.97991 19.9504L5.51577 16.4152L3.67504 14.5741L0.139183 18.1093ZM1.98144 19.9519C1.95159 19.9221 1.93567 19.9021 1.93141 19.8966C1.92676 19.8906 1.92903 19.8929 1.93652 19.9049C1.95273 19.9308 1.97661 19.9751 2.00017 20.032C2.02373 20.0889 2.03819 20.1372 2.04513 20.1672C2.04833 20.181 2.0484 20.1844 2.04746 20.177C2.0466 20.1703 2.04366 20.1449 2.04366 20.1028H7.04366C7.04366 19.3693 6.84621 18.6658 6.61963 18.1187C6.39307 17.5717 6.03482 16.9334 5.51424 16.4137L1.98144 19.9519ZM2.04366 20.1028V22.7073H7.04366V20.1028H2.04366ZM2.04366 22.7073C2.04366 25.3246 4.17613 27.4571 6.79344 27.4571V22.4571C6.87126 22.4571 6.93554 22.4911 6.97259 22.5282C7.00964 22.5652 7.04366 22.6295 7.04366 22.7073H2.04366ZM6.79344 27.4571H9.39759V22.4571H6.79344V27.4571ZM9.39759 27.4571C9.35589 27.4571 9.33085 27.4542 9.32418 27.4534C9.31691 27.4524 9.32036 27.4525 9.33423 27.4557C9.36426 27.4627 9.41252 27.4771 9.46941 27.5006C9.52629 27.5242 9.57069 27.5481 9.59694 27.5645C9.60907 27.5721 9.61163 27.5745 9.60591 27.57C9.60067 27.566 9.58098 27.5504 9.55156 27.521L13.0844 23.9828C12.5655 23.4647 11.929 23.1073 11.3818 22.8808C10.8347 22.6544 10.1314 22.4571 9.39759 22.4571V27.4571ZM9.55003 27.5195L11.3914 29.3613L14.9273 25.826L13.0859 23.9843L9.55003 27.5195ZM11.3916 29.3614C13.242 31.2119 16.258 31.2119 18.1084 29.3614L14.5729 25.8259C14.6282 25.7705 14.6979 25.7492 14.75 25.7492C14.8021 25.7492 14.8718 25.7705 14.9271 25.8259L11.3916 29.3614ZM18.1086 29.3613L19.95 27.5195L16.4141 23.9843L14.5727 25.826L18.1086 29.3613ZM19.9491 27.5204C19.9197 27.5498 19.8999 27.5654 19.8946 27.5695C19.8888 27.574 19.8913 27.5716 19.9033 27.5641C19.9294 27.5479 19.9736 27.524 20.0303 27.5006C20.087 27.4771 20.1352 27.4627 20.1652 27.4558C20.1791 27.4526 20.1826 27.4525 20.1754 27.4534C20.1688 27.4542 20.1439 27.4571 20.1024 27.4571V22.4571C19.3688 22.4571 18.6657 22.654 18.1182 22.8806C17.5708 23.1072 16.934 23.4648 16.415 23.9835L19.9491 27.5204ZM20.1024 27.4571H22.7076V22.4571H20.1024V27.4571ZM22.7076 27.4571C25.3278 27.4571 27.4573 25.3234 27.4573 22.7073H22.4573C22.4573 22.6307 22.4909 22.5664 22.5286 22.5286C22.5665 22.4907 22.6312 22.4571 22.7076 22.4571V27.4571ZM27.4573 22.7073V20.1028H22.4573V22.7073H27.4573ZM27.4573 20.1028C27.4573 20.1442 27.4545 20.1691 27.4536 20.1758C27.4527 20.183 27.4528 20.1796 27.456 20.1658C27.4629 20.136 27.4772 20.088 27.5006 20.0315C27.5241 19.975 27.5478 19.931 27.564 19.9051C27.5715 19.8932 27.5738 19.8908 27.5693 19.8966C27.5651 19.902 27.5494 19.9218 27.5199 19.9512L23.9858 16.4143C23.4669 16.9328 23.1088 17.5692 22.8817 18.1169C22.6547 18.6647 22.4573 19.3683 22.4573 20.1028H27.4573ZM27.5206 19.9506L29.3617 18.1095L25.8261 14.574L23.9851 16.415L27.5206 19.9506ZM29.3634 18.1078C31.2107 16.2569 31.2137 13.2437 29.3613 11.392L25.8265 14.9282C25.7716 14.8733 25.7497 14.8034 25.7497 14.7502C25.7497 14.697 25.7714 14.6288 25.8244 14.5757L29.3634 18.1078ZM22.3969 14.8216C21.067 16.1473 20.2072 18.2315 20.2072 20.1028H25.2072C25.2072 19.5536 25.5429 18.7455 25.9268 18.3627L22.3969 14.8216ZM20.2072 20.1028V22.7073H25.2072V20.1028H20.2072ZM22.7072 20.2073H20.1021V25.2073H22.7072V20.2073ZM20.1021 20.2073C18.2298 20.2073 16.148 21.0672 14.8219 22.3949L18.3595 25.9283C18.7452 25.5422 19.5532 25.2073 20.1021 25.2073V20.2073ZM14.823 22.3938L12.9819 24.2349L16.5174 27.7704L18.3585 25.9294L14.823 22.3938ZM16.5174 24.2349L14.6764 22.3938L11.1408 25.9294L12.9819 27.7704L16.5174 24.2349ZM14.6764 22.3938C13.3502 21.0677 11.2704 20.2073 9.39725 20.2073V25.2073C9.94534 25.2073 10.7531 25.5417 11.1408 25.9294L14.6764 22.3938ZM9.39725 20.2073H6.7931V25.2073H9.39725V20.2073ZM9.2931 22.7073V20.1028H4.2931V22.7073H9.2931ZM9.2931 20.1028C9.2931 18.2298 8.43252 16.1503 7.10658 14.8244L3.57104 18.3599C3.95893 18.7478 4.2931 19.5553 4.2931 20.1028H9.2931ZM7.10626 14.8241L5.26418 12.9827L1.72929 16.5189L3.57137 18.3603L7.10626 14.8241ZM5.26483 16.5182L7.1069 14.6755L3.57072 11.1406L1.72865 12.9833L5.26483 16.5182ZM7.10518 14.6772C8.4331 13.3513 9.2931 11.2705 9.2931 9.397H4.2931C4.2931 9.94676 3.95834 10.7536 3.57244 11.1389L7.10518 14.6772ZM9.2931 9.397V6.7942H4.2931V9.397H9.2931ZM6.7931 9.2942H9.39725V4.2942H6.7931V9.2942ZM9.39725 9.2942C11.272 9.2942 13.351 8.43133 14.6757 7.1077L11.1415 3.57077C10.7524 3.95962 9.94371 4.2942 9.39725 4.2942V9.2942ZM14.6767 7.10668L16.5178 5.26494L12.9816 1.73005L11.1405 3.57179L14.6767 7.10668ZM12.9819 5.26526L14.8233 7.10666L18.3588 3.57113L16.5174 1.72973L12.9819 5.26526ZM14.8233 7.10666C16.1476 8.43092 18.2281 9.29386 20.1024 9.29386V4.29386C19.5555 4.29386 18.7464 3.95867 18.3588 3.57113L14.8233 7.10666ZM20.1024 9.29386H22.7076V4.29386H20.1024V9.29386ZM20.2076 6.79386V9.39868H25.2076V6.79386H20.2076ZM20.2076 9.39868C20.2076 11.2722 21.0686 13.352 22.3944 14.6778L25.93 11.1423C25.542 10.7543 25.2076 9.94636 25.2076 9.39868H20.2076ZM22.3944 14.6778L24.2358 16.5192L27.7714 12.9837L25.93 11.1423L22.3944 14.6778ZM24.2363 12.9832L22.3946 14.8239L25.9291 18.3604L27.7709 16.5197L24.2363 12.9832Z" fill="url(#paint1_linear)" mask="url(#path-2-inside-1)"/>
<defs>
<linearGradient id="paint0_linear" x1="8.14777" y1="18.895" x2="18.6478" y2="21.66" gradientUnits="userSpaceOnUse">
<stop stop-color="#EF4443"/>
<stop offset="0.999754" stop-color="#EF6B18"/>
</linearGradient>
<linearGradient id="paint1_linear" x1="-5.05509" y1="21.8541" x2="22.7282" y2="34.6578" gradientUnits="userSpaceOnUse">
<stop stop-color="#EF4443"/>
<stop offset="0.999754" stop-color="#EF6B18"/>
</linearGradient>
</defs>
</svg>
