<?xml version="1.0" encoding="UTF-8"?>
<svg width="54px" height="52px" viewBox="0 0 54 52" version="1.1" xmlns="http://www.w3.org/2000/svg" xmlns:xlink="http://www.w3.org/1999/xlink">
    <title>upload-drag-icon</title>
    <g id="Page-1" stroke="none" stroke-width="1" fill="none" fill-rule="evenodd">
        <g id="039" transform="translate(-490.000000, -524.000000)" fill="#FFFFFF" fill-rule="nonzero">
            <g id="Group-3" transform="translate(395.000000, 524.000000)">
                <g id="upload-drag-icon" transform="translate(95.000000, 0.000000)">
                    <path d="M52.3130688,35.7019018 C51.7171168,35.1048298 50.9918049,34.8065739 50.1390369,34.8065739 L36.4851177,34.8065739 C36.0377898,36.0001578 35.2861578,36.9806057 34.2310059,37.7479177 C33.175406,38.5153416 31.99795,38.8992776 30.6978541,38.8992776 L22.5111026,38.8992776 C21.2108947,38.8992776 20.0329908,38.5152296 18.9780628,37.7479177 C17.9226869,36.9806057 17.1715029,36.0002698 16.723839,34.8065739 L3.06969581,34.8065739 C2.21715186,34.8065739 1.49239991,35.1048298 0.895327945,35.7019018 C0.298367982,36.2983018 0,37.0230537 0,37.8759337 L0,48.108365 C0,48.960685 0.298367982,49.6863329 0.895327945,50.2822849 C1.49228791,50.8791329 2.21703986,51.1772768 3.06969581,51.1772768 L50.1394849,51.1772768 C50.9918049,51.1772768 51.7171168,50.8791329 52.3134048,50.2822849 C52.9105887,49.6855489 53.2087327,48.960685 53.2087327,48.108365 L53.2087327,37.8759337 C53.2087327,37.0230537 52.9105887,36.2990858 52.3130688,35.7019018 Z M40.3227975,46.4775331 C39.9172455,46.8826371 39.4374376,47.0854691 38.8831496,47.0854691 C38.3288616,47.0854691 37.8497257,46.8826371 37.4442857,46.4775331 C37.0395177,46.0728772 36.8371337,45.5929572 36.8371337,45.0386692 C36.8371337,44.4843813 37.0395177,44.0042373 37.4442857,43.5998053 C37.8497257,43.1951493 38.3288616,42.9918693 38.8831496,42.9918693 C39.4374376,42.9918693 39.9171335,43.1950373 40.3227975,43.5998053 C40.7274535,44.0041253 40.9299495,44.4843813 40.9299495,45.0386692 C40.9299495,45.5929572 40.7274535,46.0727652 40.3227975,46.4775331 Z M48.508205,46.4775331 C48.103437,46.8826371 47.6236291,47.0854691 47.0692291,47.0854691 C46.5150531,47.0854691 46.0355812,46.8826371 45.6303652,46.4775331 C45.2257092,46.0728772 45.0233252,45.5929572 45.0233252,45.0386692 C45.0233252,44.4843813 45.2257092,44.0042373 45.6303652,43.5998053 C46.0354692,43.1951493 46.5149411,42.9918693 47.0692291,42.9918693 C47.6235171,42.9918693 48.103325,43.1950373 48.508205,43.5998053 C48.913309,44.0041253 49.116029,44.4843813 49.116029,45.0386692 C49.116029,45.5929572 48.913645,46.0727652 48.508205,46.4775331 Z" id="Shape"></path>
                    <path d="M12.2787832,18.4340789 L20.4647507,18.4340789 L20.4647507,32.759886 C20.4647507,33.3140619 20.6673587,33.7938699 21.0722387,34.1987499 C21.4773427,34.6034059 21.9570386,34.8065739 22.5111026,34.8065739 L30.6978541,34.8065739 C31.2520301,34.8065739 31.731278,34.6035179 32.136718,34.1987499 C32.541486,33.7939819 32.74387,33.3141739 32.74387,32.759886 L32.74387,18.4340789 L40.9300615,18.4340789 C41.8257254,18.4340789 42.4547174,18.0074709 42.8165894,17.1550389 C43.1791333,16.323775 43.0296133,15.588159 42.3689254,14.9485271 L28.0431183,0.622943962 C27.6590703,0.217839987 27.1800463,0.0152319991 26.6042544,0.0152319991 C26.0290224,0.0152319991 25.5493264,0.217839987 25.1653904,0.622943962 L10.8400313,14.9485271 C10.1790074,15.588159 10.0299354,16.323327 10.3921434,17.1550389 C10.7549113,18.0079189 11.3836793,18.4340789 12.2787832,18.4340789 Z" id="Path"></path>
                </g>
            </g>
        </g>
    </g>
</svg>