<?xml version="1.0" encoding="UTF-8"?>
<svg width="57px" height="77px" viewBox="0 0 57 77" version="1.1" xmlns="http://www.w3.org/2000/svg" xmlns:xlink="http://www.w3.org/1999/xlink">
    <title>white-icon-logo</title>
    <g id="Final-Design" stroke="none" stroke-width="1" fill="none" fill-rule="evenodd">
        <g id="white-icon-logo" transform="translate(1.000000, 1.000000)" fill="#FFFFFF" fill-rule="nonzero" stroke="#FFFFFF" stroke-width="0.518867925">
            <path d="M23.0185185,40.0787037 C23.154321,44.5601852 23.2561728,48.3966049 23.375,52.2330247 C23.3919753,52.7253086 23.4768519,53.2175926 23.4938272,53.7098765 C23.5447531,55.0339506 24.1388889,55.9845679 25.2253086,56.7824074 C26.1929012,57.4783951 27.1435185,57.6651235 28.2299383,57.2746914 C30.6404321,56.3919753 32.4567901,54.8641975 33.2716049,52.3518519 C33.441358,51.8256173 33.662037,51.6049383 34.2391975,51.5540123 C37.5493827,51.316358 40.8595679,51.1126543 44.1527778,50.7561728 C46.1388889,50.5524691 47.683642,51.1466049 49.0416667,52.5725309 C50.5354938,54.1342593 52.1141975,55.5941358 53.6589506,57.087963 C53.9645062,57.3765432 53.9984568,57.6141975 53.8117284,58.0046296 C51.587963,62.4182099 48.5324074,66.2037037 44.882716,69.4969136 C42.5570988,71.6018519 39.8070988,72.9938272 36.7345679,73.6219136 C33.3055556,74.3348765 29.8256173,74.9290123 26.3117284,74.7932099 C19.1481481,74.5216049 12.816358,72.0092593 7.45216049,67.2391975 C4.04012346,64.2175926 2.3595679,60.2114198 1.34104938,55.9166667 C0.492283951,52.4027778 0.11882716,48.8209877 0.169753086,45.2052469 C0.237654321,39.9089506 0.305555556,34.595679 0.509259259,29.2993827 C0.645061728,25.7006173 1.25617284,22.1527778 2.5462963,18.7407407 C4.48148148,13.5632716 7.74074074,9.33641975 11.8657407,5.72067901 C14.9722222,3.00462963 18.4521605,1.12037037 22.5601852,0.509259259 C25.9552469,2.94209102e-15 29.367284,2.94209102e-15 32.7453704,0.62808642 C37.8719136,1.5787037 42.7438272,3.17438272 46.9876543,6.34876543 C49.5848765,8.28395062 51.6219136,10.6604938 53.0308642,13.5802469 C53.625,14.8194444 54.1682099,16.0756173 54.779321,17.3148148 C55.0339506,17.8410494 55.0169753,18.2654321 54.7114198,18.7746914 C53.4552469,20.8287037 52.2330247,22.9166667 50.9768519,24.9876543 C50.1790123,26.2947531 49.3302469,27.5848765 48.5324074,28.9089506 C48.2777778,29.3503086 47.9552469,29.5200617 47.4459877,29.5030864 C42.8287037,29.4012346 38.2114198,29.316358 33.5941358,29.2484568 C32.9490741,29.2484568 32.7453704,29.0447531 32.7283951,28.3996914 C32.6265432,26.1589506 32.507716,23.9012346 32.3040123,21.6604938 C32.2191358,20.7777778 31.9814815,19.8780864 31.6419753,19.0632716 C30.9459877,17.3487654 29.5200617,16.941358 27.941358,17.8919753 C26.6512346,18.6558642 25.8024691,19.7932099 25.2253086,21.1682099 C24.1898148,23.6296296 23.6975309,26.1929012 23.5447531,28.8410494 C23.3240741,32.8132716 23.1712963,36.7685185 23.0185185,40.0787037 Z M20.1666667,71.279321 C20.0817901,71.1095679 20.0648148,71.058642 20.0308642,71.0246914 C19.6404321,70.7191358 19.2330247,70.4305556 18.8425926,70.125 C15.5833333,67.5108025 12.7484568,64.5570988 11.5432099,60.4151235 C10.8641975,58.0725309 10.5246914,55.6959877 10.4907407,53.2685185 C10.4567901,50.7901235 10.507716,48.2947531 10.5416667,45.816358 C10.5925926,41.4367284 10.6435185,37.0570988 10.7283951,32.6774691 C10.779321,29.808642 10.9490741,26.9228395 11.7299383,24.1558642 C13.1219136,19.3009259 16.0246914,15.566358 20.5910494,13.3425926 C25.5308642,10.9320988 30.3518519,12.5277778 33.3904321,16.7376543 C34.4598765,18.2145062 34.9012346,19.9459877 35.1728395,21.7114198 C35.3256173,22.6450617 35.3595679,23.6126543 35.4614198,24.6311728 C35.6141975,24.4274691 35.7330247,24.2916667 35.8348765,24.1388889 C37.5154321,21.5756173 39.162037,19.0123457 40.8595679,16.4830247 C41.1651235,16.0246914 41.1651235,15.6851852 40.8595679,15.2098765 C38.720679,11.8657407 35.8009259,9.35339506 32.507716,7.21450617 C30.2839506,5.77160494 27.8734568,4.87191358 25.2592593,4.44753086 C22.4243827,3.98919753 19.6234568,4.09104938 17.0771605,5.43209877 C14.3950617,6.84104938 11.8996914,8.60648148 10.0493827,11.1018519 C9.18364198,12.2561728 8.40277778,13.4783951 7.57098765,14.6496914 C5.43209877,17.6712963 4.09104938,21.0324074 3.63271605,24.6651235 C3.15740741,28.4845679 2.88580247,32.3549383 2.76697531,36.2083333 C2.58024691,42.0817901 2.39351852,47.9552469 3.47993827,53.7777778 C4.37962963,58.6666667 6.14506173,63.0972222 10.1851852,66.3395062 C12.9182099,68.529321 16.007716,70.0570988 19.3179012,71.1265432 C19.5555556,71.1435185 19.8101852,71.1944444 20.1666667,71.279321 Z M27.4660494,15.1759259 C27.0756173,15.0740741 26.787037,14.9552469 26.4984568,14.904321 C24.6820988,14.5648148 22.933642,14.904321 21.337963,15.787037 C17.6882716,17.8240741 15.2438272,20.8626543 14.1574074,24.9027778 C13.3595679,27.8904321 13.257716,30.9799383 13.2407407,34.0694444 C13.2067901,38.5848765 13.1558642,43.117284 13.1049383,47.632716 C13.087963,49.6188272 12.9521605,51.6049383 13.037037,53.5910494 C13.2067901,57.970679 14.1574074,62.0447531 17.3487654,65.3719136 C21.7114198,69.904321 26.7361111,72.5524691 33.2376543,71.720679 C37.5833333,71.1604938 41.3858025,69.5987654 44.492284,66.4074074 C46.8518519,63.9799383 48.8719136,61.3148148 50.7731481,58.5478395 C51.0447531,58.1404321 50.8240741,57.9537037 50.5864198,57.7160494 C49.3641975,56.4938272 48.125,55.2885802 46.9027778,54.066358 C46.7669753,53.9475309 46.6141975,53.845679 46.4274691,53.6929012 C46.257716,53.9814815 46.1049383,54.2191358 45.9521605,54.4567901 C43.6944444,58.3950617 40.4861111,61.3996914 36.7006173,63.7932099 C35.8518519,64.3364198 34.7824074,64.6080247 33.7638889,64.7608025 C32.6265432,64.9305556 31.4552469,64.845679 30.3009259,64.8117284 C28.5524691,64.7438272 27.058642,64.0478395 25.7175926,62.9444444 C22.6111111,60.3641975 21.1342593,56.9351852 20.8117284,53.0308642 C20.5740741,50.1790123 20.5740741,47.3101852 20.5910494,44.441358 C20.6080247,40.0447531 20.6589506,35.6311728 20.8117284,31.2345679 C20.9305556,27.6358025 21.3040123,24.0540123 22.6790123,20.6589506 C23.5787037,18.4182099 24.9367284,16.6188272 27.0925926,15.4814815 C27.1944444,15.3966049 27.2623457,15.3287037 27.4660494,15.1759259 Z M52.029321,18.2145062 C51.8935185,18.1466049 51.8595679,18.095679 51.8256173,18.095679 C49.058642,17.9598765 46.2916667,17.8240741 43.5246914,17.7222222 C43.287037,17.7222222 42.9645062,17.9598765 42.8117284,18.1635802 C41.0802469,20.7608025 39.3657407,23.375 37.6682099,25.9891975 C37.5324074,26.2098765 37.4305556,26.4475309 37.2438272,26.8040123 C40.2654321,26.8888889 43.117284,26.9567901 45.9861111,27.058642 C46.529321,27.0756173 46.8688272,26.9058642 47.1404321,26.4305556 C48.6851852,23.8503086 50.2469136,21.287037 51.7916667,18.7067901 C51.8765432,18.5709877 51.9274691,18.4012346 52.029321,18.2145062 Z M50.9938272,15.4475309 C50.9259259,15.2098765 50.8919753,15.0570988 50.8240741,14.9212963 C49.7376543,12.6466049 48.2777778,10.6774691 46.2916667,9.08179012 C41.7592593,5.39814815 36.4290123,3.78549383 30.7762346,2.9537037 C30.5895062,2.91975309 30.4027778,2.9537037 30.2160494,2.9537037 C30.9799383,3.44598765 31.7777778,3.78549383 32.507716,4.20987654 C36.9722222,6.80709877 40.7916667,10.0833333 43.4737654,14.5817901 C43.7283951,15.0231481 44.0339506,15.2098765 44.5432099,15.2098765 C46.4274691,15.2608025 48.3287037,15.3626543 50.212963,15.4475309 C50.4675926,15.4645062 50.6882716,15.4475309 50.9938272,15.4475309 Z M26.5324074,60.1095679 C27.5169753,61.212963 28.5524691,62.0447531 29.9274691,62.1635802 C31.1496914,62.2654321 32.3888889,62.2993827 33.6111111,62.1975309 C34.2901235,62.1466049 35.0200617,61.875 35.5802469,61.5015432 C38.4830247,59.5833333 41.0632716,57.3256173 43.0154321,54.3888889 C43.2021605,54.1003086 43.3719136,53.7947531 43.6095679,53.3873457 C43.2191358,53.3873457 42.9645062,53.3703704 42.7268519,53.3873457 C40.587963,53.5231481 38.4320988,53.6929012 36.2932099,53.7947531 C35.7160494,53.8287037 35.4274691,54.0324074 35.1558642,54.5246914 C33.5432099,57.5123457 31.0817901,59.3796296 27.720679,59.9907407 C27.3641975,60.058642 27.007716,60.0756173 26.5324074,60.1095679 Z" id="Shape"></path>
        </g>
    </g>
</svg>