<?xml version="1.0" encoding="UTF-8"?>
<svg width="120px" height="120px" viewBox="0 0 120 120" version="1.1" xmlns="http://www.w3.org/2000/svg" xmlns:xlink="http://www.w3.org/1999/xlink">
    <title>pattern-square-01</title>
    <defs>
        <linearGradient x1="4.36747323%" y1="31.6901471%" x2="93.6142758%" y2="87.1298894%" id="linearGradient-1">
            <stop stop-color="#EF4443" offset="0%"></stop>
            <stop stop-color="#EF6B18" offset="99.9754152%"></stop>
        </linearGradient>
    </defs>
    <g id="Page-1" stroke="none" stroke-width="1" fill="none" fill-rule="evenodd">
        <g id="pattern-square-01" fill="url(#linearGradient-1)">
            <circle id="Oval" cx="3.5" cy="3.5" r="3.5"></circle>
            <circle id="Oval-Copy-20" cx="3.5" cy="31.5" r="3.5"></circle>
            <circle id="Oval-Copy-12" cx="31.5" cy="3.5" r="3.5"></circle>
            <circle id="Oval-Copy-21" cx="31.5" cy="31.5" r="3.5"></circle>
            <circle id="Oval-Copy-13" cx="60.5" cy="3.5" r="3.5"></circle>
            <circle id="Oval-Copy-22" cx="60.5" cy="31.5" r="3.5"></circle>
            <circle id="Oval-Copy-16" cx="88.5" cy="3.5" r="3.5"></circle>
            <circle id="Oval-Copy-23" cx="88.5" cy="31.5" r="3.5"></circle>
            <circle id="Oval-Copy-18" cx="116.5" cy="3.5" r="3.5"></circle>
            <circle id="Oval-Copy-24" cx="116.5" cy="31.5" r="3.5"></circle>
            <circle id="Oval-Copy-29" cx="3.5" cy="60.5" r="3.5"></circle>
            <circle id="Oval-Copy-28" cx="31.5" cy="60.5" r="3.5"></circle>
            <circle id="Oval-Copy-27" cx="60.5" cy="60.5" r="3.5"></circle>
            <circle id="Oval-Copy-26" cx="88.5" cy="60.5" r="3.5"></circle>
            <circle id="Oval-Copy-25" cx="116.5" cy="60.5" r="3.5"></circle>
            <circle id="Oval-Copy-34" cx="3.5" cy="88.5" r="3.5"></circle>
            <circle id="Oval-Copy-33" cx="31.5" cy="88.5" r="3.5"></circle>
            <circle id="Oval-Copy-32" cx="60.5" cy="88.5" r="3.5"></circle>
            <circle id="Oval-Copy-31" cx="88.5" cy="88.5" r="3.5"></circle>
            <circle id="Oval-Copy-30" cx="116.5" cy="88.5" r="3.5"></circle>
            <circle id="Oval-Copy-39" cx="3.5" cy="116.5" r="3.5"></circle>
            <circle id="Oval-Copy-38" cx="31.5" cy="116.5" r="3.5"></circle>
            <circle id="Oval-Copy-37" cx="60.5" cy="116.5" r="3.5"></circle>
            <circle id="Oval-Copy-36" cx="88.5" cy="116.5" r="3.5"></circle>
            <circle id="Oval-Copy-35" cx="116.5" cy="116.5" r="3.5"></circle>
        </g>
    </g>
</svg>