<?xml version="1.0" encoding="UTF-8"?>
<svg width="1440px" height="713px" viewBox="0 0 1440 713" version="1.1" xmlns="http://www.w3.org/2000/svg" xmlns:xlink="http://www.w3.org/1999/xlink">
    <title>home-block-bg-02</title>
    <g id="home-block-bg-02" stroke="none" stroke-width="1" fill="none" fill-rule="evenodd">
        <g id="Group-14-Copy-2" opacity="0.606026786" transform="translate(-83.500000, 299.500000) scale(-1, 1) translate(83.500000, -299.500000) translate(-412.000000, 75.000000)" stroke-width="0.1">
            <path d="M0.5375,352.263391 C18.6488769,362.359377 40.5334573,356.049386 66.1912412,333.333417 C104.677917,299.259464 132.599623,332.576218 192.970879,329.547422 C253.342136,326.518627 328.051565,285.629883 345.408301,225.053967 C362.765038,164.478051 386.158899,103.902135 474.451862,97.0873439 C533.313837,92.5441502 561.990183,60.4893945 560.480902,0.923076923" id="Path-10" stroke-opacity="0.59" stroke="#FFFFFF"></path>
            <path d="M14.5375,365.263391 C32.6488769,375.359377 54.5334573,369.049386 80.1912412,346.333417 C118.677917,312.259464 146.599623,345.576218 206.970879,342.547422 C267.342136,339.518627 342.051565,298.629883 359.408301,238.053967 C376.765038,177.478051 400.158899,116.902135 488.451862,110.087344 C547.313837,105.54415 575.990183,73.4893945 574.480902,13.9230769" id="Path-10-Copy" stroke="#FFFFFF"></path>
            <path d="M27.5375,379.263391 C45.6488769,389.359377 67.5334573,383.049386 93.1912412,360.333417 C131.677917,326.259464 159.599623,359.576218 219.970879,356.547422 C280.342136,353.518627 355.051565,312.629883 372.408301,252.053967 C389.765038,191.478051 413.158899,130.902135 501.451862,124.087344 C560.313837,119.54415 588.990183,87.4893945 587.480902,27.9230769" id="Path-10-Copy-2" stroke="#FFFFFF"></path>
            <path d="M41.5375,391.263391 C59.6488769,401.359377 81.5334573,395.049386 107.191241,372.333417 C145.677917,338.259464 173.599623,371.576218 233.970879,368.547422 C294.342136,365.518627 369.051565,324.629883 386.408301,264.053967 C403.765038,203.478051 427.158899,142.902135 515.451862,136.087344 C574.313837,131.54415 602.990183,99.4893945 601.480902,39.9230769" id="Path-10-Copy-3" stroke="#FFFFFF"></path>
            <path d="M55.5375,405.263391 C73.6488769,415.359377 95.5334573,409.049386 121.191241,386.333417 C159.677917,352.259464 187.599623,385.576218 247.970879,382.547422 C308.342136,379.518627 383.051565,338.629883 400.408301,278.053967 C417.765038,217.478051 441.158899,156.902135 529.451862,150.087344 C588.313837,145.54415 616.990183,113.489395 615.480902,53.9230769" id="Path-10-Copy-4" stroke="#FF5F00"></path>
            <path d="M69.5375,418.263391 C87.6488769,428.359377 109.533457,422.049386 135.191241,399.333417 C173.677917,365.259464 201.599623,398.576218 261.970879,395.547422 C322.342136,392.518627 397.051565,351.629883 414.408301,291.053967 C431.765038,230.478051 455.158899,169.902135 543.451862,163.087344 C602.313837,158.54415 630.990183,126.489395 629.480902,66.9230769" id="Path-10-Copy-5" stroke="#FFFFFF"></path>
            <path d="M82.5375,431.263391 C100.648877,441.359377 122.533457,435.049386 148.191241,412.333417 C186.677917,378.259464 214.599623,411.576218 274.970879,408.547422 C335.342136,405.518627 410.051565,364.629883 427.408301,304.053967 C444.765038,243.478051 468.158899,182.902135 556.451862,176.087344 C615.313837,171.54415 643.990183,139.489395 642.480902,79.9230769" id="Path-10-Copy-6" stroke="#FFFFFF"></path>
            <path d="M96.5375,444.263391 C114.648877,454.359377 136.533457,448.049386 162.191241,425.333417 C200.677917,391.259464 228.599623,424.576218 288.970879,421.547422 C349.342136,418.518627 424.051565,377.629883 441.408301,317.053967 C458.765038,256.478051 482.158899,195.902135 570.451862,189.087344 C629.313837,184.54415 657.990183,152.489395 656.480902,92.9230769" id="Path-10-Copy-7" stroke-opacity="0.592875874" stroke="#FFFFFF"></path>
        </g>
        <g id="Group-32-Copy-9" opacity="0.19" transform="translate(295.043334, 426.068676) scale(-1, -1) rotate(-31.000000) translate(-295.043334, -426.068676) translate(-86.956666, 226.068676)" fill="#FFFFFF" fill-opacity="0.180588942">
            <path d="M241.561379,399.981332 C233.638694,399.981332 225.633082,399.378228 217.620042,398.164622 C190.414822,394.041568 165.10951,383.141311 144.440721,366.64416 C102.14143,332.879019 84.2228686,280.402882 93.9885279,218.882664 C104.416371,153.180192 78.4822947,108.11026 54.8899965,81.8697245 C29.3061969,53.4128778 0.93380032,40.3555104 0.650361031,40.2272431 L1.67519828,37.9813315 C1.96358848,38.1120655 30.8075587,51.3865007 56.7342085,80.2244494 C80.6842095,106.86212 107.01312,152.609156 96.4330371,219.267466 C86.8134294,279.876246 104.412658,331.530979 145.989117,364.718916 C186.862548,397.345685 246.4603,406.592032 294.288513,387.730568 C328.355688,374.294566 348.61479,346.888524 370.064584,317.872975 C387.695993,294.022652 405.926462,269.359558 433.239365,250.147826 C464.23079,228.348547 502.479003,217.202856 550.16983,216.075583 C589.929307,215.134545 625.757766,205.67113 656.658837,187.946805 C681.381179,173.765865 703.032723,154.291431 721.015646,130.06124 C751.675361,88.7505267 761.14149,47.3843134 761.233082,46.9711446 L763.650361,47.5051806 C763.557532,47.9220495 754.005999,89.724865 723.062845,131.452447 C704.878172,155.97494 682.969182,175.691108 657.944834,190.054582 C626.668732,208.007075 590.428111,217.591358 550.228003,218.541029 C503.044644,219.657202 465.245725,230.654892 434.666463,252.163103 C407.682795,271.144201 389.572386,295.64326 372.057323,319.335716 C350.390927,348.6448 329.926363,376.328343 295.200718,390.023347 C278.457996,396.626648 260.241142,399.981332 241.561379,399.981332" id="Fill-8"></path>
            <path d="M237.797231,334.753218 C222.312949,334.753218 205.054038,330.101435 191.193088,319.037535 C174.34218,305.587787 156.225099,277.49166 165.607934,220.018714 C183.171917,112.428152 134.36158,2.86339467 133.866767,1.7693665 L136.127527,0.753218309 C136.62606,1.85466361 185.738989,112.098089 168.054713,220.416767 C158.865339,276.710388 176.40824,304.069746 192.743252,317.107842 C213.737439,333.865634 242.771399,335.408399 260.59953,328.274346 C287.589753,317.473754 305.830848,286.818714 325.143416,254.361309 C352.496998,208.394819 383.499046,156.294355 446.869768,150.8613 C467.323257,149.10591 489.095007,151.27666 512.149052,153.573501 C579.517958,160.286013 649.172426,167.225983 691.612208,75.1421888 L693.866767,76.1744075 C674.552958,118.081249 647.679308,143.454049 611.710533,153.746567 C579.999129,162.818966 545.380857,159.369996 511.902266,156.033519 C488.967273,153.74904 467.304655,151.591888 447.08307,153.32379 C384.981003,158.649297 354.323711,210.168752 327.277682,255.623459 C307.744371,288.449249 289.293693,319.456603 261.524668,330.568715 C254.822997,333.250011 246.594724,334.753218 237.797231,334.753218" id="Fill-9"></path>
            <path d="M231.167473,147.335924 C220.089411,147.335924 210.867765,143.994312 203.625888,137.332228 C189.721877,124.540332 185.836352,101.637787 185.025943,84.6772695 C184.152625,66.4271155 186.550549,50.9378026 186.573985,50.7835934 L189.011381,51.1728471 C188.915168,51.7797347 179.77,112.022032 205.292346,135.497886 C215.451451,144.842462 229.917938,147.195395 248.284751,142.484555 C277.443455,135.010386 296.86121,124.310262 313.99329,114.87117 C348.995083,95.5850788 374.283064,81.6490498 451.744389,116.485391 C479.087381,128.781083 571.598639,136.27888 609.405411,101.808164 C625.521087,87.1147688 629.441149,66.6957379 621.058284,41.116919 L623.4007,40.3359243 C632.119077,66.935757 627.967117,88.2390032 611.060767,103.652455 C601.379027,112.479685 577.652657,127.538704 527.524455,129.223812 C498.200462,130.210005 466.633966,125.903341 450.739087,118.756245 C374.396546,84.4260579 350.836698,97.4057415 315.176216,117.053727 C297.917086,126.563705 278.353778,137.342177 248.892866,144.895938 C242.545276,146.522596 236.629411,147.335924 231.167473,147.335924" id="Fill-10"></path>
        </g>
    </g>
</svg>