<?xml version="1.0" encoding="UTF-8"?>
<svg width="1440px" height="779px" viewBox="0 0 1440 779" version="1.1" xmlns="http://www.w3.org/2000/svg" xmlns:xlink="http://www.w3.org/1999/xlink">
    <title>home-block-bg-03</title>
    <g id="home-block-bg-03" stroke="none" stroke-width="1" fill="none" fill-rule="evenodd" fill-opacity="0.180588942" opacity="0.19">
        <g id="Group-32" transform="translate(1370.556086, -166.932058) scale(-1, -1) rotate(-37.000000) translate(-1370.556086, 166.932058) translate(835.556086, -448.932058)" fill="#FFFFFF">
            <path d="M338.368796,563.888851 C327.26873,563.888851 316.052478,563.042507 304.825822,561.339435 C266.709988,555.553491 231.25602,540.256999 202.298045,517.1063 C143.034686,469.723174 117.929913,396.082628 131.612075,309.750389 C146.221989,217.54913 109.88709,154.301822 76.8331365,117.478087 C40.9889927,77.5441696 1.23788918,59.2205712 0.840776996,59.0405718 L2.27662369,55.8888506 C2.68067233,56.0723116 43.0924734,74.7005244 79.4169669,115.169248 C112.97208,152.550289 149.86016,216.747786 135.036951,310.290388 C121.559414,395.343592 146.216786,467.831449 204.467422,514.404577 C261.73308,560.190208 345.232421,573.165746 412.242068,546.697172 C459.971832,527.842229 488.355815,489.382922 518.408017,448.664969 C543.110476,415.195455 568.652247,380.585367 606.918948,353.625257 C650.339438,323.034003 703.92704,307.393089 770.7442,305.811171 C826.449156,304.490598 876.646564,291.210446 919.940463,266.337636 C954.577664,246.437312 984.912526,219.108549 1010.10747,185.105959 C1053.06322,127.134019 1066.32573,69.0841952 1066.45405,68.5043893 L1069.84078,69.2538101 C1069.71072,69.8388083 1056.32856,128.501323 1012.9757,187.058261 C987.498091,221.471041 956.802532,249.139035 921.742208,269.295512 C877.922872,294.488513 827.148004,307.93828 770.825704,309.270968 C704.71953,310.837309 651.761412,326.270532 608.918382,356.453325 C571.112955,383.089783 545.739394,417.469679 521.199941,450.717655 C490.84427,491.84753 462.172423,530.696259 413.52011,549.914662 C390.062745,559.181173 364.54005,563.888851 338.368796,563.888851" id="Fill-8"></path>
            <path d="M329.929852,468.181237 C308.279507,468.181237 284.147852,461.66317 264.767273,446.160459 C241.206093,427.314705 215.874531,387.946479 228.993745,307.415525 C253.551957,156.659887 185.304646,3.13801098 184.612792,1.60506133 L187.773819,0.181236913 C188.470875,1.72457944 257.141274,156.197404 232.414867,307.973276 C219.566152,386.851763 244.094887,425.187629 266.934735,443.456578 C296.289107,466.937556 336.884804,469.099275 361.812352,459.103057 C399.550467,443.969293 425.055426,401.015525 452.058535,355.536286 C490.304704,291.128151 533.652211,218.125105 622.258059,210.512321 C650.856421,208.052673 681.297992,211.094322 713.532487,214.312651 C807.728654,223.718206 905.120527,233.442476 964.460436,104.414884 L967.612792,105.861227 C940.607949,164.580993 903.032827,200.133299 852.740772,214.555151 C808.401434,227.267374 759.997672,222.434685 713.187427,217.759622 C681.119393,214.558615 650.830411,211.53602 622.556302,213.962757 C535.724305,221.424844 492.858841,293.613781 455.042697,357.304808 C427.730941,403.300226 401.932941,446.747656 363.105893,462.317921 C353.735521,466.074947 342.230633,468.181237 329.929852,468.181237" id="Fill-9"></path>
            <path d="M322.406031,204.964246 C306.826724,204.964246 293.858135,200.342202 283.673734,191.127358 C264.120238,173.433893 258.655945,141.755608 257.516249,118.2962 C256.288084,93.052996 259.660334,71.6285257 259.693293,71.4152271 L263.121053,71.9536341 C262.985747,72.7930674 250.124709,156.118861 286.017308,188.590136 C300.304266,201.515344 320.648784,204.769869 346.478411,198.25394 C387.484895,187.915837 414.792483,173.115665 438.885678,160.059726 C488.109419,133.383637 523.672426,114.107634 632.607879,162.29248 C671.060891,179.299605 801.161373,189.67039 854.329812,141.991268 C876.993618,121.667694 882.506483,93.4245484 870.717487,58.0444999 L874.011676,56.9642456 C886.272509,93.7565374 880.433521,123.22271 856.657775,144.542251 C843.042144,156.751877 809.675262,177.581175 739.178942,179.911979 C697.940009,181.276058 653.547398,175.319178 631.194102,165.433475 C523.832018,117.948729 490.69932,135.901937 440.549252,163.078589 C416.277383,176.232577 388.7651,191.141119 347.333616,201.589311 C338.406869,203.839267 330.087266,204.964246 322.406031,204.964246" id="Fill-10"></path>
        </g>
        <g id="Group-32-Copy-8" transform="translate(383.043334, 125.068676) rotate(-31.000000) translate(-383.043334, -125.068676) translate(1.043334, -74.931324)" fill="#FFFFFF">
            <path d="M241.561379,399.981332 C233.638694,399.981332 225.633082,399.378228 217.620042,398.164622 C190.414822,394.041568 165.10951,383.141311 144.440721,366.64416 C102.14143,332.879019 84.2228686,280.402882 93.9885279,218.882664 C104.416371,153.180192 78.4822947,108.11026 54.8899965,81.8697245 C29.3061969,53.4128778 0.93380032,40.3555104 0.650361031,40.2272431 L1.67519828,37.9813315 C1.96358848,38.1120655 30.8075587,51.3865007 56.7342085,80.2244494 C80.6842095,106.86212 107.01312,152.609156 96.4330371,219.267466 C86.8134294,279.876246 104.412658,331.530979 145.989117,364.718916 C186.862548,397.345685 246.4603,406.592032 294.288513,387.730568 C328.355688,374.294566 348.61479,346.888524 370.064584,317.872975 C387.695993,294.022652 405.926462,269.359558 433.239365,250.147826 C464.23079,228.348547 502.479003,217.202856 550.16983,216.075583 C589.929307,215.134545 625.757766,205.67113 656.658837,187.946805 C681.381179,173.765865 703.032723,154.291431 721.015646,130.06124 C751.675361,88.7505267 761.14149,47.3843134 761.233082,46.9711446 L763.650361,47.5051806 C763.557532,47.9220495 754.005999,89.724865 723.062845,131.452447 C704.878172,155.97494 682.969182,175.691108 657.944834,190.054582 C626.668732,208.007075 590.428111,217.591358 550.228003,218.541029 C503.044644,219.657202 465.245725,230.654892 434.666463,252.163103 C407.682795,271.144201 389.572386,295.64326 372.057323,319.335716 C350.390927,348.6448 329.926363,376.328343 295.200718,390.023347 C278.457996,396.626648 260.241142,399.981332 241.561379,399.981332" id="Fill-8"></path>
            <path d="M237.797231,334.753218 C222.312949,334.753218 205.054038,330.101435 191.193088,319.037535 C174.34218,305.587787 156.225099,277.49166 165.607934,220.018714 C183.171917,112.428152 134.36158,2.86339467 133.866767,1.7693665 L136.127527,0.753218309 C136.62606,1.85466361 185.738989,112.098089 168.054713,220.416767 C158.865339,276.710388 176.40824,304.069746 192.743252,317.107842 C213.737439,333.865634 242.771399,335.408399 260.59953,328.274346 C287.589753,317.473754 305.830848,286.818714 325.143416,254.361309 C352.496998,208.394819 383.499046,156.294355 446.869768,150.8613 C467.323257,149.10591 489.095007,151.27666 512.149052,153.573501 C579.517958,160.286013 649.172426,167.225983 691.612208,75.1421888 L693.866767,76.1744075 C674.552958,118.081249 647.679308,143.454049 611.710533,153.746567 C579.999129,162.818966 545.380857,159.369996 511.902266,156.033519 C488.967273,153.74904 467.304655,151.591888 447.08307,153.32379 C384.981003,158.649297 354.323711,210.168752 327.277682,255.623459 C307.744371,288.449249 289.293693,319.456603 261.524668,330.568715 C254.822997,333.250011 246.594724,334.753218 237.797231,334.753218" id="Fill-9"></path>
            <path d="M231.167473,147.335924 C220.089411,147.335924 210.867765,143.994312 203.625888,137.332228 C189.721877,124.540332 185.836352,101.637787 185.025943,84.6772695 C184.152625,66.4271155 186.550549,50.9378026 186.573985,50.7835934 L189.011381,51.1728471 C188.915168,51.7797347 179.77,112.022032 205.292346,135.497886 C215.451451,144.842462 229.917938,147.195395 248.284751,142.484555 C277.443455,135.010386 296.86121,124.310262 313.99329,114.87117 C348.995083,95.5850788 374.283064,81.6490498 451.744389,116.485391 C479.087381,128.781083 571.598639,136.27888 609.405411,101.808164 C625.521087,87.1147688 629.441149,66.6957379 621.058284,41.116919 L623.4007,40.3359243 C632.119077,66.935757 627.967117,88.2390032 611.060767,103.652455 C601.379027,112.479685 577.652657,127.538704 527.524455,129.223812 C498.200462,130.210005 466.633966,125.903341 450.739087,118.756245 C374.396546,84.4260579 350.836698,97.4057415 315.176216,117.053727 C297.917086,126.563705 278.353778,137.342177 248.892866,144.895938 C242.545276,146.522596 236.629411,147.335924 231.167473,147.335924" id="Fill-10"></path>
        </g>
        <g id="Group-32-Copy-3" transform="translate(0.043334, 563.068676) rotate(-130.000000) translate(-0.043334, -563.068676) translate(-444.956666, 330.068676)" fill="#FFFFFF">
            <path d="M281.393579,465.649708 C272.162561,465.649708 262.83492,464.946643 253.498627,463.531887 C221.800801,458.725453 192.316631,446.018524 168.234648,426.787038 C118.950152,387.425465 98.0725622,326.251625 109.450899,254.534687 C121.600771,177.942302 91.3840036,125.402216 63.8957295,94.8124202 C34.0870823,61.6389691 1.02933583,46.4173972 0.699090058,46.2678701 L1.89316649,43.649708 C2.22918075,43.8021106 35.8363755,59.2767283 66.0444903,92.8944475 C93.9495374,123.947202 124.626342,177.276619 112.299089,254.983268 C101.090922,325.637702 121.596445,385.853993 170.038741,424.542694 C217.661913,462.577213 287.101495,473.356105 342.827947,451.368432 C382.520893,435.705467 406.125535,403.756988 431.117497,369.932231 C451.660515,342.128816 472.901519,313.377917 504.72481,290.981919 C540.834085,265.5695 585.398517,252.576457 640.964893,251.262344 C687.290155,250.165333 729.035241,239.133395 765.039241,218.471337 C793.844172,201.939965 819.0712,179.237725 840.02378,150.991479 C875.746567,102.833687 886.77591,54.6111951 886.882627,54.1295452 L889.69909,54.7520956 C889.590931,55.2380587 878.462081,103.969518 842.409048,152.613273 C821.221402,181.200268 795.694413,204.18431 766.537605,220.92847 C730.096642,241.856514 687.87133,253.029352 641.032673,254.136427 C586.057567,255.437601 542.016624,268.258112 506.387576,293.33122 C474.947889,315.458356 453.84677,344.018034 433.439312,371.637415 C408.194979,405.804359 384.350945,438.076334 343.89079,454.041229 C324.383215,461.738999 303.158074,465.649708 281.393579,465.649708" id="Fill-8"></path>
            <path d="M277.600161,389.803137 C259.572032,389.803137 239.477729,384.385342 223.339623,371.499541 C203.720352,355.835015 182.626893,323.112281 193.551194,256.175226 C214.000688,130.867656 157.17151,3.26079737 156.595407,1.98661487 L159.227577,0.80313688 C159.808012,2.08595791 216.989494,130.483241 196.399944,256.638827 C185.700887,322.202356 206.125835,354.066997 225.144457,369.252085 C249.587689,388.769393 283.391514,390.566207 304.148552,382.257385 C335.572883,369.678252 356.810729,333.975226 379.296077,296.173039 C411.143461,242.637217 447.238703,181.957335 521.020329,175.629615 C544.834035,173.585164 570.182571,176.113372 597.024067,178.788436 C675.460722,186.606301 756.558424,194.689082 805.970456,87.4417882 L808.595407,88.643983 C786.108615,137.451652 754.820008,167.002608 712.942077,178.990001 C676.020942,189.556358 635.715383,185.539443 596.736737,181.653547 C570.033853,178.992881 544.812377,176.48051 521.268674,178.497605 C448.964124,184.700067 413.270277,244.703265 381.780972,297.643028 C359.038616,335.874262 337.556757,371.987618 305.225677,384.929569 C297.423017,388.052396 287.842957,389.803137 277.600161,389.803137" id="Fill-9"></path>
            <path d="M269.635778,171.987638 C256.732211,171.987638 245.990971,168.083886 237.555737,160.301078 C221.360546,145.357273 216.834743,118.601965 215.89079,98.7882754 C214.873562,77.468002 217.666629,59.3730102 217.693927,59.1928594 L220.532971,59.647595 C220.420903,60.3565758 209.768743,130.733091 239.496803,158.158154 C251.329982,169.074715 268.180337,171.823469 289.573736,166.32015 C323.537373,157.588645 346.154893,145.0885 366.110092,134.061524 C406.879675,111.531043 436.33475,95.2506355 526.560583,135.947296 C558.409305,150.311422 666.165082,159.070531 710.201863,118.801002 C728.973169,101.635821 733.539202,77.7818132 723.774961,47.9000154 L726.503374,46.9876385 C736.658414,78.0622093 731.82227,102.949179 712.129999,120.955548 C700.852847,131.267732 673.216714,148.860045 614.828108,150.828629 C580.671945,151.980723 543.903747,146.949574 525.389621,138.600163 C436.466932,98.4948038 409.024762,113.657986 367.487948,136.611239 C347.384762,147.721027 324.597704,160.3127 290.28206,169.137187 C282.888478,171.037488 275.997764,171.987638 269.635778,171.987638" id="Fill-10"></path>
        </g>
        <g id="Group-32-Copy-7" transform="translate(1056.043334, 668.068676) scale(-1, -1) rotate(-130.000000) translate(-1056.043334, -668.068676) translate(611.043334, 435.068676)" fill="#FFFFFF">
            <path d="M281.393579,465.649708 C272.162561,465.649708 262.83492,464.946643 253.498627,463.531887 C221.800801,458.725453 192.316631,446.018524 168.234648,426.787038 C118.950152,387.425465 98.0725622,326.251625 109.450899,254.534687 C121.600771,177.942302 91.3840036,125.402216 63.8957295,94.8124202 C34.0870823,61.6389691 1.02933583,46.4173972 0.699090058,46.2678701 L1.89316649,43.649708 C2.22918075,43.8021106 35.8363755,59.2767283 66.0444903,92.8944475 C93.9495374,123.947202 124.626342,177.276619 112.299089,254.983268 C101.090922,325.637702 121.596445,385.853993 170.038741,424.542694 C217.661913,462.577213 287.101495,473.356105 342.827947,451.368432 C382.520893,435.705467 406.125535,403.756988 431.117497,369.932231 C451.660515,342.128816 472.901519,313.377917 504.72481,290.981919 C540.834085,265.5695 585.398517,252.576457 640.964893,251.262344 C687.290155,250.165333 729.035241,239.133395 765.039241,218.471337 C793.844172,201.939965 819.0712,179.237725 840.02378,150.991479 C875.746567,102.833687 886.77591,54.6111951 886.882627,54.1295452 L889.69909,54.7520956 C889.590931,55.2380587 878.462081,103.969518 842.409048,152.613273 C821.221402,181.200268 795.694413,204.18431 766.537605,220.92847 C730.096642,241.856514 687.87133,253.029352 641.032673,254.136427 C586.057567,255.437601 542.016624,268.258112 506.387576,293.33122 C474.947889,315.458356 453.84677,344.018034 433.439312,371.637415 C408.194979,405.804359 384.350945,438.076334 343.89079,454.041229 C324.383215,461.738999 303.158074,465.649708 281.393579,465.649708" id="Fill-8"></path>
            <path d="M277.600161,389.803137 C259.572032,389.803137 239.477729,384.385342 223.339623,371.499541 C203.720352,355.835015 182.626893,323.112281 193.551194,256.175226 C214.000688,130.867656 157.17151,3.26079737 156.595407,1.98661487 L159.227577,0.80313688 C159.808012,2.08595791 216.989494,130.483241 196.399944,256.638827 C185.700887,322.202356 206.125835,354.066997 225.144457,369.252085 C249.587689,388.769393 283.391514,390.566207 304.148552,382.257385 C335.572883,369.678252 356.810729,333.975226 379.296077,296.173039 C411.143461,242.637217 447.238703,181.957335 521.020329,175.629615 C544.834035,173.585164 570.182571,176.113372 597.024067,178.788436 C675.460722,186.606301 756.558424,194.689082 805.970456,87.4417882 L808.595407,88.643983 C786.108615,137.451652 754.820008,167.002608 712.942077,178.990001 C676.020942,189.556358 635.715383,185.539443 596.736737,181.653547 C570.033853,178.992881 544.812377,176.48051 521.268674,178.497605 C448.964124,184.700067 413.270277,244.703265 381.780972,297.643028 C359.038616,335.874262 337.556757,371.987618 305.225677,384.929569 C297.423017,388.052396 287.842957,389.803137 277.600161,389.803137" id="Fill-9"></path>
            <path d="M269.635778,171.987638 C256.732211,171.987638 245.990971,168.083886 237.555737,160.301078 C221.360546,145.357273 216.834743,118.601965 215.89079,98.7882754 C214.873562,77.468002 217.666629,59.3730102 217.693927,59.1928594 L220.532971,59.647595 C220.420903,60.3565758 209.768743,130.733091 239.496803,158.158154 C251.329982,169.074715 268.180337,171.823469 289.573736,166.32015 C323.537373,157.588645 346.154893,145.0885 366.110092,134.061524 C406.879675,111.531043 436.33475,95.2506355 526.560583,135.947296 C558.409305,150.311422 666.165082,159.070531 710.201863,118.801002 C728.973169,101.635821 733.539202,77.7818132 723.774961,47.9000154 L726.503374,46.9876385 C736.658414,78.0622093 731.82227,102.949179 712.129999,120.955548 C700.852847,131.267732 673.216714,148.860045 614.828108,150.828629 C580.671945,151.980723 543.903747,146.949574 525.389621,138.600163 C436.466932,98.4948038 409.024762,113.657986 367.487948,136.611239 C347.384762,147.721027 324.597704,160.3127 290.28206,169.137187 C282.888478,171.037488 275.997764,171.987638 269.635778,171.987638" id="Fill-10"></path>
        </g>
    </g>
</svg>