<?xml version="1.0" encoding="UTF-8"?>
<svg width="1440px" height="2983px" viewBox="0 0 1440 2983" version="1.1" xmlns="http://www.w3.org/2000/svg" xmlns:xlink="http://www.w3.org/1999/xlink">
    <title>main-pattern-block-home</title>
    <g id="main-pattern-block-home" stroke="none" stroke-width="1" fill="none" fill-rule="evenodd">
        <g id="Group-32-Copy-4" opacity="0.19" transform="translate(1036.418929, 739.674275) scale(-1, 1) rotate(-43.000000) translate(-1036.418929, -739.674275) translate(579.918929, 499.174275)" fill="#FFFFFF" fill-opacity="0.180588942">
            <path d="M288.144688,480.211288 C278.674846,480.211288 269.105883,479.48823 259.528044,478.033244 C227.010139,473.090134 196.763161,460.021871 172.058134,440.243518 C121.498562,399.762659 100.080832,336.849279 111.753547,263.092996 C124.217757,184.322629 93.2192286,130.288511 65.0197844,98.8288637 C34.4399348,64.7120917 0.526926021,49.0576789 0.188136203,48.9038998 L1.4131055,46.2112876 C1.75781305,46.3680239 36.2344852,62.2826782 67.2241373,96.8563515 C95.8511373,128.792122 127.321605,183.638016 114.675424,263.554333 C103.177282,336.217897 124.213319,398.1465 173.908903,437.935353 C222.76417,477.051424 294.000278,488.136824 351.16847,465.523909 C391.888344,449.415552 416.103679,416.558585 441.742227,381.771987 C462.816729,353.177953 484.607276,323.609493 517.253891,300.576642 C554.297377,274.441595 600.01477,261.079082 657.018746,259.7276 C704.542525,258.599394 747.367629,247.253753 784.303117,226.004148 C813.853282,209.00269 839.732977,185.654888 861.227638,156.605432 C897.874636,107.078223 909.189329,57.4844757 909.298806,56.9891297 L912.188136,57.6293829 C912.077179,58.1291649 900.660406,108.246353 863.674618,158.273343 C841.93881,187.673238 815.751392,211.310854 785.840246,228.531152 C748.456491,250.054306 705.138736,261.544855 657.088279,262.683411 C600.69087,264.021585 555.510511,277.206661 518.959676,302.992748 C486.706589,325.749092 465.059547,355.120893 444.124112,383.52566 C418.226663,418.664175 393.765742,451.853837 352.258812,468.272709 C332.246541,476.189374 310.472268,480.211288 288.144688,480.211288" id="Fill-8"></path>
            <path d="M280.819936,400.189109 C262.37705,400.189109 241.820454,394.618111 225.311073,381.367931 C205.240438,365.260449 183.6617,331.612393 194.837327,262.782517 C215.757285,133.931544 157.620687,2.71626596 157.03133,1.40605259 L159.724056,0.18910864 C160.317845,1.50820481 218.814852,133.53626 197.751616,263.259227 C186.806414,330.676737 207.701262,363.442435 227.157429,379.056921 C252.163005,399.126133 286.744525,400.973756 307.979103,392.429981 C340.126386,379.49514 361.852833,342.782517 384.855482,303.911373 C417.435551,248.861685 454.361205,186.465919 529.840261,179.959266 C554.201828,177.857003 580.133537,180.456703 607.592552,183.207411 C687.833731,191.246347 770.797178,199.557689 821.345989,89.2776961 L824.03133,90.5138861 C801.027204,140.70172 769.018767,171.088307 726.177386,183.414676 C688.40684,194.279824 647.174005,190.149321 607.298612,186.15354 C579.981397,183.417637 554.179672,180.834222 530.09432,182.908357 C456.126322,189.286209 419.611297,250.986155 387.397545,305.42293 C364.131976,344.735253 342.155901,381.869809 309.081008,395.177728 C301.09884,398.388861 291.298379,400.189109 280.819936,400.189109" id="Fill-9"></path>
            <path d="M273.878138,173.174582 C260.574461,173.174582 249.50016,169.208369 240.803368,161.301037 C224.106,146.118131 219.439862,118.934738 218.466639,98.8040294 C217.417869,77.1426317 220.297543,58.75812 220.325688,58.5750867 L223.252764,59.0370982 C223.137221,59.7574227 212.154762,131.259962 242.804622,159.123826 C255.004721,170.215052 272.377568,173.007786 294.434328,167.416415 C329.451101,158.545205 352.76994,145.845057 373.343905,134.64165 C415.37766,111.750682 445.746071,95.2097873 538.769604,136.557595 C571.605884,151.151546 682.702925,160.050801 728.105187,119.13696 C747.45855,101.697136 752.166165,77.4614639 742.099157,47.1015573 L744.912172,46.1745823 C755.382097,77.7463463 750.395995,103.031508 730.09311,121.325979 C718.46628,131.803158 689.973212,149.676948 629.774107,151.677029 C594.558838,152.847556 556.650541,147.735909 537.562334,139.252907 C445.882352,98.5058623 417.589262,113.911655 374.764484,137.232161 C354.037944,148.519705 330.54431,161.312845 295.164615,170.278524 C287.541775,172.209229 280.437395,173.174582 273.878138,173.174582" id="Fill-10"></path>
        </g>
        <g id="Group-32-Copy-5" opacity="0.19" transform="translate(1189.527264, 219.876644) scale(-1, 1) rotate(-37.000000) translate(-1189.527264, -219.876644) translate(822.527264, 26.876644)" fill="#FFFFFF" fill-opacity="0.180588942">
            <path d="M231.944972,385.815105 C224.333795,385.815105 216.642951,385.23366 208.944972,384.063636 C182.80942,380.088647 158.499075,369.579837 138.642951,353.675124 C98.0068036,321.122544 80.7927727,270.530909 90.1744612,211.219981 C100.192297,147.87699 75.2779094,104.425591 52.6132245,79.1273953 C28.0353411,51.6924795 0.778503958,39.1040232 0.506209071,38.9803621 L1.49075128,36.8151048 C1.76780241,36.941144 29.4776716,49.7388728 54.3849249,77.5412046 C77.3932483,103.222274 102.686946,147.32646 92.5228559,211.590964 C83.2814766,270.023185 100.18873,319.822914 140.130466,351.819019 C179.396815,383.274108 236.651274,392.188405 282.598956,374.004286 C315.326661,361.050792 334.789206,334.628945 355.395626,306.655391 C372.333795,283.661571 389.847469,259.884168 416.086471,241.36236 C445.85936,220.345928 482.603712,209.600497 528.419408,208.513707 C566.615603,207.606463 601.035341,198.482894 630.721429,181.395078 C654.471726,167.723398 675.271964,148.948323 692.547826,125.588276 C722.002047,85.7610968 731.095983,45.8804105 731.183974,45.4820793 L733.506209,45.9969373 C733.41703,46.3988356 724.241049,86.7004451 694.514532,126.929523 C677.044854,150.571374 655.997291,169.579503 631.956863,183.427162 C601.91049,200.734951 567.094794,209.975047 528.475293,210.890615 C483.147113,211.966703 446.83439,222.569449 417.457458,243.305265 C391.534747,261.604722 374.136411,285.223981 357.310014,308.065602 C336.495508,336.322151 316.835579,363.011533 283.475293,376.214727 C267.39087,382.580893 249.890276,385.815105 231.944972,385.815105" id="Fill-8"></path>
            <path d="M226.082473,321.478361 C211.234152,321.478361 194.684089,317.007635 181.392428,306.374365 C165.233612,293.448111 147.860624,266.445546 156.858093,211.209571 C173.700698,107.806665 126.895071,2.50640431 126.420581,1.45495808 L128.588488,0.478360567 C129.066546,1.53693525 176.162337,107.489449 159.20438,211.592131 C150.392426,265.694683 167.214815,291.989155 182.878925,304.51978 C203.010851,320.625323 230.852344,322.10804 247.948248,315.25166 C273.829944,304.87145 291.321851,275.409571 309.841225,244.215478 C336.071356,200.038103 365.800106,149.965501 426.568102,144.743912 C446.181537,143.056846 467.05909,145.143105 489.166272,147.350548 C553.768241,153.801795 620.561901,160.471647 661.25862,71.971952 L663.420581,72.9639945 C644.900018,113.239731 619.130107,137.624968 584.638621,147.516879 C554.22965,156.23616 521.0332,152.921431 488.929622,149.714817 C466.936602,147.519255 446.163699,145.446064 426.772644,147.110557 C367.221197,152.228783 337.823044,201.74299 311.887834,245.428502 C293.156783,276.976641 275.463902,306.777123 248.83539,317.456727 C242.408966,320.033662 234.51864,321.478361 226.082473,321.478361" id="Fill-9"></path>
            <path d="M220.845361,139.666286 C210.167409,139.666286 201.278826,136.449594 194.298506,130.03656 C180.896672,117.722865 177.151482,95.6764911 176.370342,79.3500112 C175.528566,61.782106 177.839883,46.8718327 177.862473,46.7233884 L180.211837,47.0980906 C180.119099,47.6822908 171.30423,105.672539 195.904776,128.270791 C205.696961,137.266038 219.640956,139.531011 237.344408,134.996276 C265.449976,127.801516 284.166412,117.501396 300.679726,108.415168 C334.417346,89.8500519 358.791991,76.4349959 433.455617,109.969044 C459.811052,121.805084 548.981045,129.02259 585.422335,95.8404981 C600.955955,81.696389 604.734435,62.0406864 596.654337,37.418085 L598.912151,36.6662864 C607.315644,62.2717328 603.313641,82.7785959 587.017905,97.6158442 C577.685843,106.113084 554.816407,120.60915 506.498705,122.231263 C478.233818,123.180588 447.807421,119.034922 432.486623,112.155007 C358.901375,79.1081907 336.192447,91.6026525 301.819929,110.516134 C285.184153,119.670598 266.32742,130.046137 237.93056,137.317514 C231.812228,138.883362 226.110028,139.666286 220.845361,139.666286" id="Fill-10"></path>
        </g>
        <g id="Group-32-Copy-6" opacity="0.19" transform="translate(82.527264, 185.876644) rotate(-37.000000) translate(-82.527264, -185.876644) translate(-284.472736, -7.123356)" fill="#FFFFFF" fill-opacity="0.180588942">
            <path d="M231.944972,385.815105 C224.333795,385.815105 216.642951,385.23366 208.944972,384.063636 C182.80942,380.088647 158.499075,369.579837 138.642951,353.675124 C98.0068036,321.122544 80.7927727,270.530909 90.1744612,211.219981 C100.192297,147.87699 75.2779094,104.425591 52.6132245,79.1273953 C28.0353411,51.6924795 0.778503958,39.1040232 0.506209071,38.9803621 L1.49075128,36.8151048 C1.76780241,36.941144 29.4776716,49.7388728 54.3849249,77.5412046 C77.3932483,103.222274 102.686946,147.32646 92.5228559,211.590964 C83.2814766,270.023185 100.18873,319.822914 140.130466,351.819019 C179.396815,383.274108 236.651274,392.188405 282.598956,374.004286 C315.326661,361.050792 334.789206,334.628945 355.395626,306.655391 C372.333795,283.661571 389.847469,259.884168 416.086471,241.36236 C445.85936,220.345928 482.603712,209.600497 528.419408,208.513707 C566.615603,207.606463 601.035341,198.482894 630.721429,181.395078 C654.471726,167.723398 675.271964,148.948323 692.547826,125.588276 C722.002047,85.7610968 731.095983,45.8804105 731.183974,45.4820793 L733.506209,45.9969373 C733.41703,46.3988356 724.241049,86.7004451 694.514532,126.929523 C677.044854,150.571374 655.997291,169.579503 631.956863,183.427162 C601.91049,200.734951 567.094794,209.975047 528.475293,210.890615 C483.147113,211.966703 446.83439,222.569449 417.457458,243.305265 C391.534747,261.604722 374.136411,285.223981 357.310014,308.065602 C336.495508,336.322151 316.835579,363.011533 283.475293,376.214727 C267.39087,382.580893 249.890276,385.815105 231.944972,385.815105" id="Fill-8"></path>
            <path d="M226.082473,321.478361 C211.234152,321.478361 194.684089,317.007635 181.392428,306.374365 C165.233612,293.448111 147.860624,266.445546 156.858093,211.209571 C173.700698,107.806665 126.895071,2.50640431 126.420581,1.45495808 L128.588488,0.478360567 C129.066546,1.53693525 176.162337,107.489449 159.20438,211.592131 C150.392426,265.694683 167.214815,291.989155 182.878925,304.51978 C203.010851,320.625323 230.852344,322.10804 247.948248,315.25166 C273.829944,304.87145 291.321851,275.409571 309.841225,244.215478 C336.071356,200.038103 365.800106,149.965501 426.568102,144.743912 C446.181537,143.056846 467.05909,145.143105 489.166272,147.350548 C553.768241,153.801795 620.561901,160.471647 661.25862,71.971952 L663.420581,72.9639945 C644.900018,113.239731 619.130107,137.624968 584.638621,147.516879 C554.22965,156.23616 521.0332,152.921431 488.929622,149.714817 C466.936602,147.519255 446.163699,145.446064 426.772644,147.110557 C367.221197,152.228783 337.823044,201.74299 311.887834,245.428502 C293.156783,276.976641 275.463902,306.777123 248.83539,317.456727 C242.408966,320.033662 234.51864,321.478361 226.082473,321.478361" id="Fill-9"></path>
            <path d="M220.845361,139.666286 C210.167409,139.666286 201.278826,136.449594 194.298506,130.03656 C180.896672,117.722865 177.151482,95.6764911 176.370342,79.3500112 C175.528566,61.782106 177.839883,46.8718327 177.862473,46.7233884 L180.211837,47.0980906 C180.119099,47.6822908 171.30423,105.672539 195.904776,128.270791 C205.696961,137.266038 219.640956,139.531011 237.344408,134.996276 C265.449976,127.801516 284.166412,117.501396 300.679726,108.415168 C334.417346,89.8500519 358.791991,76.4349959 433.455617,109.969044 C459.811052,121.805084 548.981045,129.02259 585.422335,95.8404981 C600.955955,81.696389 604.734435,62.0406864 596.654337,37.418085 L598.912151,36.6662864 C607.315644,62.2717328 603.313641,82.7785959 587.017905,97.6158442 C577.685843,106.113084 554.816407,120.60915 506.498705,122.231263 C478.233818,123.180588 447.807421,119.034922 432.486623,112.155007 C358.901375,79.1081907 336.192447,91.6026525 301.819929,110.516134 C285.184153,119.670598 266.32742,130.046137 237.93056,137.317514 C231.812228,138.883362 226.110028,139.666286 220.845361,139.666286" id="Fill-10"></path>
        </g>
        <g id="Group-32" opacity="0.19" transform="translate(1370.556086, 1324.067942) scale(-1, -1) rotate(-37.000000) translate(-1370.556086, -1324.067942) translate(835.556086, 1042.067942)" fill="#FFFFFF" fill-opacity="0.180588942">
            <path d="M338.368796,563.888851 C327.26873,563.888851 316.052478,563.042507 304.825822,561.339435 C266.709988,555.553491 231.25602,540.256999 202.298045,517.1063 C143.034686,469.723174 117.929913,396.082628 131.612075,309.750389 C146.221989,217.54913 109.88709,154.301822 76.8331365,117.478087 C40.9889927,77.5441696 1.23788918,59.2205712 0.840776996,59.0405718 L2.27662369,55.8888506 C2.68067233,56.0723116 43.0924734,74.7005244 79.4169669,115.169248 C112.97208,152.550289 149.86016,216.747786 135.036951,310.290388 C121.559414,395.343592 146.216786,467.831449 204.467422,514.404577 C261.73308,560.190208 345.232421,573.165746 412.242068,546.697172 C459.971832,527.842229 488.355815,489.382922 518.408017,448.664969 C543.110476,415.195455 568.652247,380.585367 606.918948,353.625257 C650.339438,323.034003 703.92704,307.393089 770.7442,305.811171 C826.449156,304.490598 876.646564,291.210446 919.940463,266.337636 C954.577664,246.437312 984.912526,219.108549 1010.10747,185.105959 C1053.06322,127.134019 1066.32573,69.0841952 1066.45405,68.5043893 L1069.84078,69.2538101 C1069.71072,69.8388083 1056.32856,128.501323 1012.9757,187.058261 C987.498091,221.471041 956.802532,249.139035 921.742208,269.295512 C877.922872,294.488513 827.148004,307.93828 770.825704,309.270968 C704.71953,310.837309 651.761412,326.270532 608.918382,356.453325 C571.112955,383.089783 545.739394,417.469679 521.199941,450.717655 C490.84427,491.84753 462.172423,530.696259 413.52011,549.914662 C390.062745,559.181173 364.54005,563.888851 338.368796,563.888851" id="Fill-8"></path>
            <path d="M329.929852,468.181237 C308.279507,468.181237 284.147852,461.66317 264.767273,446.160459 C241.206093,427.314705 215.874531,387.946479 228.993745,307.415525 C253.551957,156.659887 185.304646,3.13801098 184.612792,1.60506133 L187.773819,0.181236913 C188.470875,1.72457944 257.141274,156.197404 232.414867,307.973276 C219.566152,386.851763 244.094887,425.187629 266.934735,443.456578 C296.289107,466.937556 336.884804,469.099275 361.812352,459.103057 C399.550467,443.969293 425.055426,401.015525 452.058535,355.536286 C490.304704,291.128151 533.652211,218.125105 622.258059,210.512321 C650.856421,208.052673 681.297992,211.094322 713.532487,214.312651 C807.728654,223.718206 905.120527,233.442476 964.460436,104.414884 L967.612792,105.861227 C940.607949,164.580993 903.032827,200.133299 852.740772,214.555151 C808.401434,227.267374 759.997672,222.434685 713.187427,217.759622 C681.119393,214.558615 650.830411,211.53602 622.556302,213.962757 C535.724305,221.424844 492.858841,293.613781 455.042697,357.304808 C427.730941,403.300226 401.932941,446.747656 363.105893,462.317921 C353.735521,466.074947 342.230633,468.181237 329.929852,468.181237" id="Fill-9"></path>
            <path d="M322.406031,204.964246 C306.826724,204.964246 293.858135,200.342202 283.673734,191.127358 C264.120238,173.433893 258.655945,141.755608 257.516249,118.2962 C256.288084,93.052996 259.660334,71.6285257 259.693293,71.4152271 L263.121053,71.9536341 C262.985747,72.7930674 250.124709,156.118861 286.017308,188.590136 C300.304266,201.515344 320.648784,204.769869 346.478411,198.25394 C387.484895,187.915837 414.792483,173.115665 438.885678,160.059726 C488.109419,133.383637 523.672426,114.107634 632.607879,162.29248 C671.060891,179.299605 801.161373,189.67039 854.329812,141.991268 C876.993618,121.667694 882.506483,93.4245484 870.717487,58.0444999 L874.011676,56.9642456 C886.272509,93.7565374 880.433521,123.22271 856.657775,144.542251 C843.042144,156.751877 809.675262,177.581175 739.178942,179.911979 C697.940009,181.276058 653.547398,175.319178 631.194102,165.433475 C523.832018,117.948729 490.69932,135.901937 440.549252,163.078589 C416.277383,176.232577 388.7651,191.141119 347.333616,201.589311 C338.406869,203.839267 330.087266,204.964246 322.406031,204.964246" id="Fill-10"></path>
        </g>
        <g id="Group-32-Copy" opacity="0.19" transform="translate(1378.556086, 2698.067942) scale(-1, -1) rotate(-37.000000) translate(-1378.556086, -2698.067942) translate(843.556086, 2416.067942)" fill="#FFFFFF" fill-opacity="0.180588942">
            <path d="M338.368796,563.888851 C327.26873,563.888851 316.052478,563.042507 304.825822,561.339435 C266.709988,555.553491 231.25602,540.256999 202.298045,517.1063 C143.034686,469.723174 117.929913,396.082628 131.612075,309.750389 C146.221989,217.54913 109.88709,154.301822 76.8331365,117.478087 C40.9889927,77.5441696 1.23788918,59.2205712 0.840776996,59.0405718 L2.27662369,55.8888506 C2.68067233,56.0723116 43.0924734,74.7005244 79.4169669,115.169248 C112.97208,152.550289 149.86016,216.747786 135.036951,310.290388 C121.559414,395.343592 146.216786,467.831449 204.467422,514.404577 C261.73308,560.190208 345.232421,573.165746 412.242068,546.697172 C459.971832,527.842229 488.355815,489.382922 518.408017,448.664969 C543.110476,415.195455 568.652247,380.585367 606.918948,353.625257 C650.339438,323.034003 703.92704,307.393089 770.7442,305.811171 C826.449156,304.490598 876.646564,291.210446 919.940463,266.337636 C954.577664,246.437312 984.912526,219.108549 1010.10747,185.105959 C1053.06322,127.134019 1066.32573,69.0841952 1066.45405,68.5043893 L1069.84078,69.2538101 C1069.71072,69.8388083 1056.32856,128.501323 1012.9757,187.058261 C987.498091,221.471041 956.802532,249.139035 921.742208,269.295512 C877.922872,294.488513 827.148004,307.93828 770.825704,309.270968 C704.71953,310.837309 651.761412,326.270532 608.918382,356.453325 C571.112955,383.089783 545.739394,417.469679 521.199941,450.717655 C490.84427,491.84753 462.172423,530.696259 413.52011,549.914662 C390.062745,559.181173 364.54005,563.888851 338.368796,563.888851" id="Fill-8"></path>
            <path d="M329.929852,468.181237 C308.279507,468.181237 284.147852,461.66317 264.767273,446.160459 C241.206093,427.314705 215.874531,387.946479 228.993745,307.415525 C253.551957,156.659887 185.304646,3.13801098 184.612792,1.60506133 L187.773819,0.181236913 C188.470875,1.72457944 257.141274,156.197404 232.414867,307.973276 C219.566152,386.851763 244.094887,425.187629 266.934735,443.456578 C296.289107,466.937556 336.884804,469.099275 361.812352,459.103057 C399.550467,443.969293 425.055426,401.015525 452.058535,355.536286 C490.304704,291.128151 533.652211,218.125105 622.258059,210.512321 C650.856421,208.052673 681.297992,211.094322 713.532487,214.312651 C807.728654,223.718206 905.120527,233.442476 964.460436,104.414884 L967.612792,105.861227 C940.607949,164.580993 903.032827,200.133299 852.740772,214.555151 C808.401434,227.267374 759.997672,222.434685 713.187427,217.759622 C681.119393,214.558615 650.830411,211.53602 622.556302,213.962757 C535.724305,221.424844 492.858841,293.613781 455.042697,357.304808 C427.730941,403.300226 401.932941,446.747656 363.105893,462.317921 C353.735521,466.074947 342.230633,468.181237 329.929852,468.181237" id="Fill-9"></path>
            <path d="M322.406031,204.964246 C306.826724,204.964246 293.858135,200.342202 283.673734,191.127358 C264.120238,173.433893 258.655945,141.755608 257.516249,118.2962 C256.288084,93.052996 259.660334,71.6285257 259.693293,71.4152271 L263.121053,71.9536341 C262.985747,72.7930674 250.124709,156.118861 286.017308,188.590136 C300.304266,201.515344 320.648784,204.769869 346.478411,198.25394 C387.484895,187.915837 414.792483,173.115665 438.885678,160.059726 C488.109419,133.383637 523.672426,114.107634 632.607879,162.29248 C671.060891,179.299605 801.161373,189.67039 854.329812,141.991268 C876.993618,121.667694 882.506483,93.4245484 870.717487,58.0444999 L874.011676,56.9642456 C886.272509,93.7565374 880.433521,123.22271 856.657775,144.542251 C843.042144,156.751877 809.675262,177.581175 739.178942,179.911979 C697.940009,181.276058 653.547398,175.319178 631.194102,165.433475 C523.832018,117.948729 490.69932,135.901937 440.549252,163.078589 C416.277383,176.232577 388.7651,191.141119 347.333616,201.589311 C338.406869,203.839267 330.087266,204.964246 322.406031,204.964246" id="Fill-10"></path>
        </g>
        <g id="Group-32-Copy-2" opacity="0.19" transform="translate(213.043334, 844.068676) rotate(-97.000000) translate(-213.043334, -844.068676) translate(-168.956666, 644.068676)" fill="#FFFFFF" fill-opacity="0.180588942">
            <path d="M241.561379,399.981332 C233.638694,399.981332 225.633082,399.378228 217.620042,398.164622 C190.414822,394.041568 165.10951,383.141311 144.440721,366.64416 C102.14143,332.879019 84.2228686,280.402882 93.9885279,218.882664 C104.416371,153.180192 78.4822947,108.11026 54.8899965,81.8697245 C29.3061969,53.4128778 0.93380032,40.3555104 0.650361031,40.2272431 L1.67519828,37.9813315 C1.96358848,38.1120655 30.8075587,51.3865007 56.7342085,80.2244494 C80.6842095,106.86212 107.01312,152.609156 96.4330371,219.267466 C86.8134294,279.876246 104.412658,331.530979 145.989117,364.718916 C186.862548,397.345685 246.4603,406.592032 294.288513,387.730568 C328.355688,374.294566 348.61479,346.888524 370.064584,317.872975 C387.695993,294.022652 405.926462,269.359558 433.239365,250.147826 C464.23079,228.348547 502.479003,217.202856 550.16983,216.075583 C589.929307,215.134545 625.757766,205.67113 656.658837,187.946805 C681.381179,173.765865 703.032723,154.291431 721.015646,130.06124 C751.675361,88.7505267 761.14149,47.3843134 761.233082,46.9711446 L763.650361,47.5051806 C763.557532,47.9220495 754.005999,89.724865 723.062845,131.452447 C704.878172,155.97494 682.969182,175.691108 657.944834,190.054582 C626.668732,208.007075 590.428111,217.591358 550.228003,218.541029 C503.044644,219.657202 465.245725,230.654892 434.666463,252.163103 C407.682795,271.144201 389.572386,295.64326 372.057323,319.335716 C350.390927,348.6448 329.926363,376.328343 295.200718,390.023347 C278.457996,396.626648 260.241142,399.981332 241.561379,399.981332" id="Fill-8"></path>
            <path d="M237.797231,334.753218 C222.312949,334.753218 205.054038,330.101435 191.193088,319.037535 C174.34218,305.587787 156.225099,277.49166 165.607934,220.018714 C183.171917,112.428152 134.36158,2.86339467 133.866767,1.7693665 L136.127527,0.753218309 C136.62606,1.85466361 185.738989,112.098089 168.054713,220.416767 C158.865339,276.710388 176.40824,304.069746 192.743252,317.107842 C213.737439,333.865634 242.771399,335.408399 260.59953,328.274346 C287.589753,317.473754 305.830848,286.818714 325.143416,254.361309 C352.496998,208.394819 383.499046,156.294355 446.869768,150.8613 C467.323257,149.10591 489.095007,151.27666 512.149052,153.573501 C579.517958,160.286013 649.172426,167.225983 691.612208,75.1421888 L693.866767,76.1744075 C674.552958,118.081249 647.679308,143.454049 611.710533,153.746567 C579.999129,162.818966 545.380857,159.369996 511.902266,156.033519 C488.967273,153.74904 467.304655,151.591888 447.08307,153.32379 C384.981003,158.649297 354.323711,210.168752 327.277682,255.623459 C307.744371,288.449249 289.293693,319.456603 261.524668,330.568715 C254.822997,333.250011 246.594724,334.753218 237.797231,334.753218" id="Fill-9"></path>
            <path d="M231.167473,147.335924 C220.089411,147.335924 210.867765,143.994312 203.625888,137.332228 C189.721877,124.540332 185.836352,101.637787 185.025943,84.6772695 C184.152625,66.4271155 186.550549,50.9378026 186.573985,50.7835934 L189.011381,51.1728471 C188.915168,51.7797347 179.77,112.022032 205.292346,135.497886 C215.451451,144.842462 229.917938,147.195395 248.284751,142.484555 C277.443455,135.010386 296.86121,124.310262 313.99329,114.87117 C348.995083,95.5850788 374.283064,81.6490498 451.744389,116.485391 C479.087381,128.781083 571.598639,136.27888 609.405411,101.808164 C625.521087,87.1147688 629.441149,66.6957379 621.058284,41.116919 L623.4007,40.3359243 C632.119077,66.935757 627.967117,88.2390032 611.060767,103.652455 C601.379027,112.479685 577.652657,127.538704 527.524455,129.223812 C498.200462,130.210005 466.633966,125.903341 450.739087,118.756245 C374.396546,84.4260579 350.836698,97.4057415 315.176216,117.053727 C297.917086,126.563705 278.353778,137.342177 248.892866,144.895938 C242.545276,146.522596 236.629411,147.335924 231.167473,147.335924" id="Fill-10"></path>
        </g>
        <g id="Group-32-Copy-10" opacity="0.19" transform="translate(487.043334, 791.068676) scale(-1, -1) rotate(-97.000000) translate(-487.043334, -791.068676) translate(105.043334, 591.068676)" fill="#FFFFFF" fill-opacity="0.180588942">
            <path d="M241.561379,399.981332 C233.638694,399.981332 225.633082,399.378228 217.620042,398.164622 C190.414822,394.041568 165.10951,383.141311 144.440721,366.64416 C102.14143,332.879019 84.2228686,280.402882 93.9885279,218.882664 C104.416371,153.180192 78.4822947,108.11026 54.8899965,81.8697245 C29.3061969,53.4128778 0.93380032,40.3555104 0.650361031,40.2272431 L1.67519828,37.9813315 C1.96358848,38.1120655 30.8075587,51.3865007 56.7342085,80.2244494 C80.6842095,106.86212 107.01312,152.609156 96.4330371,219.267466 C86.8134294,279.876246 104.412658,331.530979 145.989117,364.718916 C186.862548,397.345685 246.4603,406.592032 294.288513,387.730568 C328.355688,374.294566 348.61479,346.888524 370.064584,317.872975 C387.695993,294.022652 405.926462,269.359558 433.239365,250.147826 C464.23079,228.348547 502.479003,217.202856 550.16983,216.075583 C589.929307,215.134545 625.757766,205.67113 656.658837,187.946805 C681.381179,173.765865 703.032723,154.291431 721.015646,130.06124 C751.675361,88.7505267 761.14149,47.3843134 761.233082,46.9711446 L763.650361,47.5051806 C763.557532,47.9220495 754.005999,89.724865 723.062845,131.452447 C704.878172,155.97494 682.969182,175.691108 657.944834,190.054582 C626.668732,208.007075 590.428111,217.591358 550.228003,218.541029 C503.044644,219.657202 465.245725,230.654892 434.666463,252.163103 C407.682795,271.144201 389.572386,295.64326 372.057323,319.335716 C350.390927,348.6448 329.926363,376.328343 295.200718,390.023347 C278.457996,396.626648 260.241142,399.981332 241.561379,399.981332" id="Fill-8"></path>
            <path d="M237.797231,334.753218 C222.312949,334.753218 205.054038,330.101435 191.193088,319.037535 C174.34218,305.587787 156.225099,277.49166 165.607934,220.018714 C183.171917,112.428152 134.36158,2.86339467 133.866767,1.7693665 L136.127527,0.753218309 C136.62606,1.85466361 185.738989,112.098089 168.054713,220.416767 C158.865339,276.710388 176.40824,304.069746 192.743252,317.107842 C213.737439,333.865634 242.771399,335.408399 260.59953,328.274346 C287.589753,317.473754 305.830848,286.818714 325.143416,254.361309 C352.496998,208.394819 383.499046,156.294355 446.869768,150.8613 C467.323257,149.10591 489.095007,151.27666 512.149052,153.573501 C579.517958,160.286013 649.172426,167.225983 691.612208,75.1421888 L693.866767,76.1744075 C674.552958,118.081249 647.679308,143.454049 611.710533,153.746567 C579.999129,162.818966 545.380857,159.369996 511.902266,156.033519 C488.967273,153.74904 467.304655,151.591888 447.08307,153.32379 C384.981003,158.649297 354.323711,210.168752 327.277682,255.623459 C307.744371,288.449249 289.293693,319.456603 261.524668,330.568715 C254.822997,333.250011 246.594724,334.753218 237.797231,334.753218" id="Fill-9"></path>
            <path d="M231.167473,147.335924 C220.089411,147.335924 210.867765,143.994312 203.625888,137.332228 C189.721877,124.540332 185.836352,101.637787 185.025943,84.6772695 C184.152625,66.4271155 186.550549,50.9378026 186.573985,50.7835934 L189.011381,51.1728471 C188.915168,51.7797347 179.77,112.022032 205.292346,135.497886 C215.451451,144.842462 229.917938,147.195395 248.284751,142.484555 C277.443455,135.010386 296.86121,124.310262 313.99329,114.87117 C348.995083,95.5850788 374.283064,81.6490498 451.744389,116.485391 C479.087381,128.781083 571.598639,136.27888 609.405411,101.808164 C625.521087,87.1147688 629.441149,66.6957379 621.058284,41.116919 L623.4007,40.3359243 C632.119077,66.935757 627.967117,88.2390032 611.060767,103.652455 C601.379027,112.479685 577.652657,127.538704 527.524455,129.223812 C498.200462,130.210005 466.633966,125.903341 450.739087,118.756245 C374.396546,84.4260579 350.836698,97.4057415 315.176216,117.053727 C297.917086,126.563705 278.353778,137.342177 248.892866,144.895938 C242.545276,146.522596 236.629411,147.335924 231.167473,147.335924" id="Fill-10"></path>
        </g>
        <g id="Group-32-Copy-11" opacity="0.19" transform="translate(383.043334, 2357.068676) rotate(-31.000000) translate(-383.043334, -2357.068676) translate(1.043334, 2157.068676)" fill="#FFFFFF" fill-opacity="0.180588942">
            <path d="M241.561379,399.981332 C233.638694,399.981332 225.633082,399.378228 217.620042,398.164622 C190.414822,394.041568 165.10951,383.141311 144.440721,366.64416 C102.14143,332.879019 84.2228686,280.402882 93.9885279,218.882664 C104.416371,153.180192 78.4822947,108.11026 54.8899965,81.8697245 C29.3061969,53.4128778 0.93380032,40.3555104 0.650361031,40.2272431 L1.67519828,37.9813315 C1.96358848,38.1120655 30.8075587,51.3865007 56.7342085,80.2244494 C80.6842095,106.86212 107.01312,152.609156 96.4330371,219.267466 C86.8134294,279.876246 104.412658,331.530979 145.989117,364.718916 C186.862548,397.345685 246.4603,406.592032 294.288513,387.730568 C328.355688,374.294566 348.61479,346.888524 370.064584,317.872975 C387.695993,294.022652 405.926462,269.359558 433.239365,250.147826 C464.23079,228.348547 502.479003,217.202856 550.16983,216.075583 C589.929307,215.134545 625.757766,205.67113 656.658837,187.946805 C681.381179,173.765865 703.032723,154.291431 721.015646,130.06124 C751.675361,88.7505267 761.14149,47.3843134 761.233082,46.9711446 L763.650361,47.5051806 C763.557532,47.9220495 754.005999,89.724865 723.062845,131.452447 C704.878172,155.97494 682.969182,175.691108 657.944834,190.054582 C626.668732,208.007075 590.428111,217.591358 550.228003,218.541029 C503.044644,219.657202 465.245725,230.654892 434.666463,252.163103 C407.682795,271.144201 389.572386,295.64326 372.057323,319.335716 C350.390927,348.6448 329.926363,376.328343 295.200718,390.023347 C278.457996,396.626648 260.241142,399.981332 241.561379,399.981332" id="Fill-8"></path>
            <path d="M237.797231,334.753218 C222.312949,334.753218 205.054038,330.101435 191.193088,319.037535 C174.34218,305.587787 156.225099,277.49166 165.607934,220.018714 C183.171917,112.428152 134.36158,2.86339467 133.866767,1.7693665 L136.127527,0.753218309 C136.62606,1.85466361 185.738989,112.098089 168.054713,220.416767 C158.865339,276.710388 176.40824,304.069746 192.743252,317.107842 C213.737439,333.865634 242.771399,335.408399 260.59953,328.274346 C287.589753,317.473754 305.830848,286.818714 325.143416,254.361309 C352.496998,208.394819 383.499046,156.294355 446.869768,150.8613 C467.323257,149.10591 489.095007,151.27666 512.149052,153.573501 C579.517958,160.286013 649.172426,167.225983 691.612208,75.1421888 L693.866767,76.1744075 C674.552958,118.081249 647.679308,143.454049 611.710533,153.746567 C579.999129,162.818966 545.380857,159.369996 511.902266,156.033519 C488.967273,153.74904 467.304655,151.591888 447.08307,153.32379 C384.981003,158.649297 354.323711,210.168752 327.277682,255.623459 C307.744371,288.449249 289.293693,319.456603 261.524668,330.568715 C254.822997,333.250011 246.594724,334.753218 237.797231,334.753218" id="Fill-9"></path>
            <path d="M231.167473,147.335924 C220.089411,147.335924 210.867765,143.994312 203.625888,137.332228 C189.721877,124.540332 185.836352,101.637787 185.025943,84.6772695 C184.152625,66.4271155 186.550549,50.9378026 186.573985,50.7835934 L189.011381,51.1728471 C188.915168,51.7797347 179.77,112.022032 205.292346,135.497886 C215.451451,144.842462 229.917938,147.195395 248.284751,142.484555 C277.443455,135.010386 296.86121,124.310262 313.99329,114.87117 C348.995083,95.5850788 374.283064,81.6490498 451.744389,116.485391 C479.087381,128.781083 571.598639,136.27888 609.405411,101.808164 C625.521087,87.1147688 629.441149,66.6957379 621.058284,41.116919 L623.4007,40.3359243 C632.119077,66.935757 627.967117,88.2390032 611.060767,103.652455 C601.379027,112.479685 577.652657,127.538704 527.524455,129.223812 C498.200462,130.210005 466.633966,125.903341 450.739087,118.756245 C374.396546,84.4260579 350.836698,97.4057415 315.176216,117.053727 C297.917086,126.563705 278.353778,137.342177 248.892866,144.895938 C242.545276,146.522596 236.629411,147.335924 231.167473,147.335924" id="Fill-10"></path>
        </g>
        <g id="Group-32-Copy-14" opacity="0.19" transform="translate(581.043334, 2495.068676) rotate(-31.000000) translate(-581.043334, -2495.068676) translate(199.043334, 2295.068676)" fill="#FFFFFF" fill-opacity="0.180588942">
            <path d="M241.561379,399.981332 C233.638694,399.981332 225.633082,399.378228 217.620042,398.164622 C190.414822,394.041568 165.10951,383.141311 144.440721,366.64416 C102.14143,332.879019 84.2228686,280.402882 93.9885279,218.882664 C104.416371,153.180192 78.4822947,108.11026 54.8899965,81.8697245 C29.3061969,53.4128778 0.93380032,40.3555104 0.650361031,40.2272431 L1.67519828,37.9813315 C1.96358848,38.1120655 30.8075587,51.3865007 56.7342085,80.2244494 C80.6842095,106.86212 107.01312,152.609156 96.4330371,219.267466 C86.8134294,279.876246 104.412658,331.530979 145.989117,364.718916 C186.862548,397.345685 246.4603,406.592032 294.288513,387.730568 C328.355688,374.294566 348.61479,346.888524 370.064584,317.872975 C387.695993,294.022652 405.926462,269.359558 433.239365,250.147826 C464.23079,228.348547 502.479003,217.202856 550.16983,216.075583 C589.929307,215.134545 625.757766,205.67113 656.658837,187.946805 C681.381179,173.765865 703.032723,154.291431 721.015646,130.06124 C751.675361,88.7505267 761.14149,47.3843134 761.233082,46.9711446 L763.650361,47.5051806 C763.557532,47.9220495 754.005999,89.724865 723.062845,131.452447 C704.878172,155.97494 682.969182,175.691108 657.944834,190.054582 C626.668732,208.007075 590.428111,217.591358 550.228003,218.541029 C503.044644,219.657202 465.245725,230.654892 434.666463,252.163103 C407.682795,271.144201 389.572386,295.64326 372.057323,319.335716 C350.390927,348.6448 329.926363,376.328343 295.200718,390.023347 C278.457996,396.626648 260.241142,399.981332 241.561379,399.981332" id="Fill-8"></path>
            <path d="M237.797231,334.753218 C222.312949,334.753218 205.054038,330.101435 191.193088,319.037535 C174.34218,305.587787 156.225099,277.49166 165.607934,220.018714 C183.171917,112.428152 134.36158,2.86339467 133.866767,1.7693665 L136.127527,0.753218309 C136.62606,1.85466361 185.738989,112.098089 168.054713,220.416767 C158.865339,276.710388 176.40824,304.069746 192.743252,317.107842 C213.737439,333.865634 242.771399,335.408399 260.59953,328.274346 C287.589753,317.473754 305.830848,286.818714 325.143416,254.361309 C352.496998,208.394819 383.499046,156.294355 446.869768,150.8613 C467.323257,149.10591 489.095007,151.27666 512.149052,153.573501 C579.517958,160.286013 649.172426,167.225983 691.612208,75.1421888 L693.866767,76.1744075 C674.552958,118.081249 647.679308,143.454049 611.710533,153.746567 C579.999129,162.818966 545.380857,159.369996 511.902266,156.033519 C488.967273,153.74904 467.304655,151.591888 447.08307,153.32379 C384.981003,158.649297 354.323711,210.168752 327.277682,255.623459 C307.744371,288.449249 289.293693,319.456603 261.524668,330.568715 C254.822997,333.250011 246.594724,334.753218 237.797231,334.753218" id="Fill-9"></path>
            <path d="M231.167473,147.335924 C220.089411,147.335924 210.867765,143.994312 203.625888,137.332228 C189.721877,124.540332 185.836352,101.637787 185.025943,84.6772695 C184.152625,66.4271155 186.550549,50.9378026 186.573985,50.7835934 L189.011381,51.1728471 C188.915168,51.7797347 179.77,112.022032 205.292346,135.497886 C215.451451,144.842462 229.917938,147.195395 248.284751,142.484555 C277.443455,135.010386 296.86121,124.310262 313.99329,114.87117 C348.995083,95.5850788 374.283064,81.6490498 451.744389,116.485391 C479.087381,128.781083 571.598639,136.27888 609.405411,101.808164 C625.521087,87.1147688 629.441149,66.6957379 621.058284,41.116919 L623.4007,40.3359243 C632.119077,66.935757 627.967117,88.2390032 611.060767,103.652455 C601.379027,112.479685 577.652657,127.538704 527.524455,129.223812 C498.200462,130.210005 466.633966,125.903341 450.739087,118.756245 C374.396546,84.4260579 350.836698,97.4057415 315.176216,117.053727 C297.917086,126.563705 278.353778,137.342177 248.892866,144.895938 C242.545276,146.522596 236.629411,147.335924 231.167473,147.335924" id="Fill-10"></path>
        </g>
        <g id="Group-32-Copy-9" opacity="0.19" transform="translate(295.043334, 1199.068676) scale(-1, -1) rotate(-31.000000) translate(-295.043334, -1199.068676) translate(-86.956666, 999.068676)" fill="#FFFFFF" fill-opacity="0.180588942">
            <path d="M241.561379,399.981332 C233.638694,399.981332 225.633082,399.378228 217.620042,398.164622 C190.414822,394.041568 165.10951,383.141311 144.440721,366.64416 C102.14143,332.879019 84.2228686,280.402882 93.9885279,218.882664 C104.416371,153.180192 78.4822947,108.11026 54.8899965,81.8697245 C29.3061969,53.4128778 0.93380032,40.3555104 0.650361031,40.2272431 L1.67519828,37.9813315 C1.96358848,38.1120655 30.8075587,51.3865007 56.7342085,80.2244494 C80.6842095,106.86212 107.01312,152.609156 96.4330371,219.267466 C86.8134294,279.876246 104.412658,331.530979 145.989117,364.718916 C186.862548,397.345685 246.4603,406.592032 294.288513,387.730568 C328.355688,374.294566 348.61479,346.888524 370.064584,317.872975 C387.695993,294.022652 405.926462,269.359558 433.239365,250.147826 C464.23079,228.348547 502.479003,217.202856 550.16983,216.075583 C589.929307,215.134545 625.757766,205.67113 656.658837,187.946805 C681.381179,173.765865 703.032723,154.291431 721.015646,130.06124 C751.675361,88.7505267 761.14149,47.3843134 761.233082,46.9711446 L763.650361,47.5051806 C763.557532,47.9220495 754.005999,89.724865 723.062845,131.452447 C704.878172,155.97494 682.969182,175.691108 657.944834,190.054582 C626.668732,208.007075 590.428111,217.591358 550.228003,218.541029 C503.044644,219.657202 465.245725,230.654892 434.666463,252.163103 C407.682795,271.144201 389.572386,295.64326 372.057323,319.335716 C350.390927,348.6448 329.926363,376.328343 295.200718,390.023347 C278.457996,396.626648 260.241142,399.981332 241.561379,399.981332" id="Fill-8"></path>
            <path d="M237.797231,334.753218 C222.312949,334.753218 205.054038,330.101435 191.193088,319.037535 C174.34218,305.587787 156.225099,277.49166 165.607934,220.018714 C183.171917,112.428152 134.36158,2.86339467 133.866767,1.7693665 L136.127527,0.753218309 C136.62606,1.85466361 185.738989,112.098089 168.054713,220.416767 C158.865339,276.710388 176.40824,304.069746 192.743252,317.107842 C213.737439,333.865634 242.771399,335.408399 260.59953,328.274346 C287.589753,317.473754 305.830848,286.818714 325.143416,254.361309 C352.496998,208.394819 383.499046,156.294355 446.869768,150.8613 C467.323257,149.10591 489.095007,151.27666 512.149052,153.573501 C579.517958,160.286013 649.172426,167.225983 691.612208,75.1421888 L693.866767,76.1744075 C674.552958,118.081249 647.679308,143.454049 611.710533,153.746567 C579.999129,162.818966 545.380857,159.369996 511.902266,156.033519 C488.967273,153.74904 467.304655,151.591888 447.08307,153.32379 C384.981003,158.649297 354.323711,210.168752 327.277682,255.623459 C307.744371,288.449249 289.293693,319.456603 261.524668,330.568715 C254.822997,333.250011 246.594724,334.753218 237.797231,334.753218" id="Fill-9"></path>
            <path d="M231.167473,147.335924 C220.089411,147.335924 210.867765,143.994312 203.625888,137.332228 C189.721877,124.540332 185.836352,101.637787 185.025943,84.6772695 C184.152625,66.4271155 186.550549,50.9378026 186.573985,50.7835934 L189.011381,51.1728471 C188.915168,51.7797347 179.77,112.022032 205.292346,135.497886 C215.451451,144.842462 229.917938,147.195395 248.284751,142.484555 C277.443455,135.010386 296.86121,124.310262 313.99329,114.87117 C348.995083,95.5850788 374.283064,81.6490498 451.744389,116.485391 C479.087381,128.781083 571.598639,136.27888 609.405411,101.808164 C625.521087,87.1147688 629.441149,66.6957379 621.058284,41.116919 L623.4007,40.3359243 C632.119077,66.935757 627.967117,88.2390032 611.060767,103.652455 C601.379027,112.479685 577.652657,127.538704 527.524455,129.223812 C498.200462,130.210005 466.633966,125.903341 450.739087,118.756245 C374.396546,84.4260579 350.836698,97.4057415 315.176216,117.053727 C297.917086,126.563705 278.353778,137.342177 248.892866,144.895938 C242.545276,146.522596 236.629411,147.335924 231.167473,147.335924" id="Fill-10"></path>
        </g>
        <g id="Group-32-Copy-3" opacity="0.19" transform="translate(0.043334, 2054.068676) rotate(-130.000000) translate(-0.043334, -2054.068676) translate(-444.956666, 1821.068676)" fill="#FFFFFF" fill-opacity="0.180588942">
            <path d="M281.393579,465.649708 C272.162561,465.649708 262.83492,464.946643 253.498627,463.531887 C221.800801,458.725453 192.316631,446.018524 168.234648,426.787038 C118.950152,387.425465 98.0725622,326.251625 109.450899,254.534687 C121.600771,177.942302 91.3840036,125.402216 63.8957295,94.8124202 C34.0870823,61.6389691 1.02933583,46.4173972 0.699090058,46.2678701 L1.89316649,43.649708 C2.22918075,43.8021106 35.8363755,59.2767283 66.0444903,92.8944475 C93.9495374,123.947202 124.626342,177.276619 112.299089,254.983268 C101.090922,325.637702 121.596445,385.853993 170.038741,424.542694 C217.661913,462.577213 287.101495,473.356105 342.827947,451.368432 C382.520893,435.705467 406.125535,403.756988 431.117497,369.932231 C451.660515,342.128816 472.901519,313.377917 504.72481,290.981919 C540.834085,265.5695 585.398517,252.576457 640.964893,251.262344 C687.290155,250.165333 729.035241,239.133395 765.039241,218.471337 C793.844172,201.939965 819.0712,179.237725 840.02378,150.991479 C875.746567,102.833687 886.77591,54.6111951 886.882627,54.1295452 L889.69909,54.7520956 C889.590931,55.2380587 878.462081,103.969518 842.409048,152.613273 C821.221402,181.200268 795.694413,204.18431 766.537605,220.92847 C730.096642,241.856514 687.87133,253.029352 641.032673,254.136427 C586.057567,255.437601 542.016624,268.258112 506.387576,293.33122 C474.947889,315.458356 453.84677,344.018034 433.439312,371.637415 C408.194979,405.804359 384.350945,438.076334 343.89079,454.041229 C324.383215,461.738999 303.158074,465.649708 281.393579,465.649708" id="Fill-8"></path>
            <path d="M277.600161,389.803137 C259.572032,389.803137 239.477729,384.385342 223.339623,371.499541 C203.720352,355.835015 182.626893,323.112281 193.551194,256.175226 C214.000688,130.867656 157.17151,3.26079737 156.595407,1.98661487 L159.227577,0.80313688 C159.808012,2.08595791 216.989494,130.483241 196.399944,256.638827 C185.700887,322.202356 206.125835,354.066997 225.144457,369.252085 C249.587689,388.769393 283.391514,390.566207 304.148552,382.257385 C335.572883,369.678252 356.810729,333.975226 379.296077,296.173039 C411.143461,242.637217 447.238703,181.957335 521.020329,175.629615 C544.834035,173.585164 570.182571,176.113372 597.024067,178.788436 C675.460722,186.606301 756.558424,194.689082 805.970456,87.4417882 L808.595407,88.643983 C786.108615,137.451652 754.820008,167.002608 712.942077,178.990001 C676.020942,189.556358 635.715383,185.539443 596.736737,181.653547 C570.033853,178.992881 544.812377,176.48051 521.268674,178.497605 C448.964124,184.700067 413.270277,244.703265 381.780972,297.643028 C359.038616,335.874262 337.556757,371.987618 305.225677,384.929569 C297.423017,388.052396 287.842957,389.803137 277.600161,389.803137" id="Fill-9"></path>
            <path d="M269.635778,171.987638 C256.732211,171.987638 245.990971,168.083886 237.555737,160.301078 C221.360546,145.357273 216.834743,118.601965 215.89079,98.7882754 C214.873562,77.468002 217.666629,59.3730102 217.693927,59.1928594 L220.532971,59.647595 C220.420903,60.3565758 209.768743,130.733091 239.496803,158.158154 C251.329982,169.074715 268.180337,171.823469 289.573736,166.32015 C323.537373,157.588645 346.154893,145.0885 366.110092,134.061524 C406.879675,111.531043 436.33475,95.2506355 526.560583,135.947296 C558.409305,150.311422 666.165082,159.070531 710.201863,118.801002 C728.973169,101.635821 733.539202,77.7818132 723.774961,47.9000154 L726.503374,46.9876385 C736.658414,78.0622093 731.82227,102.949179 712.129999,120.955548 C700.852847,131.267732 673.216714,148.860045 614.828108,150.828629 C580.671945,151.980723 543.903747,146.949574 525.389621,138.600163 C436.466932,98.4948038 409.024762,113.657986 367.487948,136.611239 C347.384762,147.721027 324.597704,160.3127 290.28206,169.137187 C282.888478,171.037488 275.997764,171.987638 269.635778,171.987638" id="Fill-10"></path>
        </g>
        <g id="Group-32-Copy-12" opacity="0.19" transform="translate(0.043334, 2795.068676) rotate(-130.000000) translate(-0.043334, -2795.068676) translate(-444.956666, 2562.068676)" fill="#FFFFFF" fill-opacity="0.180588942">
            <path d="M281.393579,465.649708 C272.162561,465.649708 262.83492,464.946643 253.498627,463.531887 C221.800801,458.725453 192.316631,446.018524 168.234648,426.787038 C118.950152,387.425465 98.0725622,326.251625 109.450899,254.534687 C121.600771,177.942302 91.3840036,125.402216 63.8957295,94.8124202 C34.0870823,61.6389691 1.02933583,46.4173972 0.699090058,46.2678701 L1.89316649,43.649708 C2.22918075,43.8021106 35.8363755,59.2767283 66.0444903,92.8944475 C93.9495374,123.947202 124.626342,177.276619 112.299089,254.983268 C101.090922,325.637702 121.596445,385.853993 170.038741,424.542694 C217.661913,462.577213 287.101495,473.356105 342.827947,451.368432 C382.520893,435.705467 406.125535,403.756988 431.117497,369.932231 C451.660515,342.128816 472.901519,313.377917 504.72481,290.981919 C540.834085,265.5695 585.398517,252.576457 640.964893,251.262344 C687.290155,250.165333 729.035241,239.133395 765.039241,218.471337 C793.844172,201.939965 819.0712,179.237725 840.02378,150.991479 C875.746567,102.833687 886.77591,54.6111951 886.882627,54.1295452 L889.69909,54.7520956 C889.590931,55.2380587 878.462081,103.969518 842.409048,152.613273 C821.221402,181.200268 795.694413,204.18431 766.537605,220.92847 C730.096642,241.856514 687.87133,253.029352 641.032673,254.136427 C586.057567,255.437601 542.016624,268.258112 506.387576,293.33122 C474.947889,315.458356 453.84677,344.018034 433.439312,371.637415 C408.194979,405.804359 384.350945,438.076334 343.89079,454.041229 C324.383215,461.738999 303.158074,465.649708 281.393579,465.649708" id="Fill-8"></path>
            <path d="M277.600161,389.803137 C259.572032,389.803137 239.477729,384.385342 223.339623,371.499541 C203.720352,355.835015 182.626893,323.112281 193.551194,256.175226 C214.000688,130.867656 157.17151,3.26079737 156.595407,1.98661487 L159.227577,0.80313688 C159.808012,2.08595791 216.989494,130.483241 196.399944,256.638827 C185.700887,322.202356 206.125835,354.066997 225.144457,369.252085 C249.587689,388.769393 283.391514,390.566207 304.148552,382.257385 C335.572883,369.678252 356.810729,333.975226 379.296077,296.173039 C411.143461,242.637217 447.238703,181.957335 521.020329,175.629615 C544.834035,173.585164 570.182571,176.113372 597.024067,178.788436 C675.460722,186.606301 756.558424,194.689082 805.970456,87.4417882 L808.595407,88.643983 C786.108615,137.451652 754.820008,167.002608 712.942077,178.990001 C676.020942,189.556358 635.715383,185.539443 596.736737,181.653547 C570.033853,178.992881 544.812377,176.48051 521.268674,178.497605 C448.964124,184.700067 413.270277,244.703265 381.780972,297.643028 C359.038616,335.874262 337.556757,371.987618 305.225677,384.929569 C297.423017,388.052396 287.842957,389.803137 277.600161,389.803137" id="Fill-9"></path>
            <path d="M269.635778,171.987638 C256.732211,171.987638 245.990971,168.083886 237.555737,160.301078 C221.360546,145.357273 216.834743,118.601965 215.89079,98.7882754 C214.873562,77.468002 217.666629,59.3730102 217.693927,59.1928594 L220.532971,59.647595 C220.420903,60.3565758 209.768743,130.733091 239.496803,158.158154 C251.329982,169.074715 268.180337,171.823469 289.573736,166.32015 C323.537373,157.588645 346.154893,145.0885 366.110092,134.061524 C406.879675,111.531043 436.33475,95.2506355 526.560583,135.947296 C558.409305,150.311422 666.165082,159.070531 710.201863,118.801002 C728.973169,101.635821 733.539202,77.7818132 723.774961,47.9000154 L726.503374,46.9876385 C736.658414,78.0622093 731.82227,102.949179 712.129999,120.955548 C700.852847,131.267732 673.216714,148.860045 614.828108,150.828629 C580.671945,151.980723 543.903747,146.949574 525.389621,138.600163 C436.466932,98.4948038 409.024762,113.657986 367.487948,136.611239 C347.384762,147.721027 324.597704,160.3127 290.28206,169.137187 C282.888478,171.037488 275.997764,171.987638 269.635778,171.987638" id="Fill-10"></path>
        </g>
        <g id="Group-32-Copy-7" opacity="0.19" transform="translate(1056.043334, 2159.068676) scale(-1, -1) rotate(-130.000000) translate(-1056.043334, -2159.068676) translate(611.043334, 1926.068676)" fill="#FFFFFF" fill-opacity="0.180588942">
            <path d="M281.393579,465.649708 C272.162561,465.649708 262.83492,464.946643 253.498627,463.531887 C221.800801,458.725453 192.316631,446.018524 168.234648,426.787038 C118.950152,387.425465 98.0725622,326.251625 109.450899,254.534687 C121.600771,177.942302 91.3840036,125.402216 63.8957295,94.8124202 C34.0870823,61.6389691 1.02933583,46.4173972 0.699090058,46.2678701 L1.89316649,43.649708 C2.22918075,43.8021106 35.8363755,59.2767283 66.0444903,92.8944475 C93.9495374,123.947202 124.626342,177.276619 112.299089,254.983268 C101.090922,325.637702 121.596445,385.853993 170.038741,424.542694 C217.661913,462.577213 287.101495,473.356105 342.827947,451.368432 C382.520893,435.705467 406.125535,403.756988 431.117497,369.932231 C451.660515,342.128816 472.901519,313.377917 504.72481,290.981919 C540.834085,265.5695 585.398517,252.576457 640.964893,251.262344 C687.290155,250.165333 729.035241,239.133395 765.039241,218.471337 C793.844172,201.939965 819.0712,179.237725 840.02378,150.991479 C875.746567,102.833687 886.77591,54.6111951 886.882627,54.1295452 L889.69909,54.7520956 C889.590931,55.2380587 878.462081,103.969518 842.409048,152.613273 C821.221402,181.200268 795.694413,204.18431 766.537605,220.92847 C730.096642,241.856514 687.87133,253.029352 641.032673,254.136427 C586.057567,255.437601 542.016624,268.258112 506.387576,293.33122 C474.947889,315.458356 453.84677,344.018034 433.439312,371.637415 C408.194979,405.804359 384.350945,438.076334 343.89079,454.041229 C324.383215,461.738999 303.158074,465.649708 281.393579,465.649708" id="Fill-8"></path>
            <path d="M277.600161,389.803137 C259.572032,389.803137 239.477729,384.385342 223.339623,371.499541 C203.720352,355.835015 182.626893,323.112281 193.551194,256.175226 C214.000688,130.867656 157.17151,3.26079737 156.595407,1.98661487 L159.227577,0.80313688 C159.808012,2.08595791 216.989494,130.483241 196.399944,256.638827 C185.700887,322.202356 206.125835,354.066997 225.144457,369.252085 C249.587689,388.769393 283.391514,390.566207 304.148552,382.257385 C335.572883,369.678252 356.810729,333.975226 379.296077,296.173039 C411.143461,242.637217 447.238703,181.957335 521.020329,175.629615 C544.834035,173.585164 570.182571,176.113372 597.024067,178.788436 C675.460722,186.606301 756.558424,194.689082 805.970456,87.4417882 L808.595407,88.643983 C786.108615,137.451652 754.820008,167.002608 712.942077,178.990001 C676.020942,189.556358 635.715383,185.539443 596.736737,181.653547 C570.033853,178.992881 544.812377,176.48051 521.268674,178.497605 C448.964124,184.700067 413.270277,244.703265 381.780972,297.643028 C359.038616,335.874262 337.556757,371.987618 305.225677,384.929569 C297.423017,388.052396 287.842957,389.803137 277.600161,389.803137" id="Fill-9"></path>
            <path d="M269.635778,171.987638 C256.732211,171.987638 245.990971,168.083886 237.555737,160.301078 C221.360546,145.357273 216.834743,118.601965 215.89079,98.7882754 C214.873562,77.468002 217.666629,59.3730102 217.693927,59.1928594 L220.532971,59.647595 C220.420903,60.3565758 209.768743,130.733091 239.496803,158.158154 C251.329982,169.074715 268.180337,171.823469 289.573736,166.32015 C323.537373,157.588645 346.154893,145.0885 366.110092,134.061524 C406.879675,111.531043 436.33475,95.2506355 526.560583,135.947296 C558.409305,150.311422 666.165082,159.070531 710.201863,118.801002 C728.973169,101.635821 733.539202,77.7818132 723.774961,47.9000154 L726.503374,46.9876385 C736.658414,78.0622093 731.82227,102.949179 712.129999,120.955548 C700.852847,131.267732 673.216714,148.860045 614.828108,150.828629 C580.671945,151.980723 543.903747,146.949574 525.389621,138.600163 C436.466932,98.4948038 409.024762,113.657986 367.487948,136.611239 C347.384762,147.721027 324.597704,160.3127 290.28206,169.137187 C282.888478,171.037488 275.997764,171.987638 269.635778,171.987638" id="Fill-10"></path>
        </g>
        <g id="Group-32-Copy-13" opacity="0.19" transform="translate(706.043334, 3000.068676) scale(-1, -1) rotate(-173.000000) translate(-706.043334, -3000.068676) translate(261.043334, 2767.068676)" fill="#FFFFFF" fill-opacity="0.180588942">
            <path d="M281.393579,465.649708 C272.162561,465.649708 262.83492,464.946643 253.498627,463.531887 C221.800801,458.725453 192.316631,446.018524 168.234648,426.787038 C118.950152,387.425465 98.0725622,326.251625 109.450899,254.534687 C121.600771,177.942302 91.3840036,125.402216 63.8957295,94.8124202 C34.0870823,61.6389691 1.02933583,46.4173972 0.699090058,46.2678701 L1.89316649,43.649708 C2.22918075,43.8021106 35.8363755,59.2767283 66.0444903,92.8944475 C93.9495374,123.947202 124.626342,177.276619 112.299089,254.983268 C101.090922,325.637702 121.596445,385.853993 170.038741,424.542694 C217.661913,462.577213 287.101495,473.356105 342.827947,451.368432 C382.520893,435.705467 406.125535,403.756988 431.117497,369.932231 C451.660515,342.128816 472.901519,313.377917 504.72481,290.981919 C540.834085,265.5695 585.398517,252.576457 640.964893,251.262344 C687.290155,250.165333 729.035241,239.133395 765.039241,218.471337 C793.844172,201.939965 819.0712,179.237725 840.02378,150.991479 C875.746567,102.833687 886.77591,54.6111951 886.882627,54.1295452 L889.69909,54.7520956 C889.590931,55.2380587 878.462081,103.969518 842.409048,152.613273 C821.221402,181.200268 795.694413,204.18431 766.537605,220.92847 C730.096642,241.856514 687.87133,253.029352 641.032673,254.136427 C586.057567,255.437601 542.016624,268.258112 506.387576,293.33122 C474.947889,315.458356 453.84677,344.018034 433.439312,371.637415 C408.194979,405.804359 384.350945,438.076334 343.89079,454.041229 C324.383215,461.738999 303.158074,465.649708 281.393579,465.649708" id="Fill-8"></path>
            <path d="M277.600161,389.803137 C259.572032,389.803137 239.477729,384.385342 223.339623,371.499541 C203.720352,355.835015 182.626893,323.112281 193.551194,256.175226 C214.000688,130.867656 157.17151,3.26079737 156.595407,1.98661487 L159.227577,0.80313688 C159.808012,2.08595791 216.989494,130.483241 196.399944,256.638827 C185.700887,322.202356 206.125835,354.066997 225.144457,369.252085 C249.587689,388.769393 283.391514,390.566207 304.148552,382.257385 C335.572883,369.678252 356.810729,333.975226 379.296077,296.173039 C411.143461,242.637217 447.238703,181.957335 521.020329,175.629615 C544.834035,173.585164 570.182571,176.113372 597.024067,178.788436 C675.460722,186.606301 756.558424,194.689082 805.970456,87.4417882 L808.595407,88.643983 C786.108615,137.451652 754.820008,167.002608 712.942077,178.990001 C676.020942,189.556358 635.715383,185.539443 596.736737,181.653547 C570.033853,178.992881 544.812377,176.48051 521.268674,178.497605 C448.964124,184.700067 413.270277,244.703265 381.780972,297.643028 C359.038616,335.874262 337.556757,371.987618 305.225677,384.929569 C297.423017,388.052396 287.842957,389.803137 277.600161,389.803137" id="Fill-9"></path>
            <path d="M269.635778,171.987638 C256.732211,171.987638 245.990971,168.083886 237.555737,160.301078 C221.360546,145.357273 216.834743,118.601965 215.89079,98.7882754 C214.873562,77.468002 217.666629,59.3730102 217.693927,59.1928594 L220.532971,59.647595 C220.420903,60.3565758 209.768743,130.733091 239.496803,158.158154 C251.329982,169.074715 268.180337,171.823469 289.573736,166.32015 C323.537373,157.588645 346.154893,145.0885 366.110092,134.061524 C406.879675,111.531043 436.33475,95.2506355 526.560583,135.947296 C558.409305,150.311422 666.165082,159.070531 710.201863,118.801002 C728.973169,101.635821 733.539202,77.7818132 723.774961,47.9000154 L726.503374,46.9876385 C736.658414,78.0622093 731.82227,102.949179 712.129999,120.955548 C700.852847,131.267732 673.216714,148.860045 614.828108,150.828629 C580.671945,151.980723 543.903747,146.949574 525.389621,138.600163 C436.466932,98.4948038 409.024762,113.657986 367.487948,136.611239 C347.384762,147.721027 324.597704,160.3127 290.28206,169.137187 C282.888478,171.037488 275.997764,171.987638 269.635778,171.987638" id="Fill-10"></path>
        </g>
        <path d="" id="Path-28" stroke="#979797"></path>
    </g>
</svg>