<?xml version="1.0" encoding="UTF-8"?>
<svg width="217px" height="217px" viewBox="0 0 217 217" version="1.1" xmlns="http://www.w3.org/2000/svg" xmlns:xlink="http://www.w3.org/1999/xlink">
    <title>Mask Copy 8</title>
    <defs>
        <linearGradient x1="4.36747323%" y1="31.6901471%" x2="93.6142758%" y2="87.1298894%" id="linearGradient-1">
            <stop stop-color="#EF4443" stop-opacity="0.412177666" offset="0%"></stop>
            <stop stop-color="#EF6B18" offset="99.9754152%"></stop>
        </linearGradient>
        <path d="M375.983578,491.860611 C376.33978,491.693153 376.71023,491.67793 377.08068,491.830164 C376.724478,492.043292 376.354028,492.058515 375.983578,491.860611 Z M398.388445,490.886745 C398.659159,491.084649 398.901376,491.328224 399.129346,491.602245 C398.217468,491.89149 398.217468,491.921937 397.661793,491.115096 C397.889762,490.978085 398.13198,490.886745 398.388445,490.886745 Z M404.445846,486.289931 C404.873289,486.335601 405.514453,486.350825 406.013136,486.366048 C404.502839,487.066325 402.992542,487.705708 401.439501,488.299421 C400.114429,488.817017 398.575635,489.776092 397.165075,489.517294 C398.418907,488.284198 400.769841,488.0254 402.365626,487.3099 C402.664836,487.172889 404.445846,486.335601 404.445846,486.289931 Z M341.20646,487.500433 C342.31781,487.804901 343.571642,487.865795 344.611752,488.38339 C344.782729,488.520401 344.92521,488.687859 345.039194,488.87054 C343.856603,488.946657 342.24657,488.078922 341.20646,487.500433 Z M365.433182,278.569608 C367.179541,278.463519 368.897504,278.418052 370.658061,278.569608 C374.306958,278.872719 377.984251,278.948496 381.647347,279.281918 C389.115517,279.963918 396.526895,281.555251 403.640115,284.025605 L403.640115,284.025605 L403.668511,283.661872 C404.17964,283.813427 404.165442,283.964983 403.753699,284.071071 C404.917939,284.480271 406.082178,284.919782 407.232219,285.374449 C407.729151,285.571471 408.268677,285.889737 408.794004,286.010982 C409.688481,286.208004 409.390322,286.268626 409.844659,285.480537 C410.142818,286.511115 410.142818,286.556581 411.094087,286.980937 C411.420642,287.132492 411.747197,287.268892 412.073752,287.420447 C412.173138,287.314359 412.286723,287.223425 412.400307,287.117337 C413.436764,287.253736 413.720725,287.950892 414.473221,288.587425 C415.538074,289.481602 417.298632,290.027202 418.505465,290.709201 C419.840081,291.451823 421.146301,292.224756 422.438323,293.028 C422.466719,292.512711 421.799411,292.179289 421.870402,291.754934 C421.912996,291.406357 424.170484,292.300534 424.411851,292.452089 C425.377318,293.058311 425.306328,294.331377 426.285993,294.69511 C425.902646,294.710266 425.5051,294.725421 425.121753,294.740577 C425.888448,295.255866 426.655142,295.771154 427.407638,296.301598 C427.010093,295.846932 426.697736,295.316488 426.456369,294.755733 C427.507024,294.907288 428.600274,295.195243 429.381166,295.998487 C430.119464,296.77142 430.474415,298.074797 429.026215,297.468576 C430.460217,298.529464 431.880022,299.650974 433.257232,300.787641 C433.143647,300.48453 433.044261,300.181419 432.930677,299.878308 C433.99553,299.590352 434.705432,300.439063 435.514721,300.984663 C435.969058,301.302929 437.303674,302.348662 437.388862,301.105907 C437.445654,300.423907 435.770285,298.953819 435.344344,298.483997 C434.492462,297.559509 433.583787,296.695643 432.660914,295.862088 C430.758376,294.149511 428.69966,292.603645 426.81132,290.860757 C425.87425,289.996891 425.150149,288.920847 424.213079,288.05698 C423.787137,287.662936 422.424125,287.177959 422.722284,286.450492 C423.26181,285.147115 428.160134,289.239113 428.926829,289.83018 C429.977484,290.618268 431.099129,291.376045 432.050398,292.300534 C432.746102,292.982533 433.015865,293.997955 433.754163,294.604177 C434.364679,295.10431 435.188166,295.195243 435.869672,295.558977 C436.53698,295.907554 437.161694,296.392532 437.275278,295.164932 C437.360466,294.331377 436.267217,293.649378 436.451791,292.846134 C436.53698,292.497556 437.303674,291.891334 437.502447,291.512445 C437.729615,291.057779 437.857398,290.54249 438.027774,290.072668 C438.581498,291.22449 438.879657,292.209601 438.794468,293.512978 C438.78027,293.937333 438.49631,294.604177 438.822865,294.937599 C439.234608,295.331643 440.200075,294.786044 440.697006,295.028532 C441.662473,295.498354 441.208136,296.892665 441.137146,297.771687 C440.540828,297.58982 439.958708,297.392798 439.348192,297.241242 C439.404984,298.377908 439.376588,298.27182 440.327857,298.787108 C441.32172,299.317552 441.236532,299.332708 441.435304,300.378441 C441.804454,302.303195 443.181664,302.848795 444.445289,304.09155 C444.601468,303.621728 444.814439,301.954618 443.834774,302.515373 C443.550813,301.848529 443.266852,301.181685 442.954495,300.529996 C444.984815,301.954618 448.520128,304.106705 449.698565,306.455815 C450.67823,308.410881 451.26035,310.562969 452.169025,312.548346 C452.63756,313.563767 453.475245,314.154834 454.284533,314.897455 C452.878927,316.352388 452.594966,315.2915 451.146766,314.670122 C451.501717,316.034121 453.418452,316.519099 454.497504,317.170788 C455.150614,317.564832 456.584616,319.550209 455.90311,320.277675 C455.306792,319.519897 454.497504,317.958876 453.617225,317.519365 C452.665956,317.049543 452.751144,318.064965 453.134492,318.731809 C453.702413,319.732075 454.327127,320.717186 454.866653,321.762918 C455.675941,323.293629 456.428438,324.824339 457.152538,326.400516 C457.635271,327.431093 457.706261,328.446515 458.827907,328.15856 C459.793374,327.916071 460.219315,327.021894 460.61686,328.59807 C460.347097,326.976427 459.637195,325.172917 459.96375,323.566429 C460.858227,324.44545 461.426149,325.688205 462.036664,326.809716 C463.186706,328.916337 464.279955,331.053269 465.202828,333.29629 C466.438058,336.297089 467.502911,339.38882 468.411586,342.510863 C469.24927,345.375262 470.470302,348.739793 470.55549,351.755747 C470.583886,352.513525 470.456104,353.180369 470.200539,353.89268 C470.058559,354.271568 469.717805,354.695924 469.746202,355.120279 C469.788796,356.014456 470.924639,356.090234 470.924639,356.6813 C470.924639,356.863167 470.172143,357.833122 470.101153,358.196855 C470.04436,358.454499 469.888182,358.924321 470.015964,359.181966 C470.370915,359.909432 471.733928,359.242588 471.662937,360.167076 C471.591947,361.046098 470.385114,360.727832 470.867847,361.622009 C471.095016,362.031209 471.563551,361.51592 471.577749,362.228231 C471.606145,362.849608 471.364778,362.516186 471.024025,362.849608 C470.186341,363.652852 470.285727,363.440675 470.654876,364.577341 C471.009827,365.66854 470.4845,366.411162 470.527094,367.623606 C470.583886,369.078538 470.853649,370.518315 470.896243,371.988403 C470.924639,373.12507 471.520957,374.079869 471.478363,375.140757 C471.464165,375.383246 471.06662,375.534802 471.009827,375.746979 C470.924639,376.05009 471.06662,376.777557 471.095016,377.156445 C471.13761,377.868756 471.180204,378.565911 471.2086,379.263066 C471.265392,380.672532 471.307986,382.081998 471.307986,383.491464 L471.307986,383.491464 L476.731639,383.491464 C476.405084,385.143419 475.879756,386.749907 475.624191,388.432173 C475.368626,390.053816 475.751974,391.645149 475.027873,393.130393 C474.275377,394.645947 474.374764,396.222124 474.275377,397.934701 C474.190189,399.495723 473.806842,401.587188 473.948822,402.936032 C473.480287,403.936298 473.380901,405.633719 473.125336,406.831008 C472.798781,408.346562 472.230859,409.95305 472.372839,411.514072 C473.806842,408.619362 474.388962,405.08812 475.354428,402.011543 C475.567399,401.284077 476.348291,400.844566 476.760035,400.420211 C475.950746,406.34603 474.445754,412.150605 471.975294,417.530824 C471.393175,418.80389 470.754263,420.046645 470.072757,421.259089 C469.476439,422.335133 469.448043,423.320243 468.979507,424.45691 C468.553566,425.487487 468.156021,426.184642 468.113427,427.351619 C468.099229,427.957841 468.184417,427.972997 468.056634,428.564063 C467.94305,429.109663 467.659089,429.261218 467.744278,429.852285 C469.533231,429.094507 470.370915,425.866375 471.109214,424.138643 C471.918502,422.259355 473.849436,420.7438 475.255042,419.334334 C475.070468,420.531623 474.743913,422.274511 473.89203,423.183844 C473.366702,423.744599 472.6568,423.699132 472.088879,424.138643 C471.421571,424.653932 471.024025,425.942153 470.640678,426.66962 C469.873984,428.124552 468.496774,429.86744 468.127625,431.473928 C467.758476,433.110727 468.908517,431.94375 469.788796,432.549972 C471.648739,433.823038 463.570053,444.916899 462.916943,445.795921 C463.995994,443.886322 465.032451,442.128278 465.77075,440.036813 C463.967598,441.097701 462.845953,442.097967 461.92308,444.174277 C460.915019,446.402143 459.992146,448.357208 458.288381,450.100096 C456.769191,451.645962 455.207406,453.025117 453.759205,454.677072 C452.254213,456.404804 450.706626,458.08707 449.102247,459.708713 C445.8225,463.012623 442.329781,466.301377 438.368527,468.665642 C436.977119,469.484042 435.216562,470.120575 434.023926,471.196619 L434.023926,471.196619 L434.151708,471.120841 C432.930677,472.257507 431.780635,473.591195 430.417623,474.56115 C429.49475,475.212839 427.734193,476.304038 426.584152,476.288883 C426.044626,476.273727 425.789061,475.834216 425.192744,475.940305 C424.951377,475.985772 424.213079,476.319194 424.014306,476.470749 C423.758741,476.652616 423.645157,477.016349 423.446384,477.18306 C423.006245,477.531638 423.148225,477.334615 422.637096,477.516482 C421.416064,477.940837 420.663568,478.456126 419.541923,479.244214 C418.363485,480.062614 416.673918,480.168703 415.3535,480.835547 C412.755258,482.169235 410.313195,483.760568 407.686557,484.973011 C407.729151,484.9427 407.757547,484.897234 407.785943,484.866923 C407.232219,485.306433 406.394535,485.806567 406.025386,486.321855 L406.025386,486.321855 L405.897603,486.321855 C406.195762,486.185455 405.173503,485.564078 404.818552,485.670167 C404.449403,485.776255 404.250631,486.564344 403.696907,486.276389 C403.427144,486.124833 403.285164,485.109411 402.87342,484.836611 C402.561063,484.639589 402.234508,484.639589 401.879557,484.639589 C400.672724,484.6699 399.366504,485.276122 398.202264,485.564078 C396.470103,485.988433 394.723744,486.352166 392.963187,486.670433 C388.547595,487.488832 384.132004,488.095054 379.659621,488.443632 C373.540264,488.928609 367.250531,488.761898 361.173769,487.913188 C358.319962,487.519143 355.466156,487.125099 352.669141,486.412788 C350.113494,485.7611 347.813411,484.533501 345.328753,483.745412 C336.199412,480.850702 327.467616,476.516216 319.502514,470.923819 C311.565808,465.346577 304.395796,458.541736 298.27644,450.782096 C295.252257,446.932587 292.46944,442.840589 289.984783,438.566724 C288.735355,436.429792 287.556917,434.232238 286.463668,431.989217 C286.208103,431.473928 285.995133,430.655529 285.625984,430.231173 C285.271033,429.806818 284.731507,429.640107 284.376556,429.139974 C283.76604,428.260952 283.893822,426.790864 283.013544,426.321042 C283.127128,426.53322 283.098732,426.836331 283.198118,427.063664 C282.033879,426.987886 281.281383,424.517532 280.741857,423.380866 C280.017757,421.880466 279.293657,420.774111 278.285596,419.425268 C278.058427,420.122423 277.831258,420.834734 277.632486,421.5622 C277.533099,420.925667 277.547297,420.198201 277.348525,419.576823 C277.249138,419.258557 276.922583,418.955446 276.936781,418.606868 C276.965178,417.940024 277.518901,418.106735 277.67508,417.652069 C277.788664,417.303491 277.419515,416.773047 277.291733,416.469936 C276.43985,414.530026 275.545373,412.923538 275.105234,410.832072 C274.210757,406.497586 273.302083,401.693277 273.358875,397.267857 C273.387271,395.919013 274.026183,396.752568 274.33854,395.737147 C274.523114,395.14608 274.196559,394.736881 274.040381,394.191281 C273.799014,393.403192 273.68543,392.660571 273.671232,391.827015 C273.614439,388.598884 273.713826,385.355597 273.699628,382.127465 C273.68543,378.793244 273.926796,375.443868 274.267549,372.124803 C274.55151,369.290716 274.622501,365.53214 275.815136,362.940542 C275.999711,363.243652 276.525038,364.41063 277.02197,364.213608 C277.249138,364.122674 277.490505,361.697787 277.561495,361.364365 C277.987437,359.257743 278.47017,357.151122 279.023894,355.074812 C278.441774,355.271834 278.384982,355.105123 278.030031,354.620146 C278.54116,354.438279 278.739933,354.241257 279.12328,354.726235 C279.378845,353.75628 279.520825,352.725702 279.762192,351.81637 C279.91837,351.179837 280.4295,350.679703 280.50049,349.982548 C280.514688,349.876459 280.50049,349.073215 280.457896,349.19446 C280.557282,348.906504 280.94063,348.51246 281.08261,348.163883 C281.267184,347.724372 281.394967,347.25455 281.551145,346.799883 C281.564736,346.761637 281.579106,346.722759 281.594168,346.6833 C281.486793,346.722986 281.321591,346.733329 281.074874,346.720364 C281.03213,345.883077 281.160363,345.974417 281.858519,345.654726 C281.84705,345.829347 281.843659,345.978692 281.838476,346.10549 C282.178304,345.344771 282.604945,344.478874 282.658593,343.768774 C282.729583,343.071619 282.275246,342.541174 282.502414,341.73793 C282.701187,341.02562 283.283307,340.48002 283.69505,339.919265 C283.822832,340.101131 283.922218,340.298153 283.993209,340.525487 C284.191981,340.040509 284.390754,339.555531 284.603725,339.070554 C284.27717,339.373665 283.950615,339.66162 283.62406,339.949576 C284.291368,338.40371 285.029666,336.903311 285.782162,335.387756 C286.122915,334.690601 286.435272,333.947979 286.847015,333.281135 C286.918006,333.15989 287.926067,331.523091 287.883472,332.280869 C294.42877,319.868475 303.359339,308.92617 313.965277,300.287507 C313.936881,300.272352 313.525138,300.302663 313.865891,300.045019 C314.149851,299.832841 313.908485,300.302663 314.348624,299.984396 C314.760367,299.696441 315.143714,299.347863 315.54126,299.044753 C314.263436,298.878042 313.979475,297.620131 314.944942,296.816887 C315.370883,296.468309 315.953003,296.225821 316.40734,295.953021 C318.125303,294.937599 320.39699,293.209867 322.370518,293.391733 C321.944577,293.9828 321.56123,294.528399 321.0501,295.058843 C322.796459,293.891866 324.571215,292.7552 326.374366,291.694312 C326.147198,291.77009 325.905831,291.830712 325.664464,291.921645 C326.147198,291.315423 326.686723,290.54249 327.283041,290.072668 C327.992943,289.511913 328.560865,289.527069 329.46954,289.42098 C330.775759,289.269424 331.528256,288.87538 332.834476,288.254003 C334.154894,287.61747 335.688282,286.980937 336.852522,286.329248 C336.909314,286.177693 336.994502,286.041293 337.122285,285.920048 C337.235869,285.662404 337.406245,285.632093 337.66181,285.829115 C338.357514,285.632093 339.138407,285.495693 339.905101,285.207738 C346.067051,282.813161 352.456171,281.070273 358.930478,280.054851 C357.624258,278.963652 359.853351,279.009119 359.441608,279.979074 C360.094718,279.88814 360.73363,279.812363 361.38674,279.721429 C360.833016,278.660541 364.950448,278.599919 365.433182,278.569608 Z M407.904937,487.119675 C408.417868,486.967441 408.645838,486.891324 409.158769,487.013111 C408.588845,487.880845 407.748208,487.911292 406.793587,487.804728 C407.178285,487.50026 407.448999,487.287132 407.904937,487.119675 Z M428.550658,479.092702 C428.664642,478.818681 428.864116,478.72734 429.163325,478.818681 C428.849867,479.336277 428.949604,479.26016 428.550658,479.092702 Z M433.407524,475.657279 C433.478764,475.535492 434.219664,475.718173 433.293539,476.083534 L433.293539,476.083534 Z M442.108202,467.471513 C442.19369,467.456289 442.279179,467.471513 442.364667,467.517183 C442.12245,468.034779 442.236434,467.989109 441.880232,467.928215 C441.951473,467.775981 442.036961,467.623747 442.108202,467.471513 Z M306.166135,466.18697 C306.365608,465.806385 307.32023,466.460991 307.605191,466.658895 C309.343458,467.815875 307.69068,468.120343 306.778802,467.389619 C306.565081,467.222162 306.037902,466.415321 306.166135,466.18697 Z M302.167519,462.769462 C302.808683,463.302281 303.236126,463.393622 302.97966,464.261356 C302.338496,463.682867 301.996542,463.637196 302.167519,462.769462 Z M287.448436,443.567494 C289.642641,445.75909 291.13869,448.711657 293.033686,451.192422 C292.677483,451.664224 295.270635,454.495035 295.712325,455.027715 C296.86642,456.443121 298.43371,457.843307 299.060625,459.578321 C297.678561,458.893447 296.766684,457.49326 295.783566,456.275707 C294.729208,454.966837 293.703345,453.642748 292.720228,452.273 C290.796736,449.563944 288.673772,446.717913 287.448436,443.567494 Z M454.369721,449.857607 C453.844394,450.433518 453.304868,450.994274 452.779541,451.570184 C453.276472,451.054896 454.043166,450.49414 454.369721,449.857607 Z M457.038953,446.402143 C456.016694,446.978053 455.39198,448.432986 454.696276,449.418097 C455.533961,448.630008 456.314853,447.766142 457.095746,446.902276 C457.124142,446.735565 457.109944,446.568854 457.038953,446.402143 Z M465.500987,435.474993 C464.322549,436.596503 463.428073,437.930191 462.391615,439.188102 C461.227376,440.597568 459.835968,441.643301 458.487154,442.825433 C459.495215,443.431655 457.621073,444.083344 457.649469,444.962366 C457.706261,446.705254 459.580403,444.159122 459.864364,443.825699 C461.795298,441.597834 463.527459,439.415435 465.202828,436.945081 C465.472591,436.551037 465.415799,435.944815 465.500987,435.474993 Z M284.197378,436.665346 C284.510835,436.939367 284.810045,437.213389 285.123503,437.472187 C285.29448,437.883219 286.021132,438.979304 285.280232,438.918411 C284.596324,438.857517 284.339858,437.182942 284.197378,436.665346 Z M281.55156,429.606053 C281.879266,430.549905 282.420694,431.448086 282.691407,432.407161 C283.047609,433.625033 282.292461,433.137884 282.292461,433.381459 C282.306709,431.889565 280.254985,431.204511 281.55156,429.606053 Z M470.993162,429.696411 C471.534589,430.000879 471.4491,430.168336 470.864929,430.137889 C470.907673,430.000879 470.950417,429.848645 470.993162,429.696411 Z M280.259831,427.617036 C280.730018,428.271643 281.200204,428.926249 281.684639,429.596079 C280.772762,429.276388 280.231335,428.637005 280.259831,427.617036 Z M277.838324,421.65156 C279.434109,423.143454 280.516964,424.757135 280.075273,427.162434 C279.248884,425.366071 278.593472,423.493592 277.838324,421.65156 Z M471.464165,414.711892 C470.796857,416.424469 470.342519,417.833935 470.058559,419.682912 C470.399312,418.849357 470.825253,418.046113 471.080818,417.182247 C471.336382,416.394158 471.364778,415.545448 471.464165,414.711892 Z M474.229323,415.349593 C474.314811,415.851966 474.286315,415.851966 473.873121,416.141211 C473.787632,415.775849 473.915865,415.501828 474.229323,415.349593 Z M278.881913,411.120028 C278.853517,411.362516 278.810923,411.58985 278.810923,411.832338 C278.754131,412.423405 279.307855,413.166027 279.563419,413.66616 C279.322053,412.817449 279.094884,411.968738 278.881913,411.120028 Z M477.136981,411.678652 C477.193974,412.211471 477.065741,412.485493 476.894764,412.987865 C476.866268,412.805184 476.85202,412.622503 476.866268,412.439823 C476.951756,412.181025 477.051493,411.93745 477.136981,411.678652 Z M264.912607,409.894364 C265.525274,410.929555 265.496778,411.036119 265.055088,412.147428 C264.855614,411.979971 264.713134,411.766843 264.627645,411.523268 C264.656141,410.975226 264.81287,410.442406 264.912607,409.894364 Z M276.226879,409.786339 C275.829334,410.49865 276.43985,410.847228 276.894187,411.438294 C277.23494,410.741139 276.610226,410.377406 276.226879,409.786339 Z M479.430568,400.599948 C479.102862,403.15748 478.874893,405.897694 478.020008,408.318216 C478.091248,407.03945 478.347713,405.79113 478.575683,404.527587 C478.37621,403.614183 479.174102,401.696033 479.430568,400.599948 Z M263.213721,399.243489 C263.655412,399.928543 263.66966,399.989436 263.341954,400.750607 C263.185225,400.537479 263.07124,400.293905 263,400.035107 C263.028496,399.761085 263.099737,399.487064 263.213721,399.243489 Z M478.094016,390.621791 C478.977397,391.87011 478.336233,393.83393 478.079768,395.341047 C477.809054,396.909058 477.39586,398.400952 476.939921,399.923293 C477.068154,398.61408 477.196386,397.304867 477.324619,396.010877 C477.481348,394.321079 477.210634,391.976674 478.094016,390.621791 Z M472.230859,395.00968 C471.421571,394.176125 471.904304,397.237546 472.103077,397.601279 C472.259255,396.843502 472.898167,395.69168 472.230859,395.00968 Z M275.190422,386.401329 C274.082975,389.205106 275.360799,392.130126 275.85773,394.933903 C275.914522,394.994525 275.957117,395.055147 275.999711,395.14608 C275.843532,393.630526 275.729948,392.130126 275.630562,390.614572 C275.559571,389.477906 275.829334,387.310662 275.190422,386.401329 Z M472.812979,389.841639 C472.685196,390.159905 472.58581,390.493327 472.51482,390.826749 C472.500622,391.145016 472.51482,391.463282 472.543216,391.796704 C473.082742,391.114705 472.912365,390.72066 472.812979,389.841639 Z M479.415829,383.376148 C479.586806,383.330478 479.814775,383.376148 480,383.376148 C479.957256,383.589276 479.829023,383.908967 479.715038,384.091648 C479.615302,383.863297 479.487069,383.619722 479.415829,383.376148 Z M473.967319,361.881793 C474.337769,360.798585 474.950437,360.97912 475.22115,362.032238 C475.620097,363.611917 475.192654,365.883644 475.092918,367.5235 C475.021677,368.71202 474.936189,369.915584 474.8507,371.104104 C474.750964,372.443069 474.594235,373.751945 474.423258,375.075866 C474.323521,375.858183 474.423258,377.949376 473.896078,378.611336 C473.055441,379.664455 472.713487,378.32549 472.727736,377.528128 C472.741984,376.324564 473.012697,375.075866 473.14093,373.872302 C473.397396,371.435084 473.611117,368.937688 473.653861,366.470382 C473.668109,365.417263 473.653861,364.3491 473.725101,363.311025 C473.753598,362.784466 473.796342,362.408352 473.967319,361.881793 Z M275.744146,374.852802 C275.516977,375.155913 275.304007,375.474179 275.091036,375.807602 C274.863867,376.201646 274.721887,378.990267 275.147828,378.853867 C275.829334,378.626533 275.687354,375.519646 275.744146,374.852802 Z M276.553434,367.350806 C276.468246,367.214406 276.042305,366.926451 275.900324,367.19925 C275.687354,367.623606 275.360799,369.927249 276.155889,369.82116 C276.184285,369.82116 276.709613,367.593295 276.553434,367.350806 Z M265.363905,360.3923 L264.907966,363.832791 C264.736989,365.111557 264.409283,366.405547 264.152818,367.684313 C264.409283,364.944099 264.679997,363.02595 265.363905,360.3923 L265.363905,360.3923 Z M268.831103,361.33381 C268.873847,360.785768 269.37253,361.120683 269.529259,361.349034 C269.44377,361.470821 269.173057,361.729619 269.044824,361.790513 C268.945088,361.668725 268.873847,361.501268 268.831103,361.33381 Z M276.663048,360.607003 C276.777033,361.170269 276.791281,361.063705 276.406582,361.170269 C276.306846,360.911471 276.392334,360.72879 276.663048,360.607003 Z M470.382989,336.74116 C472.477457,340.071135 473.560312,344.763373 474.386701,348.638253 C475.227338,352.558542 476.010982,356.736147 474.586174,360.626163 C473.289598,359.566626 472.990388,357.841093 473.118621,356.206378 C473.303846,352.694768 472.733923,349.21343 472.007271,345.807774 C471.665317,344.203331 471.280618,342.614025 470.924416,341.009582 C470.582462,339.450549 470.069531,338.31533 470.382989,336.74116 Z M270.487356,356.426077 C270.743821,357.613503 270.90055,357.826631 269.888936,358.526908 C269.732207,358.207216 269.646719,357.887524 269.646719,357.537386 C269.817696,357.095907 270.216642,356.760992 270.487356,356.426077 Z M466.068909,349.815837 C466.807207,352.104325 467.474515,354.423124 468.056634,356.772234 C467.80107,355.514323 467.488713,354.256413 467.133762,353.043969 C466.863999,352.104325 466.651028,350.58877 466.068909,349.815837 Z M273.210538,345.770741 C273.224787,347.262635 272.654863,348.450061 272.027947,349.759274 C272.198924,348.617518 272.284413,347.50621 272.783096,346.455794 C272.911329,346.21222 273.05381,345.983869 273.210538,345.770741 Z M465.217026,344.526551 C465.060847,343.965796 465.075046,342.086508 463.967598,342.707885 C463.385478,343.026152 464.279955,344.526551 464.507124,345.132773 C464.776887,345.860239 464.975659,346.98175 465.444195,347.557661 C465.387402,346.557394 465.500987,345.511662 465.217026,344.526551 Z M303.080796,301.569836 C302.86835,302.938374 301.607833,303.82032 300.715557,304.778297 C300.064055,305.477772 299.412552,306.177246 298.775212,306.876721 C295.98508,309.948328 293.095806,312.867875 290.277348,315.878659 C286.849877,319.528093 284.144723,324.135503 281.694506,328.575648 C279.739997,332.103434 277.969609,335.722456 276.199221,339.356684 C275.689349,340.54275 275.207803,341.698405 274.584627,342.778029 C274.924541,340.497132 275.986774,338.368296 276.87905,336.269871 C277.51639,334.749274 278.182056,333.107029 279.046005,331.464783 C281.071329,327.617671 283.323263,323.907414 285.759317,320.349215 C288.28035,316.684575 290.999667,313.141583 293.93143,309.841886 C295.404393,308.184435 296.934008,306.572602 298.506113,305.021592 C299.752466,303.789908 301.324571,301.600248 303.080796,301.569836 Z M460.787237,329.113359 C460.801435,329.386159 460.758841,329.628648 460.659454,329.871137 C458.714322,330.644069 459.82177,331.886824 460.389691,333.629712 C460.787237,334.857312 461.170584,336.100067 461.553931,337.327666 C461.738505,337.933888 461.965674,339.600998 462.533596,339.964731 C464.336747,341.146864 462.050862,335.978822 462.136051,335.509 C462.377417,334.069223 463.271894,335.6454 463.499063,336.160689 C463.939202,337.115488 464.294153,338.115754 464.720094,339.085709 C464.933065,337.403444 464.095381,335.690867 463.541657,334.129845 C463.002131,332.58398 462.845953,331.462469 461.255772,332.508202 C461.071197,330.977491 462.618784,330.219714 460.787237,329.113359 Z M467.406904,329.737079 C467.962579,331.046292 468.646487,332.355506 468.917201,333.771283 C467.891339,332.964442 467.748858,331.015846 467.406904,329.737079 Z M466.692511,327.367739 C466.906233,328.007123 467.119954,328.661729 467.347923,329.316336 C466.977473,328.935751 466.165332,327.702654 466.692511,327.367739 Z M457.082475,322.509635 C458.094089,323.666614 458.46454,324.717029 458.507284,326.300264 C457.809128,325.828338 456.583792,325.188955 456.697777,324.108093 C456.75477,323.56005 456.954243,323.027231 457.082475,322.509635 Z M450.124507,317.125321 C449.88314,317.398121 451.061577,318.686342 451.302944,319.019764 L451.302944,319.019764 Z M458.824552,311.993133 C459.180754,311.338527 460.292105,311.597325 460.862028,311.764782 C462.643039,312.297601 464.19608,316.529709 464.338561,318.341295 C463.52642,317.306103 462.814016,316.179571 462.11586,315.053038 C461.802402,314.565889 461.545936,313.774272 460.947517,313.637261 C460.762795,313.596427 460.663502,313.719891 460.578346,313.834908 C460.603804,313.857895 460.585537,313.820119 460.60675,314.035445 C460.55672,313.999809 460.521872,313.964172 460.503051,313.92944 C460.492421,313.944281 460.479756,313.957255 460.466691,313.96829 C460.535703,314.100254 460.591582,314.248174 460.660983,314.381647 C460.447262,314.3512 460.39027,314.214189 460.46151,313.955391 L460.456665,313.976306 C460.390262,314.026361 460.31232,314.024222 460.192368,313.896059 C459.750678,313.40891 458.325869,312.921761 458.824552,311.993133 Z M299.194831,313.411685 C299.779002,312.863643 299.835994,313.898834 299.764754,314.233749 C299.650769,314.644781 299.009605,315.223271 298.710396,315.558186 C298.268705,316.060558 297.228595,317.780804 296.558935,318.100495 C295.347848,318.663761 295.390592,317.278431 295.903523,316.608601 C296.829649,315.405952 298.111976,314.431654 299.194831,313.411685 Z M442.883505,306.728615 C442.826713,308.456348 444.019348,309.865814 445.084201,311.169191 C445.751509,311.972435 446.773768,313.397056 447.867018,313.730478 C447.597255,312.275546 446.504006,310.896391 445.751509,309.668791 C444.970617,308.395725 444.246517,307.274215 442.883505,306.728615 Z M303.64728,307.263916 C303.177093,308.146873 302.90638,308.618799 302.022999,308.999384 C302.336457,308.101203 302.949124,307.796735 303.64728,307.263916 Z M457.182971,308.993872 C456.570304,308.628511 456.841017,308.019574 457.382445,308.4915 C457.353948,308.658957 457.239964,308.841638 457.182971,308.993872 Z M438.964845,305.470705 C438.993241,306.57706 441.406908,308.395725 442.372375,308.880703 C441.534691,307.744037 440.767996,306.470971 439.703143,305.576794 C439.461776,305.546482 439.206212,305.501016 438.964845,305.470705 Z M442.582211,289.030978 C443.107457,288.803828 443.646898,289.27327 443.987597,289.606422 C445.236829,290.787597 446.258928,292.468501 447.323615,293.846539 C448.587042,295.482012 449.822079,297.147772 451.085506,298.783246 C452.249564,300.267287 453.470404,301.675611 454.449915,303.311085 C455.21649,304.598263 456.451526,305.597719 456.366351,307.08176 C455.003552,306.612318 454.691244,305.32514 453.910474,304.098535 C453.4846,304.461973 451.539773,301.16074 451.113898,300.585295 C449.921449,299.010395 448.658022,297.480924 447.380398,295.966597 C446.301516,294.755135 445.236829,293.558816 444.157947,292.332211 C443.561723,291.68105 442.965498,291.02989 442.497036,290.272726 C442.184728,289.757855 441.801441,289.36413 442.582211,289.030978 Z M306.96168,304.114507 C306.633974,304.479869 306.534237,304.677774 306.078298,304.799561 C306.36326,304.312412 306.448749,304.190624 306.96168,304.114507 Z M442.120012,299.025001 C441.792306,298.400841 442.66144,298.720533 442.689936,298.690086 C442.632943,298.735756 442.447718,299.679608 442.120012,299.025001 Z M319.161761,296.362221 C317.954927,296.816887 317.117242,297.771687 316.080785,298.544619 C316.91847,298.317286 318.29568,296.983598 319.161761,296.362221 Z M307.819021,297.643135 C308.545674,296.836294 308.616914,296.881965 309.642776,296.958082 C308.930372,297.567018 308.659658,298.115061 307.819021,297.643135 Z M312.074285,294.608276 C311.789324,295.47601 311.589851,295.552127 310.791958,295.932713 C311.176656,295.201989 311.290641,294.851851 312.074285,294.608276 Z M426.257699,291.926594 C426.556908,292.002711 426.856118,292.109275 427.126832,292.246285 C427.297809,292.413743 427.426042,292.611647 427.525778,292.839998 C426.656645,292.763881 426.585405,292.794328 426.257699,291.926594 Z M320.488025,289.487699 C320.359792,289.700826 320.203063,289.913954 320.017838,290.096635 C318.635774,291.162274 317.182469,291.862551 315.643676,292.654168 L315.643676,292.654168 L317.681152,290.614231 C318.194083,290.918699 319.604644,289.502922 320.488025,289.487699 Z M329.512713,286.943782 C329.227751,287.24825 328.928541,287.552719 328.64358,287.857187 C327.931175,288.192102 327.517981,288.466123 326.762832,288.344336 C327.44674,287.324367 328.429858,287.20258 329.512713,286.943782 Z M435.612797,283.325056 C435.299339,282.04629 436.55317,282.822684 437.066102,283.279386 C438.348429,284.405918 441.084061,286.171834 441.312031,287.968196 C439.944215,287.465824 438.832864,285.989153 437.764258,284.969185 C437.180086,284.619046 435.798022,284.116674 435.612797,283.325056 Z M418.59616,286.722813 C419.066346,286.920717 419.208827,287.088175 419.465293,287.544877 C418.881121,287.377419 418.781385,287.331749 418.59616,286.722813 Z M334.084763,283.654041 L334.359027,283.659205 C334.202298,284.374706 334.173802,285.546908 333.176436,285.151099 C331.537906,284.511716 329.87088,286.018834 328.303591,286.414642 C329.015995,285.227216 329.699903,285.211993 330.882494,284.770514 C332.150574,284.283365 332.948466,283.583088 334.359027,283.659205 Z M408.598917,285.172254 C409.054856,285.096137 409.39681,285.096137 409.810005,285.324488 C409.368314,285.583286 408.997864,285.461499 408.598917,285.172254 Z M335.393241,284.89592 C335.877676,284.302207 335.891924,284.31743 336.604328,284.500111 C336.447599,284.758909 336.262374,284.972037 336.034405,285.154718 C335.792188,285.139494 335.578466,285.048154 335.393241,284.89592 Z M419.387239,285.138132 C419.159269,283.372216 419.843177,283.676685 420.683814,284.757547 C420.256372,284.879334 419.814681,285.016345 419.387239,285.138132 Z M349.993847,279.758526 C352.166053,279.514951 354.806774,278.845121 356.879598,279.545398 C354.636405,280.885058 351.569761,280.900281 349.099409,281.554888 C347.580284,281.950697 346.061159,282.407399 344.57043,282.924995 C344.201297,283.046782 343.264266,283.564378 342.852541,283.473037 C342.327236,283.366474 342.171065,282.879324 341.773537,282.559633 C340.396386,281.433101 343.250069,280.869834 343.988335,280.702377 C345.94758,280.245675 347.992009,279.986877 349.993847,279.758526 Z M402.06961,282.844568 C402.539797,282.707557 402.44006,282.661887 402.582541,282.966355 C402.311827,283.194706 402.425812,283.20993 402.06961,282.844568 Z M414.519867,280.240906 C415.460241,279.692863 416.856553,282.433077 417.141515,283.011566 C416.514599,283.042013 414.491371,283.331258 414.120921,282.35696 C414.078177,282.204726 413.536749,281.961151 413.550998,281.793693 L413.561,281.836 L413.575236,281.844745 C413.696609,281.841073 414.221263,281.160294 414.285612,281.084389 C414.405883,280.880289 414.27765,280.377916 414.519867,280.240906 Z M399.242593,281.842423 C399.997742,281.720636 399.997742,281.811976 400.496425,282.436136 C400.197215,282.512253 399.912253,282.512253 399.613043,282.466583 C399.442066,282.283902 399.313834,282.085998 399.242593,281.842423 Z M403.080967,275.674047 C403.308936,274.288717 405.503141,275.354355 406.172801,276.069855 C407.227159,277.181164 407.426632,278.612165 409.193395,278.703505 C410.489971,278.764399 410.846173,278.109792 411.900531,279.03842 C410.489971,279.66258 408.423998,279.068867 406.913701,278.962303 C406.001824,278.383814 402.852997,277.105047 403.080967,275.674047 Z" id="path-2"></path>
    </defs>
    <g id="Page-1" stroke="none" stroke-width="1" fill="none" fill-rule="evenodd">
        <g id="Group-3" transform="translate(-263.000000, -275.000000)">
            <mask id="mask-3" fill="white">
                <use xlink:href="#path-2"></use>
            </mask>
            <use id="Mask-Copy-8" fill="url(#linearGradient-1)" fill-rule="nonzero" xlink:href="#path-2"></use>
        </g>
    </g>
</svg>